StartChar: custom_5_6_0_0_0
Encoding: 36768 36768 16800
Width: 70
Flags: H
LayerCount: 2
Fore
SplineSet
23 43 m 1
 21 43 l 1
 21 41 l 1
 23 41 l 1
 23 43 l 1
26 43 m 1
 24 43 l 1
 24 41 l 1
 25 41 l 1
 25 42 l 1
 26 42 l 1
 26 43 l 1
27 42 m 1
 26 42 l 1
 26 41 l 1
 28 41 l 1
 28 43 l 1
 27 43 l 1
 27 42 l 1
31 43 m 1
 29 43 l 1
 29 41 l 1
 31 41 l 1
 31 43 l 1
41 43 m 1
 39 43 l 1
 39 41 l 1
 41 41 l 1
 41 43 l 1
23 35 m 1
 21 35 l 1
 21 33 l 1
 23 33 l 1
 23 35 l 1
25 35 m 1
 24 35 l 1
 24 33 l 1
 26 33 l 1
 26 34 l 1
 25 34 l 1
 25 35 l 1
23 31 m 1
 21 31 l 1
 21 29 l 1
 23 29 l 1
 23 31 l 1
23 27 m 1
 21 27 l 1
 21 25 l 1
 23 25 l 1
 23 27 l 1
26 27 m 1
 24 27 l 1
 24 25 l 1
 25 25 l 1
 25 26 l 1
 26 26 l 1
 26 27 l 1
31 39 m 1
 29 39 l 1
 29 37 l 1
 31 37 l 1
 31 39 l 1
28 35 m 1
 26 35 l 1
 26 34 l 1
 27 34 l 1
 27 33 l 1
 28 33 l 1
 28 35 l 1
31 35 m 1
 29 35 l 1
 29 33 l 1
 31 33 l 1
 31 35 l 1
36 37 m 1
 34 37 l 1
 34 35 l 1
 36 35 l 1
 36 37 l 1
41 39 m 1
 39 39 l 1
 39 37 l 1
 41 37 l 1
 41 39 l 1
36 33 m 1
 34 33 l 1
 34 31 l 1
 36 31 l 1
 36 33 l 1
41 35 m 1
 39 35 l 1
 39 33 l 1
 41 33 l 1
 41 35 l 1
27 26 m 1
 26 26 l 1
 26 25 l 1
 28 25 l 1
 28 27 l 1
 27 27 l 1
 27 26 l 1
31 27 m 1
 29 27 l 1
 29 25 l 1
 31 25 l 1
 31 27 l 1
41 27 m 1
 39 27 l 1
 39 25 l 1
 41 25 l 1
 41 27 l 1
44 43 m 1
 42 43 l 1
 42 41 l 1
 43 41 l 1
 43 42 l 1
 44 42 l 1
 44 43 l 1
45 42 m 1
 44 42 l 1
 44 41 l 1
 46 41 l 1
 46 43 l 1
 45 43 l 1
 45 42 l 1
49 43 m 1
 47 43 l 1
 47 41 l 1
 49 41 l 1
 49 43 l 1
55 43 m 1
 53 43 l 1
 53 41 l 1
 55 41 l 1
 55 43 l 1
58 43 m 1
 56 43 l 1
 56 41 l 1
 57 41 l 1
 57 42 l 1
 58 42 l 1
 58 43 l 1
59 42 m 1
 58 42 l 1
 58 41 l 1
 60 41 l 1
 60 43 l 1
 59 43 l 1
 59 42 l 1
63 43 m 1
 61 43 l 1
 61 41 l 1
 63 41 l 1
 63 43 l 1
43 35 m 1
 42 35 l 1
 42 33 l 1
 44 33 l 1
 44 34 l 1
 43 34 l 1
 43 35 l 1
46 35 m 1
 44 35 l 1
 44 34 l 1
 45 34 l 1
 45 33 l 1
 46 33 l 1
 46 35 l 1
49 35 m 1
 47 35 l 1
 47 33 l 1
 49 33 l 1
 49 35 l 1
55 39 m 1
 53 39 l 1
 53 37 l 1
 55 37 l 1
 55 39 l 1
55 35 m 1
 53 35 l 1
 53 33 l 1
 55 33 l 1
 55 35 l 1
57 35 m 1
 56 35 l 1
 56 33 l 1
 58 33 l 1
 58 34 l 1
 57 34 l 1
 57 35 l 1
49 31 m 1
 47 31 l 1
 47 29 l 1
 49 29 l 1
 49 31 l 1
44 27 m 1
 42 27 l 1
 42 25 l 1
 43 25 l 1
 43 26 l 1
 44 26 l 1
 44 27 l 1
45 26 m 1
 44 26 l 1
 44 25 l 1
 46 25 l 1
 46 27 l 1
 45 27 l 1
 45 26 l 1
49 27 m 1
 47 27 l 1
 47 25 l 1
 49 25 l 1
 49 27 l 1
55 31 m 1
 53 31 l 1
 53 29 l 1
 55 29 l 1
 55 31 l 1
55 27 m 1
 53 27 l 1
 53 25 l 1
 55 25 l 1
 55 27 l 1
58 27 m 1
 56 27 l 1
 56 25 l 1
 57 25 l 1
 57 26 l 1
 58 26 l 1
 58 27 l 1
60 35 m 1
 58 35 l 1
 58 34 l 1
 59 34 l 1
 59 33 l 1
 60 33 l 1
 60 35 l 1
63 35 m 1
 61 35 l 1
 61 33 l 1
 63 33 l 1
 63 35 l 1
63 31 m 1
 61 31 l 1
 61 29 l 1
 63 29 l 1
 63 31 l 1
59 26 m 1
 58 26 l 1
 58 25 l 1
 60 25 l 1
 60 27 l 1
 59 27 l 1
 59 26 l 1
63 27 m 1
 61 27 l 1
 61 25 l 1
 63 25 l 1
 63 27 l 1
EndSplineSet
EndChar

StartChar: custom_5_6_0_0_1
Encoding: 36769 36769 16801
Width: 70
Flags: H
LayerCount: 2
Fore
SplineSet
23 43 m 1
 21 43 l 1
 21 41 l 1
 23 41 l 1
 23 43 l 1
26 43 m 1
 24 43 l 1
 24 41 l 1
 25 41 l 1
 25 42 l 1
 26 42 l 1
 26 43 l 1
27 42 m 1
 26 42 l 1
 26 41 l 1
 28 41 l 1
 28 43 l 1
 27 43 l 1
 27 42 l 1
31 43 m 1
 29 43 l 1
 29 41 l 1
 31 41 l 1
 31 43 l 1
41 43 m 1
 39 43 l 1
 39 41 l 1
 41 41 l 1
 41 43 l 1
23 35 m 1
 21 35 l 1
 21 33 l 1
 23 33 l 1
 23 35 l 1
25 35 m 1
 24 35 l 1
 24 33 l 1
 26 33 l 1
 26 34 l 1
 25 34 l 1
 25 35 l 1
23 31 m 1
 21 31 l 1
 21 29 l 1
 23 29 l 1
 23 31 l 1
23 27 m 1
 21 27 l 1
 21 25 l 1
 23 25 l 1
 23 27 l 1
26 27 m 1
 24 27 l 1
 24 25 l 1
 25 25 l 1
 25 26 l 1
 26 26 l 1
 26 27 l 1
31 39 m 1
 29 39 l 1
 29 37 l 1
 31 37 l 1
 31 39 l 1
28 35 m 1
 26 35 l 1
 26 34 l 1
 27 34 l 1
 27 33 l 1
 28 33 l 1
 28 35 l 1
31 35 m 1
 29 35 l 1
 29 33 l 1
 31 33 l 1
 31 35 l 1
36 37 m 1
 34 37 l 1
 34 35 l 1
 36 35 l 1
 36 37 l 1
41 39 m 1
 39 39 l 1
 39 37 l 1
 41 37 l 1
 41 39 l 1
36 33 m 1
 34 33 l 1
 34 31 l 1
 36 31 l 1
 36 33 l 1
41 35 m 1
 39 35 l 1
 39 33 l 1
 41 33 l 1
 41 35 l 1
27 26 m 1
 26 26 l 1
 26 25 l 1
 28 25 l 1
 28 27 l 1
 27 27 l 1
 27 26 l 1
31 27 m 1
 29 27 l 1
 29 25 l 1
 31 25 l 1
 31 27 l 1
41 27 m 1
 39 27 l 1
 39 25 l 1
 41 25 l 1
 41 27 l 1
44 43 m 1
 42 43 l 1
 42 41 l 1
 43 41 l 1
 43 42 l 1
 44 42 l 1
 44 43 l 1
45 42 m 1
 44 42 l 1
 44 41 l 1
 46 41 l 1
 46 43 l 1
 45 43 l 1
 45 42 l 1
49 43 m 1
 47 43 l 1
 47 41 l 1
 49 41 l 1
 49 43 l 1
55 43 m 1
 53 43 l 1
 53 41 l 1
 55 41 l 1
 55 43 l 1
58 43 m 1
 56 43 l 1
 56 41 l 1
 57 41 l 1
 57 42 l 1
 58 42 l 1
 58 43 l 1
59 42 m 1
 58 42 l 1
 58 41 l 1
 60 41 l 1
 60 43 l 1
 59 43 l 1
 59 42 l 1
63 43 m 1
 61 43 l 1
 61 41 l 1
 63 41 l 1
 63 43 l 1
43 35 m 1
 42 35 l 1
 42 33 l 1
 44 33 l 1
 44 34 l 1
 43 34 l 1
 43 35 l 1
46 35 m 1
 44 35 l 1
 44 34 l 1
 45 34 l 1
 45 33 l 1
 46 33 l 1
 46 35 l 1
49 35 m 1
 47 35 l 1
 47 33 l 1
 49 33 l 1
 49 35 l 1
55 39 m 1
 53 39 l 1
 53 37 l 1
 55 37 l 1
 55 39 l 1
55 35 m 1
 53 35 l 1
 53 33 l 1
 55 33 l 1
 55 35 l 1
57 35 m 1
 56 35 l 1
 56 33 l 1
 58 33 l 1
 58 34 l 1
 57 34 l 1
 57 35 l 1
49 31 m 1
 47 31 l 1
 47 29 l 1
 49 29 l 1
 49 31 l 1
44 27 m 1
 42 27 l 1
 42 25 l 1
 43 25 l 1
 43 26 l 1
 44 26 l 1
 44 27 l 1
45 26 m 1
 44 26 l 1
 44 25 l 1
 46 25 l 1
 46 27 l 1
 45 27 l 1
 45 26 l 1
49 27 m 1
 47 27 l 1
 47 25 l 1
 49 25 l 1
 49 27 l 1
55 31 m 1
 53 31 l 1
 53 29 l 1
 55 29 l 1
 55 31 l 1
55 27 m 1
 53 27 l 1
 53 25 l 1
 55 25 l 1
 55 27 l 1
58 27 m 1
 56 27 l 1
 56 25 l 1
 57 25 l 1
 57 26 l 1
 58 26 l 1
 58 27 l 1
60 35 m 1
 58 35 l 1
 58 34 l 1
 59 34 l 1
 59 33 l 1
 60 33 l 1
 60 35 l 1
63 35 m 1
 61 35 l 1
 61 33 l 1
 63 33 l 1
 63 35 l 1
63 31 m 1
 61 31 l 1
 61 29 l 1
 63 29 l 1
 63 31 l 1
59 26 m 1
 58 26 l 1
 58 25 l 1
 60 25 l 1
 60 27 l 1
 59 27 l 1
 59 26 l 1
63 27 m 1
 61 27 l 1
 61 25 l 1
 63 25 l 1
 63 27 l 1
EndSplineSet
EndChar

StartChar: custom_5_6_0_0_2
Encoding: 36770 36770 16802
Width: 70
Flags: H
LayerCount: 2
Fore
SplineSet
23 43 m 1
 21 43 l 1
 21 41 l 1
 23 41 l 1
 23 43 l 1
26 43 m 1
 24 43 l 1
 24 41 l 1
 25 41 l 1
 25 42 l 1
 26 42 l 1
 26 43 l 1
27 42 m 1
 26 42 l 1
 26 41 l 1
 28 41 l 1
 28 43 l 1
 27 43 l 1
 27 42 l 1
31 43 m 1
 29 43 l 1
 29 41 l 1
 31 41 l 1
 31 43 l 1
41 43 m 1
 39 43 l 1
 39 41 l 1
 41 41 l 1
 41 43 l 1
23 35 m 1
 21 35 l 1
 21 33 l 1
 23 33 l 1
 23 35 l 1
25 35 m 1
 24 35 l 1
 24 33 l 1
 26 33 l 1
 26 34 l 1
 25 34 l 1
 25 35 l 1
23 31 m 1
 21 31 l 1
 21 29 l 1
 23 29 l 1
 23 31 l 1
23 27 m 1
 21 27 l 1
 21 25 l 1
 23 25 l 1
 23 27 l 1
26 27 m 1
 24 27 l 1
 24 25 l 1
 25 25 l 1
 25 26 l 1
 26 26 l 1
 26 27 l 1
31 39 m 1
 29 39 l 1
 29 37 l 1
 31 37 l 1
 31 39 l 1
28 35 m 1
 26 35 l 1
 26 34 l 1
 27 34 l 1
 27 33 l 1
 28 33 l 1
 28 35 l 1
31 35 m 1
 29 35 l 1
 29 33 l 1
 31 33 l 1
 31 35 l 1
36 37 m 1
 34 37 l 1
 34 35 l 1
 36 35 l 1
 36 37 l 1
41 39 m 1
 39 39 l 1
 39 37 l 1
 41 37 l 1
 41 39 l 1
36 33 m 1
 34 33 l 1
 34 31 l 1
 36 31 l 1
 36 33 l 1
41 35 m 1
 39 35 l 1
 39 33 l 1
 41 33 l 1
 41 35 l 1
27 26 m 1
 26 26 l 1
 26 25 l 1
 28 25 l 1
 28 27 l 1
 27 27 l 1
 27 26 l 1
31 27 m 1
 29 27 l 1
 29 25 l 1
 31 25 l 1
 31 27 l 1
41 27 m 1
 39 27 l 1
 39 25 l 1
 41 25 l 1
 41 27 l 1
44 43 m 1
 42 43 l 1
 42 41 l 1
 43 41 l 1
 43 42 l 1
 44 42 l 1
 44 43 l 1
45 42 m 1
 44 42 l 1
 44 41 l 1
 46 41 l 1
 46 43 l 1
 45 43 l 1
 45 42 l 1
49 43 m 1
 47 43 l 1
 47 41 l 1
 49 41 l 1
 49 43 l 1
55 43 m 1
 53 43 l 1
 53 41 l 1
 55 41 l 1
 55 43 l 1
58 43 m 1
 56 43 l 1
 56 41 l 1
 57 41 l 1
 57 42 l 1
 58 42 l 1
 58 43 l 1
59 42 m 1
 58 42 l 1
 58 41 l 1
 60 41 l 1
 60 43 l 1
 59 43 l 1
 59 42 l 1
63 43 m 1
 61 43 l 1
 61 41 l 1
 63 41 l 1
 63 43 l 1
43 35 m 1
 42 35 l 1
 42 33 l 1
 44 33 l 1
 44 34 l 1
 43 34 l 1
 43 35 l 1
46 35 m 1
 44 35 l 1
 44 34 l 1
 45 34 l 1
 45 33 l 1
 46 33 l 1
 46 35 l 1
49 35 m 1
 47 35 l 1
 47 33 l 1
 49 33 l 1
 49 35 l 1
55 39 m 1
 53 39 l 1
 53 37 l 1
 55 37 l 1
 55 39 l 1
55 35 m 1
 53 35 l 1
 53 33 l 1
 55 33 l 1
 55 35 l 1
57 35 m 1
 56 35 l 1
 56 33 l 1
 58 33 l 1
 58 34 l 1
 57 34 l 1
 57 35 l 1
49 31 m 1
 47 31 l 1
 47 29 l 1
 49 29 l 1
 49 31 l 1
44 27 m 1
 42 27 l 1
 42 25 l 1
 43 25 l 1
 43 26 l 1
 44 26 l 1
 44 27 l 1
45 26 m 1
 44 26 l 1
 44 25 l 1
 46 25 l 1
 46 27 l 1
 45 27 l 1
 45 26 l 1
49 27 m 1
 47 27 l 1
 47 25 l 1
 49 25 l 1
 49 27 l 1
55 31 m 1
 53 31 l 1
 53 29 l 1
 55 29 l 1
 55 31 l 1
55 27 m 1
 53 27 l 1
 53 25 l 1
 55 25 l 1
 55 27 l 1
58 27 m 1
 56 27 l 1
 56 25 l 1
 57 25 l 1
 57 26 l 1
 58 26 l 1
 58 27 l 1
60 35 m 1
 58 35 l 1
 58 34 l 1
 59 34 l 1
 59 33 l 1
 60 33 l 1
 60 35 l 1
63 35 m 1
 61 35 l 1
 61 33 l 1
 63 33 l 1
 63 35 l 1
63 31 m 1
 61 31 l 1
 61 29 l 1
 63 29 l 1
 63 31 l 1
59 26 m 1
 58 26 l 1
 58 25 l 1
 60 25 l 1
 60 27 l 1
 59 27 l 1
 59 26 l 1
63 27 m 1
 61 27 l 1
 61 25 l 1
 63 25 l 1
 63 27 l 1
EndSplineSet
EndChar

StartChar: custom_5_6_0_0_3
Encoding: 36771 36771 16803
Width: 70
Flags: H
LayerCount: 2
Fore
SplineSet
23 43 m 1
 21 43 l 1
 21 41 l 1
 23 41 l 1
 23 43 l 1
26 43 m 1
 24 43 l 1
 24 41 l 1
 25 41 l 1
 25 42 l 1
 26 42 l 1
 26 43 l 1
27 42 m 1
 26 42 l 1
 26 41 l 1
 28 41 l 1
 28 43 l 1
 27 43 l 1
 27 42 l 1
31 43 m 1
 29 43 l 1
 29 41 l 1
 31 41 l 1
 31 43 l 1
41 43 m 1
 39 43 l 1
 39 41 l 1
 41 41 l 1
 41 43 l 1
23 35 m 1
 21 35 l 1
 21 33 l 1
 23 33 l 1
 23 35 l 1
25 35 m 1
 24 35 l 1
 24 33 l 1
 26 33 l 1
 26 34 l 1
 25 34 l 1
 25 35 l 1
23 31 m 1
 21 31 l 1
 21 29 l 1
 23 29 l 1
 23 31 l 1
23 27 m 1
 21 27 l 1
 21 25 l 1
 23 25 l 1
 23 27 l 1
26 27 m 1
 24 27 l 1
 24 25 l 1
 25 25 l 1
 25 26 l 1
 26 26 l 1
 26 27 l 1
31 39 m 1
 29 39 l 1
 29 37 l 1
 31 37 l 1
 31 39 l 1
28 35 m 1
 26 35 l 1
 26 34 l 1
 27 34 l 1
 27 33 l 1
 28 33 l 1
 28 35 l 1
31 35 m 1
 29 35 l 1
 29 33 l 1
 31 33 l 1
 31 35 l 1
36 37 m 1
 34 37 l 1
 34 35 l 1
 36 35 l 1
 36 37 l 1
41 39 m 1
 39 39 l 1
 39 37 l 1
 41 37 l 1
 41 39 l 1
36 33 m 1
 34 33 l 1
 34 31 l 1
 36 31 l 1
 36 33 l 1
41 35 m 1
 39 35 l 1
 39 33 l 1
 41 33 l 1
 41 35 l 1
27 26 m 1
 26 26 l 1
 26 25 l 1
 28 25 l 1
 28 27 l 1
 27 27 l 1
 27 26 l 1
31 27 m 1
 29 27 l 1
 29 25 l 1
 31 25 l 1
 31 27 l 1
41 27 m 1
 39 27 l 1
 39 25 l 1
 41 25 l 1
 41 27 l 1
44 43 m 1
 42 43 l 1
 42 41 l 1
 43 41 l 1
 43 42 l 1
 44 42 l 1
 44 43 l 1
45 42 m 1
 44 42 l 1
 44 41 l 1
 46 41 l 1
 46 43 l 1
 45 43 l 1
 45 42 l 1
49 43 m 1
 47 43 l 1
 47 41 l 1
 49 41 l 1
 49 43 l 1
55 43 m 1
 53 43 l 1
 53 41 l 1
 55 41 l 1
 55 43 l 1
58 43 m 1
 56 43 l 1
 56 41 l 1
 57 41 l 1
 57 42 l 1
 58 42 l 1
 58 43 l 1
59 42 m 1
 58 42 l 1
 58 41 l 1
 60 41 l 1
 60 43 l 1
 59 43 l 1
 59 42 l 1
63 43 m 1
 61 43 l 1
 61 41 l 1
 63 41 l 1
 63 43 l 1
43 35 m 1
 42 35 l 1
 42 33 l 1
 44 33 l 1
 44 34 l 1
 43 34 l 1
 43 35 l 1
46 35 m 1
 44 35 l 1
 44 34 l 1
 45 34 l 1
 45 33 l 1
 46 33 l 1
 46 35 l 1
49 35 m 1
 47 35 l 1
 47 33 l 1
 49 33 l 1
 49 35 l 1
55 39 m 1
 53 39 l 1
 53 37 l 1
 55 37 l 1
 55 39 l 1
55 35 m 1
 53 35 l 1
 53 33 l 1
 55 33 l 1
 55 35 l 1
57 35 m 1
 56 35 l 1
 56 33 l 1
 58 33 l 1
 58 34 l 1
 57 34 l 1
 57 35 l 1
49 31 m 1
 47 31 l 1
 47 29 l 1
 49 29 l 1
 49 31 l 1
44 27 m 1
 42 27 l 1
 42 25 l 1
 43 25 l 1
 43 26 l 1
 44 26 l 1
 44 27 l 1
45 26 m 1
 44 26 l 1
 44 25 l 1
 46 25 l 1
 46 27 l 1
 45 27 l 1
 45 26 l 1
49 27 m 1
 47 27 l 1
 47 25 l 1
 49 25 l 1
 49 27 l 1
55 31 m 1
 53 31 l 1
 53 29 l 1
 55 29 l 1
 55 31 l 1
55 27 m 1
 53 27 l 1
 53 25 l 1
 55 25 l 1
 55 27 l 1
58 27 m 1
 56 27 l 1
 56 25 l 1
 57 25 l 1
 57 26 l 1
 58 26 l 1
 58 27 l 1
60 35 m 1
 58 35 l 1
 58 34 l 1
 59 34 l 1
 59 33 l 1
 60 33 l 1
 60 35 l 1
63 35 m 1
 61 35 l 1
 61 33 l 1
 63 33 l 1
 63 35 l 1
63 31 m 1
 61 31 l 1
 61 29 l 1
 63 29 l 1
 63 31 l 1
59 26 m 1
 58 26 l 1
 58 25 l 1
 60 25 l 1
 60 27 l 1
 59 27 l 1
 59 26 l 1
63 27 m 1
 61 27 l 1
 61 25 l 1
 63 25 l 1
 63 27 l 1
EndSplineSet
EndChar

StartChar: custom_5_6_0_0_4
Encoding: 36772 36772 16804
Width: 70
Flags: H
LayerCount: 2
Fore
SplineSet
23 43 m 1
 21 43 l 1
 21 41 l 1
 23 41 l 1
 23 43 l 1
26 43 m 1
 24 43 l 1
 24 41 l 1
 25 41 l 1
 25 42 l 1
 26 42 l 1
 26 43 l 1
27 42 m 1
 26 42 l 1
 26 41 l 1
 28 41 l 1
 28 43 l 1
 27 43 l 1
 27 42 l 1
31 43 m 1
 29 43 l 1
 29 41 l 1
 31 41 l 1
 31 43 l 1
41 43 m 1
 39 43 l 1
 39 41 l 1
 41 41 l 1
 41 43 l 1
23 35 m 1
 21 35 l 1
 21 33 l 1
 23 33 l 1
 23 35 l 1
25 35 m 1
 24 35 l 1
 24 33 l 1
 26 33 l 1
 26 34 l 1
 25 34 l 1
 25 35 l 1
23 31 m 1
 21 31 l 1
 21 29 l 1
 23 29 l 1
 23 31 l 1
23 27 m 1
 21 27 l 1
 21 25 l 1
 23 25 l 1
 23 27 l 1
26 27 m 1
 24 27 l 1
 24 25 l 1
 25 25 l 1
 25 26 l 1
 26 26 l 1
 26 27 l 1
31 39 m 1
 29 39 l 1
 29 37 l 1
 31 37 l 1
 31 39 l 1
28 35 m 1
 26 35 l 1
 26 34 l 1
 27 34 l 1
 27 33 l 1
 28 33 l 1
 28 35 l 1
31 35 m 1
 29 35 l 1
 29 33 l 1
 31 33 l 1
 31 35 l 1
36 37 m 1
 34 37 l 1
 34 35 l 1
 36 35 l 1
 36 37 l 1
41 39 m 1
 39 39 l 1
 39 37 l 1
 41 37 l 1
 41 39 l 1
36 33 m 1
 34 33 l 1
 34 31 l 1
 36 31 l 1
 36 33 l 1
41 35 m 1
 39 35 l 1
 39 33 l 1
 41 33 l 1
 41 35 l 1
27 26 m 1
 26 26 l 1
 26 25 l 1
 28 25 l 1
 28 27 l 1
 27 27 l 1
 27 26 l 1
31 27 m 1
 29 27 l 1
 29 25 l 1
 31 25 l 1
 31 27 l 1
41 27 m 1
 39 27 l 1
 39 25 l 1
 41 25 l 1
 41 27 l 1
44 43 m 1
 42 43 l 1
 42 41 l 1
 43 41 l 1
 43 42 l 1
 44 42 l 1
 44 43 l 1
45 42 m 1
 44 42 l 1
 44 41 l 1
 46 41 l 1
 46 43 l 1
 45 43 l 1
 45 42 l 1
49 43 m 1
 47 43 l 1
 47 41 l 1
 49 41 l 1
 49 43 l 1
55 43 m 1
 53 43 l 1
 53 41 l 1
 55 41 l 1
 55 43 l 1
58 43 m 1
 56 43 l 1
 56 41 l 1
 57 41 l 1
 57 42 l 1
 58 42 l 1
 58 43 l 1
59 42 m 1
 58 42 l 1
 58 41 l 1
 60 41 l 1
 60 43 l 1
 59 43 l 1
 59 42 l 1
63 43 m 1
 61 43 l 1
 61 41 l 1
 63 41 l 1
 63 43 l 1
43 35 m 1
 42 35 l 1
 42 33 l 1
 44 33 l 1
 44 34 l 1
 43 34 l 1
 43 35 l 1
46 35 m 1
 44 35 l 1
 44 34 l 1
 45 34 l 1
 45 33 l 1
 46 33 l 1
 46 35 l 1
49 35 m 1
 47 35 l 1
 47 33 l 1
 49 33 l 1
 49 35 l 1
55 39 m 1
 53 39 l 1
 53 37 l 1
 55 37 l 1
 55 39 l 1
55 35 m 1
 53 35 l 1
 53 33 l 1
 55 33 l 1
 55 35 l 1
57 35 m 1
 56 35 l 1
 56 33 l 1
 58 33 l 1
 58 34 l 1
 57 34 l 1
 57 35 l 1
49 31 m 1
 47 31 l 1
 47 29 l 1
 49 29 l 1
 49 31 l 1
44 27 m 1
 42 27 l 1
 42 25 l 1
 43 25 l 1
 43 26 l 1
 44 26 l 1
 44 27 l 1
45 26 m 1
 44 26 l 1
 44 25 l 1
 46 25 l 1
 46 27 l 1
 45 27 l 1
 45 26 l 1
49 27 m 1
 47 27 l 1
 47 25 l 1
 49 25 l 1
 49 27 l 1
55 31 m 1
 53 31 l 1
 53 29 l 1
 55 29 l 1
 55 31 l 1
55 27 m 1
 53 27 l 1
 53 25 l 1
 55 25 l 1
 55 27 l 1
58 27 m 1
 56 27 l 1
 56 25 l 1
 57 25 l 1
 57 26 l 1
 58 26 l 1
 58 27 l 1
60 35 m 1
 58 35 l 1
 58 34 l 1
 59 34 l 1
 59 33 l 1
 60 33 l 1
 60 35 l 1
63 35 m 1
 61 35 l 1
 61 33 l 1
 63 33 l 1
 63 35 l 1
63 31 m 1
 61 31 l 1
 61 29 l 1
 63 29 l 1
 63 31 l 1
59 26 m 1
 58 26 l 1
 58 25 l 1
 60 25 l 1
 60 27 l 1
 59 27 l 1
 59 26 l 1
63 27 m 1
 61 27 l 1
 61 25 l 1
 63 25 l 1
 63 27 l 1
EndSplineSet
EndChar

StartChar: custom_5_6_0_0_5
Encoding: 36773 36773 16805
Width: 70
Flags: H
LayerCount: 2
Fore
SplineSet
23 43 m 1
 21 43 l 1
 21 41 l 1
 23 41 l 1
 23 43 l 1
26 43 m 1
 24 43 l 1
 24 41 l 1
 25 41 l 1
 25 42 l 1
 26 42 l 1
 26 43 l 1
27 42 m 1
 26 42 l 1
 26 41 l 1
 28 41 l 1
 28 43 l 1
 27 43 l 1
 27 42 l 1
31 43 m 1
 29 43 l 1
 29 41 l 1
 31 41 l 1
 31 43 l 1
41 43 m 1
 39 43 l 1
 39 41 l 1
 41 41 l 1
 41 43 l 1
23 35 m 1
 21 35 l 1
 21 33 l 1
 23 33 l 1
 23 35 l 1
25 35 m 1
 24 35 l 1
 24 33 l 1
 26 33 l 1
 26 34 l 1
 25 34 l 1
 25 35 l 1
23 31 m 1
 21 31 l 1
 21 29 l 1
 23 29 l 1
 23 31 l 1
23 27 m 1
 21 27 l 1
 21 25 l 1
 23 25 l 1
 23 27 l 1
26 27 m 1
 24 27 l 1
 24 25 l 1
 25 25 l 1
 25 26 l 1
 26 26 l 1
 26 27 l 1
31 39 m 1
 29 39 l 1
 29 37 l 1
 31 37 l 1
 31 39 l 1
28 35 m 1
 26 35 l 1
 26 34 l 1
 27 34 l 1
 27 33 l 1
 28 33 l 1
 28 35 l 1
31 35 m 1
 29 35 l 1
 29 33 l 1
 31 33 l 1
 31 35 l 1
36 37 m 1
 34 37 l 1
 34 35 l 1
 36 35 l 1
 36 37 l 1
41 39 m 1
 39 39 l 1
 39 37 l 1
 41 37 l 1
 41 39 l 1
36 33 m 1
 34 33 l 1
 34 31 l 1
 36 31 l 1
 36 33 l 1
41 35 m 1
 39 35 l 1
 39 33 l 1
 41 33 l 1
 41 35 l 1
27 26 m 1
 26 26 l 1
 26 25 l 1
 28 25 l 1
 28 27 l 1
 27 27 l 1
 27 26 l 1
31 27 m 1
 29 27 l 1
 29 25 l 1
 31 25 l 1
 31 27 l 1
41 27 m 1
 39 27 l 1
 39 25 l 1
 41 25 l 1
 41 27 l 1
44 43 m 1
 42 43 l 1
 42 41 l 1
 43 41 l 1
 43 42 l 1
 44 42 l 1
 44 43 l 1
45 42 m 1
 44 42 l 1
 44 41 l 1
 46 41 l 1
 46 43 l 1
 45 43 l 1
 45 42 l 1
49 43 m 1
 47 43 l 1
 47 41 l 1
 49 41 l 1
 49 43 l 1
55 43 m 1
 53 43 l 1
 53 41 l 1
 55 41 l 1
 55 43 l 1
58 43 m 1
 56 43 l 1
 56 41 l 1
 57 41 l 1
 57 42 l 1
 58 42 l 1
 58 43 l 1
59 42 m 1
 58 42 l 1
 58 41 l 1
 60 41 l 1
 60 43 l 1
 59 43 l 1
 59 42 l 1
63 43 m 1
 61 43 l 1
 61 41 l 1
 63 41 l 1
 63 43 l 1
43 35 m 1
 42 35 l 1
 42 33 l 1
 44 33 l 1
 44 34 l 1
 43 34 l 1
 43 35 l 1
46 35 m 1
 44 35 l 1
 44 34 l 1
 45 34 l 1
 45 33 l 1
 46 33 l 1
 46 35 l 1
49 35 m 1
 47 35 l 1
 47 33 l 1
 49 33 l 1
 49 35 l 1
55 39 m 1
 53 39 l 1
 53 37 l 1
 55 37 l 1
 55 39 l 1
55 35 m 1
 53 35 l 1
 53 33 l 1
 55 33 l 1
 55 35 l 1
57 35 m 1
 56 35 l 1
 56 33 l 1
 58 33 l 1
 58 34 l 1
 57 34 l 1
 57 35 l 1
49 31 m 1
 47 31 l 1
 47 29 l 1
 49 29 l 1
 49 31 l 1
44 27 m 1
 42 27 l 1
 42 25 l 1
 43 25 l 1
 43 26 l 1
 44 26 l 1
 44 27 l 1
45 26 m 1
 44 26 l 1
 44 25 l 1
 46 25 l 1
 46 27 l 1
 45 27 l 1
 45 26 l 1
49 27 m 1
 47 27 l 1
 47 25 l 1
 49 25 l 1
 49 27 l 1
55 31 m 1
 53 31 l 1
 53 29 l 1
 55 29 l 1
 55 31 l 1
55 27 m 1
 53 27 l 1
 53 25 l 1
 55 25 l 1
 55 27 l 1
58 27 m 1
 56 27 l 1
 56 25 l 1
 57 25 l 1
 57 26 l 1
 58 26 l 1
 58 27 l 1
60 35 m 1
 58 35 l 1
 58 34 l 1
 59 34 l 1
 59 33 l 1
 60 33 l 1
 60 35 l 1
63 35 m 1
 61 35 l 1
 61 33 l 1
 63 33 l 1
 63 35 l 1
63 31 m 1
 61 31 l 1
 61 29 l 1
 63 29 l 1
 63 31 l 1
59 26 m 1
 58 26 l 1
 58 25 l 1
 60 25 l 1
 60 27 l 1
 59 27 l 1
 59 26 l 1
63 27 m 1
 61 27 l 1
 61 25 l 1
 63 25 l 1
 63 27 l 1
EndSplineSet
EndChar

StartChar: custom_5_6_0_0_6
Encoding: 36774 36774 16806
Width: 70
Flags: H
LayerCount: 2
Fore
SplineSet
23 43 m 1
 21 43 l 1
 21 41 l 1
 23 41 l 1
 23 43 l 1
26 43 m 1
 24 43 l 1
 24 41 l 1
 25 41 l 1
 25 42 l 1
 26 42 l 1
 26 43 l 1
27 42 m 1
 26 42 l 1
 26 41 l 1
 28 41 l 1
 28 43 l 1
 27 43 l 1
 27 42 l 1
31 43 m 1
 29 43 l 1
 29 41 l 1
 31 41 l 1
 31 43 l 1
41 43 m 1
 39 43 l 1
 39 41 l 1
 41 41 l 1
 41 43 l 1
23 35 m 1
 21 35 l 1
 21 33 l 1
 23 33 l 1
 23 35 l 1
25 35 m 1
 24 35 l 1
 24 33 l 1
 26 33 l 1
 26 34 l 1
 25 34 l 1
 25 35 l 1
23 31 m 1
 21 31 l 1
 21 29 l 1
 23 29 l 1
 23 31 l 1
23 27 m 1
 21 27 l 1
 21 25 l 1
 23 25 l 1
 23 27 l 1
26 27 m 1
 24 27 l 1
 24 25 l 1
 25 25 l 1
 25 26 l 1
 26 26 l 1
 26 27 l 1
31 39 m 1
 29 39 l 1
 29 37 l 1
 31 37 l 1
 31 39 l 1
28 35 m 1
 26 35 l 1
 26 34 l 1
 27 34 l 1
 27 33 l 1
 28 33 l 1
 28 35 l 1
31 35 m 1
 29 35 l 1
 29 33 l 1
 31 33 l 1
 31 35 l 1
36 37 m 1
 34 37 l 1
 34 35 l 1
 36 35 l 1
 36 37 l 1
41 39 m 1
 39 39 l 1
 39 37 l 1
 41 37 l 1
 41 39 l 1
36 33 m 1
 34 33 l 1
 34 31 l 1
 36 31 l 1
 36 33 l 1
41 35 m 1
 39 35 l 1
 39 33 l 1
 41 33 l 1
 41 35 l 1
27 26 m 1
 26 26 l 1
 26 25 l 1
 28 25 l 1
 28 27 l 1
 27 27 l 1
 27 26 l 1
31 27 m 1
 29 27 l 1
 29 25 l 1
 31 25 l 1
 31 27 l 1
41 27 m 1
 39 27 l 1
 39 25 l 1
 41 25 l 1
 41 27 l 1
44 43 m 1
 42 43 l 1
 42 41 l 1
 43 41 l 1
 43 42 l 1
 44 42 l 1
 44 43 l 1
45 42 m 1
 44 42 l 1
 44 41 l 1
 46 41 l 1
 46 43 l 1
 45 43 l 1
 45 42 l 1
49 43 m 1
 47 43 l 1
 47 41 l 1
 49 41 l 1
 49 43 l 1
55 43 m 1
 53 43 l 1
 53 41 l 1
 55 41 l 1
 55 43 l 1
58 43 m 1
 56 43 l 1
 56 41 l 1
 57 41 l 1
 57 42 l 1
 58 42 l 1
 58 43 l 1
59 42 m 1
 58 42 l 1
 58 41 l 1
 60 41 l 1
 60 43 l 1
 59 43 l 1
 59 42 l 1
63 43 m 1
 61 43 l 1
 61 41 l 1
 63 41 l 1
 63 43 l 1
43 35 m 1
 42 35 l 1
 42 33 l 1
 44 33 l 1
 44 34 l 1
 43 34 l 1
 43 35 l 1
46 35 m 1
 44 35 l 1
 44 34 l 1
 45 34 l 1
 45 33 l 1
 46 33 l 1
 46 35 l 1
49 35 m 1
 47 35 l 1
 47 33 l 1
 49 33 l 1
 49 35 l 1
55 39 m 1
 53 39 l 1
 53 37 l 1
 55 37 l 1
 55 39 l 1
55 35 m 1
 53 35 l 1
 53 33 l 1
 55 33 l 1
 55 35 l 1
57 35 m 1
 56 35 l 1
 56 33 l 1
 58 33 l 1
 58 34 l 1
 57 34 l 1
 57 35 l 1
49 31 m 1
 47 31 l 1
 47 29 l 1
 49 29 l 1
 49 31 l 1
44 27 m 1
 42 27 l 1
 42 25 l 1
 43 25 l 1
 43 26 l 1
 44 26 l 1
 44 27 l 1
45 26 m 1
 44 26 l 1
 44 25 l 1
 46 25 l 1
 46 27 l 1
 45 27 l 1
 45 26 l 1
49 27 m 1
 47 27 l 1
 47 25 l 1
 49 25 l 1
 49 27 l 1
55 31 m 1
 53 31 l 1
 53 29 l 1
 55 29 l 1
 55 31 l 1
55 27 m 1
 53 27 l 1
 53 25 l 1
 55 25 l 1
 55 27 l 1
58 27 m 1
 56 27 l 1
 56 25 l 1
 57 25 l 1
 57 26 l 1
 58 26 l 1
 58 27 l 1
60 35 m 1
 58 35 l 1
 58 34 l 1
 59 34 l 1
 59 33 l 1
 60 33 l 1
 60 35 l 1
63 35 m 1
 61 35 l 1
 61 33 l 1
 63 33 l 1
 63 35 l 1
63 31 m 1
 61 31 l 1
 61 29 l 1
 63 29 l 1
 63 31 l 1
59 26 m 1
 58 26 l 1
 58 25 l 1
 60 25 l 1
 60 27 l 1
 59 27 l 1
 59 26 l 1
63 27 m 1
 61 27 l 1
 61 25 l 1
 63 25 l 1
 63 27 l 1
EndSplineSet
EndChar

StartChar: custom_5_6_0_0_7
Encoding: 36775 36775 16807
Width: 70
Flags: H
LayerCount: 2
Fore
SplineSet
23 43 m 1
 21 43 l 1
 21 41 l 1
 23 41 l 1
 23 43 l 1
26 43 m 1
 24 43 l 1
 24 41 l 1
 25 41 l 1
 25 42 l 1
 26 42 l 1
 26 43 l 1
27 42 m 1
 26 42 l 1
 26 41 l 1
 28 41 l 1
 28 43 l 1
 27 43 l 1
 27 42 l 1
31 43 m 1
 29 43 l 1
 29 41 l 1
 31 41 l 1
 31 43 l 1
41 43 m 1
 39 43 l 1
 39 41 l 1
 41 41 l 1
 41 43 l 1
23 35 m 1
 21 35 l 1
 21 33 l 1
 23 33 l 1
 23 35 l 1
25 35 m 1
 24 35 l 1
 24 33 l 1
 26 33 l 1
 26 34 l 1
 25 34 l 1
 25 35 l 1
23 31 m 1
 21 31 l 1
 21 29 l 1
 23 29 l 1
 23 31 l 1
23 27 m 1
 21 27 l 1
 21 25 l 1
 23 25 l 1
 23 27 l 1
26 27 m 1
 24 27 l 1
 24 25 l 1
 25 25 l 1
 25 26 l 1
 26 26 l 1
 26 27 l 1
31 39 m 1
 29 39 l 1
 29 37 l 1
 31 37 l 1
 31 39 l 1
28 35 m 1
 26 35 l 1
 26 34 l 1
 27 34 l 1
 27 33 l 1
 28 33 l 1
 28 35 l 1
31 35 m 1
 29 35 l 1
 29 33 l 1
 31 33 l 1
 31 35 l 1
36 37 m 1
 34 37 l 1
 34 35 l 1
 36 35 l 1
 36 37 l 1
41 39 m 1
 39 39 l 1
 39 37 l 1
 41 37 l 1
 41 39 l 1
36 33 m 1
 34 33 l 1
 34 31 l 1
 36 31 l 1
 36 33 l 1
41 35 m 1
 39 35 l 1
 39 33 l 1
 41 33 l 1
 41 35 l 1
27 26 m 1
 26 26 l 1
 26 25 l 1
 28 25 l 1
 28 27 l 1
 27 27 l 1
 27 26 l 1
31 27 m 1
 29 27 l 1
 29 25 l 1
 31 25 l 1
 31 27 l 1
41 27 m 1
 39 27 l 1
 39 25 l 1
 41 25 l 1
 41 27 l 1
44 43 m 1
 42 43 l 1
 42 41 l 1
 43 41 l 1
 43 42 l 1
 44 42 l 1
 44 43 l 1
45 42 m 1
 44 42 l 1
 44 41 l 1
 46 41 l 1
 46 43 l 1
 45 43 l 1
 45 42 l 1
49 43 m 1
 47 43 l 1
 47 41 l 1
 49 41 l 1
 49 43 l 1
55 43 m 1
 53 43 l 1
 53 41 l 1
 55 41 l 1
 55 43 l 1
58 43 m 1
 56 43 l 1
 56 41 l 1
 57 41 l 1
 57 42 l 1
 58 42 l 1
 58 43 l 1
59 42 m 1
 58 42 l 1
 58 41 l 1
 60 41 l 1
 60 43 l 1
 59 43 l 1
 59 42 l 1
63 43 m 1
 61 43 l 1
 61 41 l 1
 63 41 l 1
 63 43 l 1
43 35 m 1
 42 35 l 1
 42 33 l 1
 44 33 l 1
 44 34 l 1
 43 34 l 1
 43 35 l 1
46 35 m 1
 44 35 l 1
 44 34 l 1
 45 34 l 1
 45 33 l 1
 46 33 l 1
 46 35 l 1
49 35 m 1
 47 35 l 1
 47 33 l 1
 49 33 l 1
 49 35 l 1
55 39 m 1
 53 39 l 1
 53 37 l 1
 55 37 l 1
 55 39 l 1
55 35 m 1
 53 35 l 1
 53 33 l 1
 55 33 l 1
 55 35 l 1
57 35 m 1
 56 35 l 1
 56 33 l 1
 58 33 l 1
 58 34 l 1
 57 34 l 1
 57 35 l 1
49 31 m 1
 47 31 l 1
 47 29 l 1
 49 29 l 1
 49 31 l 1
44 27 m 1
 42 27 l 1
 42 25 l 1
 43 25 l 1
 43 26 l 1
 44 26 l 1
 44 27 l 1
45 26 m 1
 44 26 l 1
 44 25 l 1
 46 25 l 1
 46 27 l 1
 45 27 l 1
 45 26 l 1
49 27 m 1
 47 27 l 1
 47 25 l 1
 49 25 l 1
 49 27 l 1
55 31 m 1
 53 31 l 1
 53 29 l 1
 55 29 l 1
 55 31 l 1
55 27 m 1
 53 27 l 1
 53 25 l 1
 55 25 l 1
 55 27 l 1
58 27 m 1
 56 27 l 1
 56 25 l 1
 57 25 l 1
 57 26 l 1
 58 26 l 1
 58 27 l 1
60 35 m 1
 58 35 l 1
 58 34 l 1
 59 34 l 1
 59 33 l 1
 60 33 l 1
 60 35 l 1
63 35 m 1
 61 35 l 1
 61 33 l 1
 63 33 l 1
 63 35 l 1
63 31 m 1
 61 31 l 1
 61 29 l 1
 63 29 l 1
 63 31 l 1
59 26 m 1
 58 26 l 1
 58 25 l 1
 60 25 l 1
 60 27 l 1
 59 27 l 1
 59 26 l 1
63 27 m 1
 61 27 l 1
 61 25 l 1
 63 25 l 1
 63 27 l 1
EndSplineSet
EndChar

StartChar: custom_5_6_0_0_8
Encoding: 36776 36776 16808
Width: 70
Flags: H
LayerCount: 2
Fore
SplineSet
23 43 m 1
 21 43 l 1
 21 41 l 1
 23 41 l 1
 23 43 l 1
26 43 m 1
 24 43 l 1
 24 41 l 1
 25 41 l 1
 25 42 l 1
 26 42 l 1
 26 43 l 1
27 42 m 1
 26 42 l 1
 26 41 l 1
 28 41 l 1
 28 43 l 1
 27 43 l 1
 27 42 l 1
31 43 m 1
 29 43 l 1
 29 41 l 1
 31 41 l 1
 31 43 l 1
41 43 m 1
 39 43 l 1
 39 41 l 1
 41 41 l 1
 41 43 l 1
23 35 m 1
 21 35 l 1
 21 33 l 1
 23 33 l 1
 23 35 l 1
25 35 m 1
 24 35 l 1
 24 33 l 1
 26 33 l 1
 26 34 l 1
 25 34 l 1
 25 35 l 1
23 31 m 1
 21 31 l 1
 21 29 l 1
 23 29 l 1
 23 31 l 1
23 27 m 1
 21 27 l 1
 21 25 l 1
 23 25 l 1
 23 27 l 1
26 27 m 1
 24 27 l 1
 24 25 l 1
 25 25 l 1
 25 26 l 1
 26 26 l 1
 26 27 l 1
31 39 m 1
 29 39 l 1
 29 37 l 1
 31 37 l 1
 31 39 l 1
28 35 m 1
 26 35 l 1
 26 34 l 1
 27 34 l 1
 27 33 l 1
 28 33 l 1
 28 35 l 1
31 35 m 1
 29 35 l 1
 29 33 l 1
 31 33 l 1
 31 35 l 1
36 37 m 1
 34 37 l 1
 34 35 l 1
 36 35 l 1
 36 37 l 1
41 39 m 1
 39 39 l 1
 39 37 l 1
 41 37 l 1
 41 39 l 1
36 33 m 1
 34 33 l 1
 34 31 l 1
 36 31 l 1
 36 33 l 1
41 35 m 1
 39 35 l 1
 39 33 l 1
 41 33 l 1
 41 35 l 1
27 26 m 1
 26 26 l 1
 26 25 l 1
 28 25 l 1
 28 27 l 1
 27 27 l 1
 27 26 l 1
31 27 m 1
 29 27 l 1
 29 25 l 1
 31 25 l 1
 31 27 l 1
41 27 m 1
 39 27 l 1
 39 25 l 1
 41 25 l 1
 41 27 l 1
44 43 m 1
 42 43 l 1
 42 41 l 1
 43 41 l 1
 43 42 l 1
 44 42 l 1
 44 43 l 1
45 42 m 1
 44 42 l 1
 44 41 l 1
 46 41 l 1
 46 43 l 1
 45 43 l 1
 45 42 l 1
49 43 m 1
 47 43 l 1
 47 41 l 1
 49 41 l 1
 49 43 l 1
55 43 m 1
 53 43 l 1
 53 41 l 1
 55 41 l 1
 55 43 l 1
58 43 m 1
 56 43 l 1
 56 41 l 1
 57 41 l 1
 57 42 l 1
 58 42 l 1
 58 43 l 1
59 42 m 1
 58 42 l 1
 58 41 l 1
 60 41 l 1
 60 43 l 1
 59 43 l 1
 59 42 l 1
63 43 m 1
 61 43 l 1
 61 41 l 1
 63 41 l 1
 63 43 l 1
43 35 m 1
 42 35 l 1
 42 33 l 1
 44 33 l 1
 44 34 l 1
 43 34 l 1
 43 35 l 1
46 35 m 1
 44 35 l 1
 44 34 l 1
 45 34 l 1
 45 33 l 1
 46 33 l 1
 46 35 l 1
49 35 m 1
 47 35 l 1
 47 33 l 1
 49 33 l 1
 49 35 l 1
55 39 m 1
 53 39 l 1
 53 37 l 1
 55 37 l 1
 55 39 l 1
55 35 m 1
 53 35 l 1
 53 33 l 1
 55 33 l 1
 55 35 l 1
57 35 m 1
 56 35 l 1
 56 33 l 1
 58 33 l 1
 58 34 l 1
 57 34 l 1
 57 35 l 1
49 31 m 1
 47 31 l 1
 47 29 l 1
 49 29 l 1
 49 31 l 1
44 27 m 1
 42 27 l 1
 42 25 l 1
 43 25 l 1
 43 26 l 1
 44 26 l 1
 44 27 l 1
45 26 m 1
 44 26 l 1
 44 25 l 1
 46 25 l 1
 46 27 l 1
 45 27 l 1
 45 26 l 1
49 27 m 1
 47 27 l 1
 47 25 l 1
 49 25 l 1
 49 27 l 1
55 31 m 1
 53 31 l 1
 53 29 l 1
 55 29 l 1
 55 31 l 1
55 27 m 1
 53 27 l 1
 53 25 l 1
 55 25 l 1
 55 27 l 1
58 27 m 1
 56 27 l 1
 56 25 l 1
 57 25 l 1
 57 26 l 1
 58 26 l 1
 58 27 l 1
60 35 m 1
 58 35 l 1
 58 34 l 1
 59 34 l 1
 59 33 l 1
 60 33 l 1
 60 35 l 1
63 35 m 1
 61 35 l 1
 61 33 l 1
 63 33 l 1
 63 35 l 1
63 31 m 1
 61 31 l 1
 61 29 l 1
 63 29 l 1
 63 31 l 1
59 26 m 1
 58 26 l 1
 58 25 l 1
 60 25 l 1
 60 27 l 1
 59 27 l 1
 59 26 l 1
63 27 m 1
 61 27 l 1
 61 25 l 1
 63 25 l 1
 63 27 l 1
EndSplineSet
EndChar

StartChar: custom_5_6_0_0_9
Encoding: 36777 36777 16809
Width: 70
Flags: H
LayerCount: 2
Fore
SplineSet
23 43 m 1
 21 43 l 1
 21 41 l 1
 23 41 l 1
 23 43 l 1
26 43 m 1
 24 43 l 1
 24 41 l 1
 25 41 l 1
 25 42 l 1
 26 42 l 1
 26 43 l 1
27 42 m 1
 26 42 l 1
 26 41 l 1
 28 41 l 1
 28 43 l 1
 27 43 l 1
 27 42 l 1
31 43 m 1
 29 43 l 1
 29 41 l 1
 31 41 l 1
 31 43 l 1
41 43 m 1
 39 43 l 1
 39 41 l 1
 41 41 l 1
 41 43 l 1
23 35 m 1
 21 35 l 1
 21 33 l 1
 23 33 l 1
 23 35 l 1
25 35 m 1
 24 35 l 1
 24 33 l 1
 26 33 l 1
 26 34 l 1
 25 34 l 1
 25 35 l 1
23 31 m 1
 21 31 l 1
 21 29 l 1
 23 29 l 1
 23 31 l 1
23 27 m 1
 21 27 l 1
 21 25 l 1
 23 25 l 1
 23 27 l 1
26 27 m 1
 24 27 l 1
 24 25 l 1
 25 25 l 1
 25 26 l 1
 26 26 l 1
 26 27 l 1
31 39 m 1
 29 39 l 1
 29 37 l 1
 31 37 l 1
 31 39 l 1
28 35 m 1
 26 35 l 1
 26 34 l 1
 27 34 l 1
 27 33 l 1
 28 33 l 1
 28 35 l 1
31 35 m 1
 29 35 l 1
 29 33 l 1
 31 33 l 1
 31 35 l 1
36 37 m 1
 34 37 l 1
 34 35 l 1
 36 35 l 1
 36 37 l 1
41 39 m 1
 39 39 l 1
 39 37 l 1
 41 37 l 1
 41 39 l 1
36 33 m 1
 34 33 l 1
 34 31 l 1
 36 31 l 1
 36 33 l 1
41 35 m 1
 39 35 l 1
 39 33 l 1
 41 33 l 1
 41 35 l 1
27 26 m 1
 26 26 l 1
 26 25 l 1
 28 25 l 1
 28 27 l 1
 27 27 l 1
 27 26 l 1
31 27 m 1
 29 27 l 1
 29 25 l 1
 31 25 l 1
 31 27 l 1
41 27 m 1
 39 27 l 1
 39 25 l 1
 41 25 l 1
 41 27 l 1
44 43 m 1
 42 43 l 1
 42 41 l 1
 43 41 l 1
 43 42 l 1
 44 42 l 1
 44 43 l 1
45 42 m 1
 44 42 l 1
 44 41 l 1
 46 41 l 1
 46 43 l 1
 45 43 l 1
 45 42 l 1
49 43 m 1
 47 43 l 1
 47 41 l 1
 49 41 l 1
 49 43 l 1
55 43 m 1
 53 43 l 1
 53 41 l 1
 55 41 l 1
 55 43 l 1
58 43 m 1
 56 43 l 1
 56 41 l 1
 57 41 l 1
 57 42 l 1
 58 42 l 1
 58 43 l 1
59 42 m 1
 58 42 l 1
 58 41 l 1
 60 41 l 1
 60 43 l 1
 59 43 l 1
 59 42 l 1
63 43 m 1
 61 43 l 1
 61 41 l 1
 63 41 l 1
 63 43 l 1
43 35 m 1
 42 35 l 1
 42 33 l 1
 44 33 l 1
 44 34 l 1
 43 34 l 1
 43 35 l 1
46 35 m 1
 44 35 l 1
 44 34 l 1
 45 34 l 1
 45 33 l 1
 46 33 l 1
 46 35 l 1
49 35 m 1
 47 35 l 1
 47 33 l 1
 49 33 l 1
 49 35 l 1
55 39 m 1
 53 39 l 1
 53 37 l 1
 55 37 l 1
 55 39 l 1
55 35 m 1
 53 35 l 1
 53 33 l 1
 55 33 l 1
 55 35 l 1
57 35 m 1
 56 35 l 1
 56 33 l 1
 58 33 l 1
 58 34 l 1
 57 34 l 1
 57 35 l 1
49 31 m 1
 47 31 l 1
 47 29 l 1
 49 29 l 1
 49 31 l 1
44 27 m 1
 42 27 l 1
 42 25 l 1
 43 25 l 1
 43 26 l 1
 44 26 l 1
 44 27 l 1
45 26 m 1
 44 26 l 1
 44 25 l 1
 46 25 l 1
 46 27 l 1
 45 27 l 1
 45 26 l 1
49 27 m 1
 47 27 l 1
 47 25 l 1
 49 25 l 1
 49 27 l 1
55 31 m 1
 53 31 l 1
 53 29 l 1
 55 29 l 1
 55 31 l 1
55 27 m 1
 53 27 l 1
 53 25 l 1
 55 25 l 1
 55 27 l 1
58 27 m 1
 56 27 l 1
 56 25 l 1
 57 25 l 1
 57 26 l 1
 58 26 l 1
 58 27 l 1
60 35 m 1
 58 35 l 1
 58 34 l 1
 59 34 l 1
 59 33 l 1
 60 33 l 1
 60 35 l 1
63 35 m 1
 61 35 l 1
 61 33 l 1
 63 33 l 1
 63 35 l 1
63 31 m 1
 61 31 l 1
 61 29 l 1
 63 29 l 1
 63 31 l 1
59 26 m 1
 58 26 l 1
 58 25 l 1
 60 25 l 1
 60 27 l 1
 59 27 l 1
 59 26 l 1
63 27 m 1
 61 27 l 1
 61 25 l 1
 63 25 l 1
 63 27 l 1
EndSplineSet
EndChar

StartChar: custom_5_6_0_1_0
Encoding: 36778 36778 16810
Width: 70
Flags: H
LayerCount: 2
Fore
SplineSet
23 43 m 1
 21 43 l 1
 21 41 l 1
 23 41 l 1
 23 43 l 1
26 43 m 1
 24 43 l 1
 24 41 l 1
 25 41 l 1
 25 42 l 1
 26 42 l 1
 26 43 l 1
27 42 m 1
 26 42 l 1
 26 41 l 1
 28 41 l 1
 28 43 l 1
 27 43 l 1
 27 42 l 1
31 43 m 1
 29 43 l 1
 29 41 l 1
 31 41 l 1
 31 43 l 1
41 43 m 1
 39 43 l 1
 39 41 l 1
 41 41 l 1
 41 43 l 1
23 35 m 1
 21 35 l 1
 21 33 l 1
 23 33 l 1
 23 35 l 1
25 35 m 1
 24 35 l 1
 24 33 l 1
 26 33 l 1
 26 34 l 1
 25 34 l 1
 25 35 l 1
23 31 m 1
 21 31 l 1
 21 29 l 1
 23 29 l 1
 23 31 l 1
23 27 m 1
 21 27 l 1
 21 25 l 1
 23 25 l 1
 23 27 l 1
26 27 m 1
 24 27 l 1
 24 25 l 1
 25 25 l 1
 25 26 l 1
 26 26 l 1
 26 27 l 1
31 39 m 1
 29 39 l 1
 29 37 l 1
 31 37 l 1
 31 39 l 1
28 35 m 1
 26 35 l 1
 26 34 l 1
 27 34 l 1
 27 33 l 1
 28 33 l 1
 28 35 l 1
31 35 m 1
 29 35 l 1
 29 33 l 1
 31 33 l 1
 31 35 l 1
36 37 m 1
 34 37 l 1
 34 35 l 1
 36 35 l 1
 36 37 l 1
41 39 m 1
 39 39 l 1
 39 37 l 1
 41 37 l 1
 41 39 l 1
36 33 m 1
 34 33 l 1
 34 31 l 1
 36 31 l 1
 36 33 l 1
41 35 m 1
 39 35 l 1
 39 33 l 1
 41 33 l 1
 41 35 l 1
27 26 m 1
 26 26 l 1
 26 25 l 1
 28 25 l 1
 28 27 l 1
 27 27 l 1
 27 26 l 1
31 27 m 1
 29 27 l 1
 29 25 l 1
 31 25 l 1
 31 27 l 1
41 27 m 1
 39 27 l 1
 39 25 l 1
 41 25 l 1
 41 27 l 1
44 43 m 1
 42 43 l 1
 42 41 l 1
 43 41 l 1
 43 42 l 1
 44 42 l 1
 44 43 l 1
45 42 m 1
 44 42 l 1
 44 41 l 1
 46 41 l 1
 46 43 l 1
 45 43 l 1
 45 42 l 1
49 43 m 1
 47 43 l 1
 47 41 l 1
 49 41 l 1
 49 43 l 1
55 43 m 1
 53 43 l 1
 53 41 l 1
 55 41 l 1
 55 43 l 1
58 43 m 1
 56 43 l 1
 56 41 l 1
 57 41 l 1
 57 42 l 1
 58 42 l 1
 58 43 l 1
59 42 m 1
 58 42 l 1
 58 41 l 1
 60 41 l 1
 60 43 l 1
 59 43 l 1
 59 42 l 1
63 43 m 1
 61 43 l 1
 61 41 l 1
 63 41 l 1
 63 43 l 1
43 35 m 1
 42 35 l 1
 42 33 l 1
 44 33 l 1
 44 34 l 1
 43 34 l 1
 43 35 l 1
46 35 m 1
 44 35 l 1
 44 34 l 1
 45 34 l 1
 45 33 l 1
 46 33 l 1
 46 35 l 1
49 35 m 1
 47 35 l 1
 47 33 l 1
 49 33 l 1
 49 35 l 1
55 39 m 1
 53 39 l 1
 53 37 l 1
 55 37 l 1
 55 39 l 1
55 35 m 1
 53 35 l 1
 53 33 l 1
 55 33 l 1
 55 35 l 1
57 35 m 1
 56 35 l 1
 56 33 l 1
 58 33 l 1
 58 34 l 1
 57 34 l 1
 57 35 l 1
49 31 m 1
 47 31 l 1
 47 29 l 1
 49 29 l 1
 49 31 l 1
44 27 m 1
 42 27 l 1
 42 25 l 1
 43 25 l 1
 43 26 l 1
 44 26 l 1
 44 27 l 1
45 26 m 1
 44 26 l 1
 44 25 l 1
 46 25 l 1
 46 27 l 1
 45 27 l 1
 45 26 l 1
49 27 m 1
 47 27 l 1
 47 25 l 1
 49 25 l 1
 49 27 l 1
55 31 m 1
 53 31 l 1
 53 29 l 1
 55 29 l 1
 55 31 l 1
55 27 m 1
 53 27 l 1
 53 25 l 1
 55 25 l 1
 55 27 l 1
58 27 m 1
 56 27 l 1
 56 25 l 1
 57 25 l 1
 57 26 l 1
 58 26 l 1
 58 27 l 1
60 35 m 1
 58 35 l 1
 58 34 l 1
 59 34 l 1
 59 33 l 1
 60 33 l 1
 60 35 l 1
63 35 m 1
 61 35 l 1
 61 33 l 1
 63 33 l 1
 63 35 l 1
63 31 m 1
 61 31 l 1
 61 29 l 1
 63 29 l 1
 63 31 l 1
59 26 m 1
 58 26 l 1
 58 25 l 1
 60 25 l 1
 60 27 l 1
 59 27 l 1
 59 26 l 1
63 27 m 1
 61 27 l 1
 61 25 l 1
 63 25 l 1
 63 27 l 1
EndSplineSet
EndChar

StartChar: custom_5_6_0_1_1
Encoding: 36779 36779 16811
Width: 70
Flags: H
LayerCount: 2
Fore
SplineSet
23 43 m 1
 21 43 l 1
 21 41 l 1
 23 41 l 1
 23 43 l 1
26 43 m 1
 24 43 l 1
 24 41 l 1
 25 41 l 1
 25 42 l 1
 26 42 l 1
 26 43 l 1
27 42 m 1
 26 42 l 1
 26 41 l 1
 28 41 l 1
 28 43 l 1
 27 43 l 1
 27 42 l 1
31 43 m 1
 29 43 l 1
 29 41 l 1
 31 41 l 1
 31 43 l 1
41 43 m 1
 39 43 l 1
 39 41 l 1
 41 41 l 1
 41 43 l 1
23 35 m 1
 21 35 l 1
 21 33 l 1
 23 33 l 1
 23 35 l 1
25 35 m 1
 24 35 l 1
 24 33 l 1
 26 33 l 1
 26 34 l 1
 25 34 l 1
 25 35 l 1
23 31 m 1
 21 31 l 1
 21 29 l 1
 23 29 l 1
 23 31 l 1
23 27 m 1
 21 27 l 1
 21 25 l 1
 23 25 l 1
 23 27 l 1
26 27 m 1
 24 27 l 1
 24 25 l 1
 25 25 l 1
 25 26 l 1
 26 26 l 1
 26 27 l 1
31 39 m 1
 29 39 l 1
 29 37 l 1
 31 37 l 1
 31 39 l 1
28 35 m 1
 26 35 l 1
 26 34 l 1
 27 34 l 1
 27 33 l 1
 28 33 l 1
 28 35 l 1
31 35 m 1
 29 35 l 1
 29 33 l 1
 31 33 l 1
 31 35 l 1
36 37 m 1
 34 37 l 1
 34 35 l 1
 36 35 l 1
 36 37 l 1
41 39 m 1
 39 39 l 1
 39 37 l 1
 41 37 l 1
 41 39 l 1
36 33 m 1
 34 33 l 1
 34 31 l 1
 36 31 l 1
 36 33 l 1
41 35 m 1
 39 35 l 1
 39 33 l 1
 41 33 l 1
 41 35 l 1
27 26 m 1
 26 26 l 1
 26 25 l 1
 28 25 l 1
 28 27 l 1
 27 27 l 1
 27 26 l 1
31 27 m 1
 29 27 l 1
 29 25 l 1
 31 25 l 1
 31 27 l 1
41 27 m 1
 39 27 l 1
 39 25 l 1
 41 25 l 1
 41 27 l 1
44 43 m 1
 42 43 l 1
 42 41 l 1
 43 41 l 1
 43 42 l 1
 44 42 l 1
 44 43 l 1
45 42 m 1
 44 42 l 1
 44 41 l 1
 46 41 l 1
 46 43 l 1
 45 43 l 1
 45 42 l 1
49 43 m 1
 47 43 l 1
 47 41 l 1
 49 41 l 1
 49 43 l 1
55 43 m 1
 53 43 l 1
 53 41 l 1
 55 41 l 1
 55 43 l 1
58 43 m 1
 56 43 l 1
 56 41 l 1
 57 41 l 1
 57 42 l 1
 58 42 l 1
 58 43 l 1
59 42 m 1
 58 42 l 1
 58 41 l 1
 60 41 l 1
 60 43 l 1
 59 43 l 1
 59 42 l 1
63 43 m 1
 61 43 l 1
 61 41 l 1
 63 41 l 1
 63 43 l 1
43 35 m 1
 42 35 l 1
 42 33 l 1
 44 33 l 1
 44 34 l 1
 43 34 l 1
 43 35 l 1
46 35 m 1
 44 35 l 1
 44 34 l 1
 45 34 l 1
 45 33 l 1
 46 33 l 1
 46 35 l 1
49 35 m 1
 47 35 l 1
 47 33 l 1
 49 33 l 1
 49 35 l 1
55 39 m 1
 53 39 l 1
 53 37 l 1
 55 37 l 1
 55 39 l 1
55 35 m 1
 53 35 l 1
 53 33 l 1
 55 33 l 1
 55 35 l 1
57 35 m 1
 56 35 l 1
 56 33 l 1
 58 33 l 1
 58 34 l 1
 57 34 l 1
 57 35 l 1
49 31 m 1
 47 31 l 1
 47 29 l 1
 49 29 l 1
 49 31 l 1
44 27 m 1
 42 27 l 1
 42 25 l 1
 43 25 l 1
 43 26 l 1
 44 26 l 1
 44 27 l 1
45 26 m 1
 44 26 l 1
 44 25 l 1
 46 25 l 1
 46 27 l 1
 45 27 l 1
 45 26 l 1
49 27 m 1
 47 27 l 1
 47 25 l 1
 49 25 l 1
 49 27 l 1
55 31 m 1
 53 31 l 1
 53 29 l 1
 55 29 l 1
 55 31 l 1
55 27 m 1
 53 27 l 1
 53 25 l 1
 55 25 l 1
 55 27 l 1
58 27 m 1
 56 27 l 1
 56 25 l 1
 57 25 l 1
 57 26 l 1
 58 26 l 1
 58 27 l 1
60 35 m 1
 58 35 l 1
 58 34 l 1
 59 34 l 1
 59 33 l 1
 60 33 l 1
 60 35 l 1
63 35 m 1
 61 35 l 1
 61 33 l 1
 63 33 l 1
 63 35 l 1
63 31 m 1
 61 31 l 1
 61 29 l 1
 63 29 l 1
 63 31 l 1
59 26 m 1
 58 26 l 1
 58 25 l 1
 60 25 l 1
 60 27 l 1
 59 27 l 1
 59 26 l 1
63 27 m 1
 61 27 l 1
 61 25 l 1
 63 25 l 1
 63 27 l 1
EndSplineSet
EndChar

StartChar: custom_5_6_0_1_2
Encoding: 36780 36780 16812
Width: 70
Flags: H
LayerCount: 2
Fore
SplineSet
23 43 m 1
 21 43 l 1
 21 41 l 1
 23 41 l 1
 23 43 l 1
26 43 m 1
 24 43 l 1
 24 41 l 1
 25 41 l 1
 25 42 l 1
 26 42 l 1
 26 43 l 1
27 42 m 1
 26 42 l 1
 26 41 l 1
 28 41 l 1
 28 43 l 1
 27 43 l 1
 27 42 l 1
31 43 m 1
 29 43 l 1
 29 41 l 1
 31 41 l 1
 31 43 l 1
41 43 m 1
 39 43 l 1
 39 41 l 1
 41 41 l 1
 41 43 l 1
23 35 m 1
 21 35 l 1
 21 33 l 1
 23 33 l 1
 23 35 l 1
25 35 m 1
 24 35 l 1
 24 33 l 1
 26 33 l 1
 26 34 l 1
 25 34 l 1
 25 35 l 1
23 31 m 1
 21 31 l 1
 21 29 l 1
 23 29 l 1
 23 31 l 1
23 27 m 1
 21 27 l 1
 21 25 l 1
 23 25 l 1
 23 27 l 1
26 27 m 1
 24 27 l 1
 24 25 l 1
 25 25 l 1
 25 26 l 1
 26 26 l 1
 26 27 l 1
31 39 m 1
 29 39 l 1
 29 37 l 1
 31 37 l 1
 31 39 l 1
28 35 m 1
 26 35 l 1
 26 34 l 1
 27 34 l 1
 27 33 l 1
 28 33 l 1
 28 35 l 1
31 35 m 1
 29 35 l 1
 29 33 l 1
 31 33 l 1
 31 35 l 1
36 37 m 1
 34 37 l 1
 34 35 l 1
 36 35 l 1
 36 37 l 1
41 39 m 1
 39 39 l 1
 39 37 l 1
 41 37 l 1
 41 39 l 1
36 33 m 1
 34 33 l 1
 34 31 l 1
 36 31 l 1
 36 33 l 1
41 35 m 1
 39 35 l 1
 39 33 l 1
 41 33 l 1
 41 35 l 1
27 26 m 1
 26 26 l 1
 26 25 l 1
 28 25 l 1
 28 27 l 1
 27 27 l 1
 27 26 l 1
31 27 m 1
 29 27 l 1
 29 25 l 1
 31 25 l 1
 31 27 l 1
41 27 m 1
 39 27 l 1
 39 25 l 1
 41 25 l 1
 41 27 l 1
44 43 m 1
 42 43 l 1
 42 41 l 1
 43 41 l 1
 43 42 l 1
 44 42 l 1
 44 43 l 1
45 42 m 1
 44 42 l 1
 44 41 l 1
 46 41 l 1
 46 43 l 1
 45 43 l 1
 45 42 l 1
49 43 m 1
 47 43 l 1
 47 41 l 1
 49 41 l 1
 49 43 l 1
55 43 m 1
 53 43 l 1
 53 41 l 1
 55 41 l 1
 55 43 l 1
58 43 m 1
 56 43 l 1
 56 41 l 1
 57 41 l 1
 57 42 l 1
 58 42 l 1
 58 43 l 1
59 42 m 1
 58 42 l 1
 58 41 l 1
 60 41 l 1
 60 43 l 1
 59 43 l 1
 59 42 l 1
63 43 m 1
 61 43 l 1
 61 41 l 1
 63 41 l 1
 63 43 l 1
43 35 m 1
 42 35 l 1
 42 33 l 1
 44 33 l 1
 44 34 l 1
 43 34 l 1
 43 35 l 1
46 35 m 1
 44 35 l 1
 44 34 l 1
 45 34 l 1
 45 33 l 1
 46 33 l 1
 46 35 l 1
49 35 m 1
 47 35 l 1
 47 33 l 1
 49 33 l 1
 49 35 l 1
55 39 m 1
 53 39 l 1
 53 37 l 1
 55 37 l 1
 55 39 l 1
55 35 m 1
 53 35 l 1
 53 33 l 1
 55 33 l 1
 55 35 l 1
57 35 m 1
 56 35 l 1
 56 33 l 1
 58 33 l 1
 58 34 l 1
 57 34 l 1
 57 35 l 1
49 31 m 1
 47 31 l 1
 47 29 l 1
 49 29 l 1
 49 31 l 1
44 27 m 1
 42 27 l 1
 42 25 l 1
 43 25 l 1
 43 26 l 1
 44 26 l 1
 44 27 l 1
45 26 m 1
 44 26 l 1
 44 25 l 1
 46 25 l 1
 46 27 l 1
 45 27 l 1
 45 26 l 1
49 27 m 1
 47 27 l 1
 47 25 l 1
 49 25 l 1
 49 27 l 1
55 31 m 1
 53 31 l 1
 53 29 l 1
 55 29 l 1
 55 31 l 1
55 27 m 1
 53 27 l 1
 53 25 l 1
 55 25 l 1
 55 27 l 1
58 27 m 1
 56 27 l 1
 56 25 l 1
 57 25 l 1
 57 26 l 1
 58 26 l 1
 58 27 l 1
60 35 m 1
 58 35 l 1
 58 34 l 1
 59 34 l 1
 59 33 l 1
 60 33 l 1
 60 35 l 1
63 35 m 1
 61 35 l 1
 61 33 l 1
 63 33 l 1
 63 35 l 1
63 31 m 1
 61 31 l 1
 61 29 l 1
 63 29 l 1
 63 31 l 1
59 26 m 1
 58 26 l 1
 58 25 l 1
 60 25 l 1
 60 27 l 1
 59 27 l 1
 59 26 l 1
63 27 m 1
 61 27 l 1
 61 25 l 1
 63 25 l 1
 63 27 l 1
EndSplineSet
EndChar

StartChar: custom_5_6_0_1_3
Encoding: 36781 36781 16813
Width: 70
Flags: H
LayerCount: 2
Fore
SplineSet
23 43 m 1
 21 43 l 1
 21 41 l 1
 23 41 l 1
 23 43 l 1
26 43 m 1
 24 43 l 1
 24 41 l 1
 25 41 l 1
 25 42 l 1
 26 42 l 1
 26 43 l 1
27 42 m 1
 26 42 l 1
 26 41 l 1
 28 41 l 1
 28 43 l 1
 27 43 l 1
 27 42 l 1
31 43 m 1
 29 43 l 1
 29 41 l 1
 31 41 l 1
 31 43 l 1
41 43 m 1
 39 43 l 1
 39 41 l 1
 41 41 l 1
 41 43 l 1
23 35 m 1
 21 35 l 1
 21 33 l 1
 23 33 l 1
 23 35 l 1
25 35 m 1
 24 35 l 1
 24 33 l 1
 26 33 l 1
 26 34 l 1
 25 34 l 1
 25 35 l 1
23 31 m 1
 21 31 l 1
 21 29 l 1
 23 29 l 1
 23 31 l 1
23 27 m 1
 21 27 l 1
 21 25 l 1
 23 25 l 1
 23 27 l 1
26 27 m 1
 24 27 l 1
 24 25 l 1
 25 25 l 1
 25 26 l 1
 26 26 l 1
 26 27 l 1
31 39 m 1
 29 39 l 1
 29 37 l 1
 31 37 l 1
 31 39 l 1
28 35 m 1
 26 35 l 1
 26 34 l 1
 27 34 l 1
 27 33 l 1
 28 33 l 1
 28 35 l 1
31 35 m 1
 29 35 l 1
 29 33 l 1
 31 33 l 1
 31 35 l 1
36 37 m 1
 34 37 l 1
 34 35 l 1
 36 35 l 1
 36 37 l 1
41 39 m 1
 39 39 l 1
 39 37 l 1
 41 37 l 1
 41 39 l 1
36 33 m 1
 34 33 l 1
 34 31 l 1
 36 31 l 1
 36 33 l 1
41 35 m 1
 39 35 l 1
 39 33 l 1
 41 33 l 1
 41 35 l 1
27 26 m 1
 26 26 l 1
 26 25 l 1
 28 25 l 1
 28 27 l 1
 27 27 l 1
 27 26 l 1
31 27 m 1
 29 27 l 1
 29 25 l 1
 31 25 l 1
 31 27 l 1
41 27 m 1
 39 27 l 1
 39 25 l 1
 41 25 l 1
 41 27 l 1
44 43 m 1
 42 43 l 1
 42 41 l 1
 43 41 l 1
 43 42 l 1
 44 42 l 1
 44 43 l 1
45 42 m 1
 44 42 l 1
 44 41 l 1
 46 41 l 1
 46 43 l 1
 45 43 l 1
 45 42 l 1
49 43 m 1
 47 43 l 1
 47 41 l 1
 49 41 l 1
 49 43 l 1
55 43 m 1
 53 43 l 1
 53 41 l 1
 55 41 l 1
 55 43 l 1
58 43 m 1
 56 43 l 1
 56 41 l 1
 57 41 l 1
 57 42 l 1
 58 42 l 1
 58 43 l 1
59 42 m 1
 58 42 l 1
 58 41 l 1
 60 41 l 1
 60 43 l 1
 59 43 l 1
 59 42 l 1
63 43 m 1
 61 43 l 1
 61 41 l 1
 63 41 l 1
 63 43 l 1
43 35 m 1
 42 35 l 1
 42 33 l 1
 44 33 l 1
 44 34 l 1
 43 34 l 1
 43 35 l 1
46 35 m 1
 44 35 l 1
 44 34 l 1
 45 34 l 1
 45 33 l 1
 46 33 l 1
 46 35 l 1
49 35 m 1
 47 35 l 1
 47 33 l 1
 49 33 l 1
 49 35 l 1
55 39 m 1
 53 39 l 1
 53 37 l 1
 55 37 l 1
 55 39 l 1
55 35 m 1
 53 35 l 1
 53 33 l 1
 55 33 l 1
 55 35 l 1
57 35 m 1
 56 35 l 1
 56 33 l 1
 58 33 l 1
 58 34 l 1
 57 34 l 1
 57 35 l 1
49 31 m 1
 47 31 l 1
 47 29 l 1
 49 29 l 1
 49 31 l 1
44 27 m 1
 42 27 l 1
 42 25 l 1
 43 25 l 1
 43 26 l 1
 44 26 l 1
 44 27 l 1
45 26 m 1
 44 26 l 1
 44 25 l 1
 46 25 l 1
 46 27 l 1
 45 27 l 1
 45 26 l 1
49 27 m 1
 47 27 l 1
 47 25 l 1
 49 25 l 1
 49 27 l 1
55 31 m 1
 53 31 l 1
 53 29 l 1
 55 29 l 1
 55 31 l 1
55 27 m 1
 53 27 l 1
 53 25 l 1
 55 25 l 1
 55 27 l 1
58 27 m 1
 56 27 l 1
 56 25 l 1
 57 25 l 1
 57 26 l 1
 58 26 l 1
 58 27 l 1
60 35 m 1
 58 35 l 1
 58 34 l 1
 59 34 l 1
 59 33 l 1
 60 33 l 1
 60 35 l 1
63 35 m 1
 61 35 l 1
 61 33 l 1
 63 33 l 1
 63 35 l 1
63 31 m 1
 61 31 l 1
 61 29 l 1
 63 29 l 1
 63 31 l 1
59 26 m 1
 58 26 l 1
 58 25 l 1
 60 25 l 1
 60 27 l 1
 59 27 l 1
 59 26 l 1
63 27 m 1
 61 27 l 1
 61 25 l 1
 63 25 l 1
 63 27 l 1
EndSplineSet
EndChar

StartChar: custom_5_6_0_1_4
Encoding: 36782 36782 16814
Width: 70
Flags: H
LayerCount: 2
Fore
SplineSet
23 43 m 1
 21 43 l 1
 21 41 l 1
 23 41 l 1
 23 43 l 1
26 43 m 1
 24 43 l 1
 24 41 l 1
 25 41 l 1
 25 42 l 1
 26 42 l 1
 26 43 l 1
27 42 m 1
 26 42 l 1
 26 41 l 1
 28 41 l 1
 28 43 l 1
 27 43 l 1
 27 42 l 1
31 43 m 1
 29 43 l 1
 29 41 l 1
 31 41 l 1
 31 43 l 1
41 43 m 1
 39 43 l 1
 39 41 l 1
 41 41 l 1
 41 43 l 1
23 35 m 1
 21 35 l 1
 21 33 l 1
 23 33 l 1
 23 35 l 1
25 35 m 1
 24 35 l 1
 24 33 l 1
 26 33 l 1
 26 34 l 1
 25 34 l 1
 25 35 l 1
23 31 m 1
 21 31 l 1
 21 29 l 1
 23 29 l 1
 23 31 l 1
23 27 m 1
 21 27 l 1
 21 25 l 1
 23 25 l 1
 23 27 l 1
26 27 m 1
 24 27 l 1
 24 25 l 1
 25 25 l 1
 25 26 l 1
 26 26 l 1
 26 27 l 1
31 39 m 1
 29 39 l 1
 29 37 l 1
 31 37 l 1
 31 39 l 1
28 35 m 1
 26 35 l 1
 26 34 l 1
 27 34 l 1
 27 33 l 1
 28 33 l 1
 28 35 l 1
31 35 m 1
 29 35 l 1
 29 33 l 1
 31 33 l 1
 31 35 l 1
36 37 m 1
 34 37 l 1
 34 35 l 1
 36 35 l 1
 36 37 l 1
41 39 m 1
 39 39 l 1
 39 37 l 1
 41 37 l 1
 41 39 l 1
36 33 m 1
 34 33 l 1
 34 31 l 1
 36 31 l 1
 36 33 l 1
41 35 m 1
 39 35 l 1
 39 33 l 1
 41 33 l 1
 41 35 l 1
27 26 m 1
 26 26 l 1
 26 25 l 1
 28 25 l 1
 28 27 l 1
 27 27 l 1
 27 26 l 1
31 27 m 1
 29 27 l 1
 29 25 l 1
 31 25 l 1
 31 27 l 1
41 27 m 1
 39 27 l 1
 39 25 l 1
 41 25 l 1
 41 27 l 1
44 43 m 1
 42 43 l 1
 42 41 l 1
 43 41 l 1
 43 42 l 1
 44 42 l 1
 44 43 l 1
45 42 m 1
 44 42 l 1
 44 41 l 1
 46 41 l 1
 46 43 l 1
 45 43 l 1
 45 42 l 1
49 43 m 1
 47 43 l 1
 47 41 l 1
 49 41 l 1
 49 43 l 1
55 43 m 1
 53 43 l 1
 53 41 l 1
 55 41 l 1
 55 43 l 1
58 43 m 1
 56 43 l 1
 56 41 l 1
 57 41 l 1
 57 42 l 1
 58 42 l 1
 58 43 l 1
59 42 m 1
 58 42 l 1
 58 41 l 1
 60 41 l 1
 60 43 l 1
 59 43 l 1
 59 42 l 1
63 43 m 1
 61 43 l 1
 61 41 l 1
 63 41 l 1
 63 43 l 1
43 35 m 1
 42 35 l 1
 42 33 l 1
 44 33 l 1
 44 34 l 1
 43 34 l 1
 43 35 l 1
46 35 m 1
 44 35 l 1
 44 34 l 1
 45 34 l 1
 45 33 l 1
 46 33 l 1
 46 35 l 1
49 35 m 1
 47 35 l 1
 47 33 l 1
 49 33 l 1
 49 35 l 1
55 39 m 1
 53 39 l 1
 53 37 l 1
 55 37 l 1
 55 39 l 1
55 35 m 1
 53 35 l 1
 53 33 l 1
 55 33 l 1
 55 35 l 1
57 35 m 1
 56 35 l 1
 56 33 l 1
 58 33 l 1
 58 34 l 1
 57 34 l 1
 57 35 l 1
49 31 m 1
 47 31 l 1
 47 29 l 1
 49 29 l 1
 49 31 l 1
44 27 m 1
 42 27 l 1
 42 25 l 1
 43 25 l 1
 43 26 l 1
 44 26 l 1
 44 27 l 1
45 26 m 1
 44 26 l 1
 44 25 l 1
 46 25 l 1
 46 27 l 1
 45 27 l 1
 45 26 l 1
49 27 m 1
 47 27 l 1
 47 25 l 1
 49 25 l 1
 49 27 l 1
55 31 m 1
 53 31 l 1
 53 29 l 1
 55 29 l 1
 55 31 l 1
55 27 m 1
 53 27 l 1
 53 25 l 1
 55 25 l 1
 55 27 l 1
58 27 m 1
 56 27 l 1
 56 25 l 1
 57 25 l 1
 57 26 l 1
 58 26 l 1
 58 27 l 1
60 35 m 1
 58 35 l 1
 58 34 l 1
 59 34 l 1
 59 33 l 1
 60 33 l 1
 60 35 l 1
63 35 m 1
 61 35 l 1
 61 33 l 1
 63 33 l 1
 63 35 l 1
63 31 m 1
 61 31 l 1
 61 29 l 1
 63 29 l 1
 63 31 l 1
59 26 m 1
 58 26 l 1
 58 25 l 1
 60 25 l 1
 60 27 l 1
 59 27 l 1
 59 26 l 1
63 27 m 1
 61 27 l 1
 61 25 l 1
 63 25 l 1
 63 27 l 1
EndSplineSet
EndChar

StartChar: custom_5_6_0_1_5
Encoding: 36783 36783 16815
Width: 70
Flags: H
LayerCount: 2
Fore
SplineSet
23 43 m 1
 21 43 l 1
 21 41 l 1
 23 41 l 1
 23 43 l 1
26 43 m 1
 24 43 l 1
 24 41 l 1
 25 41 l 1
 25 42 l 1
 26 42 l 1
 26 43 l 1
27 42 m 1
 26 42 l 1
 26 41 l 1
 28 41 l 1
 28 43 l 1
 27 43 l 1
 27 42 l 1
31 43 m 1
 29 43 l 1
 29 41 l 1
 31 41 l 1
 31 43 l 1
41 43 m 1
 39 43 l 1
 39 41 l 1
 41 41 l 1
 41 43 l 1
23 35 m 1
 21 35 l 1
 21 33 l 1
 23 33 l 1
 23 35 l 1
25 35 m 1
 24 35 l 1
 24 33 l 1
 26 33 l 1
 26 34 l 1
 25 34 l 1
 25 35 l 1
23 31 m 1
 21 31 l 1
 21 29 l 1
 23 29 l 1
 23 31 l 1
23 27 m 1
 21 27 l 1
 21 25 l 1
 23 25 l 1
 23 27 l 1
26 27 m 1
 24 27 l 1
 24 25 l 1
 25 25 l 1
 25 26 l 1
 26 26 l 1
 26 27 l 1
31 39 m 1
 29 39 l 1
 29 37 l 1
 31 37 l 1
 31 39 l 1
28 35 m 1
 26 35 l 1
 26 34 l 1
 27 34 l 1
 27 33 l 1
 28 33 l 1
 28 35 l 1
31 35 m 1
 29 35 l 1
 29 33 l 1
 31 33 l 1
 31 35 l 1
36 37 m 1
 34 37 l 1
 34 35 l 1
 36 35 l 1
 36 37 l 1
41 39 m 1
 39 39 l 1
 39 37 l 1
 41 37 l 1
 41 39 l 1
36 33 m 1
 34 33 l 1
 34 31 l 1
 36 31 l 1
 36 33 l 1
41 35 m 1
 39 35 l 1
 39 33 l 1
 41 33 l 1
 41 35 l 1
27 26 m 1
 26 26 l 1
 26 25 l 1
 28 25 l 1
 28 27 l 1
 27 27 l 1
 27 26 l 1
31 27 m 1
 29 27 l 1
 29 25 l 1
 31 25 l 1
 31 27 l 1
41 27 m 1
 39 27 l 1
 39 25 l 1
 41 25 l 1
 41 27 l 1
44 43 m 1
 42 43 l 1
 42 41 l 1
 43 41 l 1
 43 42 l 1
 44 42 l 1
 44 43 l 1
45 42 m 1
 44 42 l 1
 44 41 l 1
 46 41 l 1
 46 43 l 1
 45 43 l 1
 45 42 l 1
49 43 m 1
 47 43 l 1
 47 41 l 1
 49 41 l 1
 49 43 l 1
55 43 m 1
 53 43 l 1
 53 41 l 1
 55 41 l 1
 55 43 l 1
58 43 m 1
 56 43 l 1
 56 41 l 1
 57 41 l 1
 57 42 l 1
 58 42 l 1
 58 43 l 1
59 42 m 1
 58 42 l 1
 58 41 l 1
 60 41 l 1
 60 43 l 1
 59 43 l 1
 59 42 l 1
63 43 m 1
 61 43 l 1
 61 41 l 1
 63 41 l 1
 63 43 l 1
43 35 m 1
 42 35 l 1
 42 33 l 1
 44 33 l 1
 44 34 l 1
 43 34 l 1
 43 35 l 1
46 35 m 1
 44 35 l 1
 44 34 l 1
 45 34 l 1
 45 33 l 1
 46 33 l 1
 46 35 l 1
49 35 m 1
 47 35 l 1
 47 33 l 1
 49 33 l 1
 49 35 l 1
55 39 m 1
 53 39 l 1
 53 37 l 1
 55 37 l 1
 55 39 l 1
55 35 m 1
 53 35 l 1
 53 33 l 1
 55 33 l 1
 55 35 l 1
57 35 m 1
 56 35 l 1
 56 33 l 1
 58 33 l 1
 58 34 l 1
 57 34 l 1
 57 35 l 1
49 31 m 1
 47 31 l 1
 47 29 l 1
 49 29 l 1
 49 31 l 1
44 27 m 1
 42 27 l 1
 42 25 l 1
 43 25 l 1
 43 26 l 1
 44 26 l 1
 44 27 l 1
45 26 m 1
 44 26 l 1
 44 25 l 1
 46 25 l 1
 46 27 l 1
 45 27 l 1
 45 26 l 1
49 27 m 1
 47 27 l 1
 47 25 l 1
 49 25 l 1
 49 27 l 1
55 31 m 1
 53 31 l 1
 53 29 l 1
 55 29 l 1
 55 31 l 1
55 27 m 1
 53 27 l 1
 53 25 l 1
 55 25 l 1
 55 27 l 1
58 27 m 1
 56 27 l 1
 56 25 l 1
 57 25 l 1
 57 26 l 1
 58 26 l 1
 58 27 l 1
60 35 m 1
 58 35 l 1
 58 34 l 1
 59 34 l 1
 59 33 l 1
 60 33 l 1
 60 35 l 1
63 35 m 1
 61 35 l 1
 61 33 l 1
 63 33 l 1
 63 35 l 1
63 31 m 1
 61 31 l 1
 61 29 l 1
 63 29 l 1
 63 31 l 1
59 26 m 1
 58 26 l 1
 58 25 l 1
 60 25 l 1
 60 27 l 1
 59 27 l 1
 59 26 l 1
63 27 m 1
 61 27 l 1
 61 25 l 1
 63 25 l 1
 63 27 l 1
EndSplineSet
EndChar

StartChar: custom_5_6_0_1_6
Encoding: 36784 36784 16816
Width: 70
Flags: H
LayerCount: 2
Fore
SplineSet
23 43 m 1
 21 43 l 1
 21 41 l 1
 23 41 l 1
 23 43 l 1
26 43 m 1
 24 43 l 1
 24 41 l 1
 25 41 l 1
 25 42 l 1
 26 42 l 1
 26 43 l 1
27 42 m 1
 26 42 l 1
 26 41 l 1
 28 41 l 1
 28 43 l 1
 27 43 l 1
 27 42 l 1
31 43 m 1
 29 43 l 1
 29 41 l 1
 31 41 l 1
 31 43 l 1
41 43 m 1
 39 43 l 1
 39 41 l 1
 41 41 l 1
 41 43 l 1
23 35 m 1
 21 35 l 1
 21 33 l 1
 23 33 l 1
 23 35 l 1
25 35 m 1
 24 35 l 1
 24 33 l 1
 26 33 l 1
 26 34 l 1
 25 34 l 1
 25 35 l 1
23 31 m 1
 21 31 l 1
 21 29 l 1
 23 29 l 1
 23 31 l 1
23 27 m 1
 21 27 l 1
 21 25 l 1
 23 25 l 1
 23 27 l 1
26 27 m 1
 24 27 l 1
 24 25 l 1
 25 25 l 1
 25 26 l 1
 26 26 l 1
 26 27 l 1
31 39 m 1
 29 39 l 1
 29 37 l 1
 31 37 l 1
 31 39 l 1
28 35 m 1
 26 35 l 1
 26 34 l 1
 27 34 l 1
 27 33 l 1
 28 33 l 1
 28 35 l 1
31 35 m 1
 29 35 l 1
 29 33 l 1
 31 33 l 1
 31 35 l 1
36 37 m 1
 34 37 l 1
 34 35 l 1
 36 35 l 1
 36 37 l 1
41 39 m 1
 39 39 l 1
 39 37 l 1
 41 37 l 1
 41 39 l 1
36 33 m 1
 34 33 l 1
 34 31 l 1
 36 31 l 1
 36 33 l 1
41 35 m 1
 39 35 l 1
 39 33 l 1
 41 33 l 1
 41 35 l 1
27 26 m 1
 26 26 l 1
 26 25 l 1
 28 25 l 1
 28 27 l 1
 27 27 l 1
 27 26 l 1
31 27 m 1
 29 27 l 1
 29 25 l 1
 31 25 l 1
 31 27 l 1
41 27 m 1
 39 27 l 1
 39 25 l 1
 41 25 l 1
 41 27 l 1
44 43 m 1
 42 43 l 1
 42 41 l 1
 43 41 l 1
 43 42 l 1
 44 42 l 1
 44 43 l 1
45 42 m 1
 44 42 l 1
 44 41 l 1
 46 41 l 1
 46 43 l 1
 45 43 l 1
 45 42 l 1
49 43 m 1
 47 43 l 1
 47 41 l 1
 49 41 l 1
 49 43 l 1
55 43 m 1
 53 43 l 1
 53 41 l 1
 55 41 l 1
 55 43 l 1
58 43 m 1
 56 43 l 1
 56 41 l 1
 57 41 l 1
 57 42 l 1
 58 42 l 1
 58 43 l 1
59 42 m 1
 58 42 l 1
 58 41 l 1
 60 41 l 1
 60 43 l 1
 59 43 l 1
 59 42 l 1
63 43 m 1
 61 43 l 1
 61 41 l 1
 63 41 l 1
 63 43 l 1
43 35 m 1
 42 35 l 1
 42 33 l 1
 44 33 l 1
 44 34 l 1
 43 34 l 1
 43 35 l 1
46 35 m 1
 44 35 l 1
 44 34 l 1
 45 34 l 1
 45 33 l 1
 46 33 l 1
 46 35 l 1
49 35 m 1
 47 35 l 1
 47 33 l 1
 49 33 l 1
 49 35 l 1
55 39 m 1
 53 39 l 1
 53 37 l 1
 55 37 l 1
 55 39 l 1
55 35 m 1
 53 35 l 1
 53 33 l 1
 55 33 l 1
 55 35 l 1
57 35 m 1
 56 35 l 1
 56 33 l 1
 58 33 l 1
 58 34 l 1
 57 34 l 1
 57 35 l 1
49 31 m 1
 47 31 l 1
 47 29 l 1
 49 29 l 1
 49 31 l 1
44 27 m 1
 42 27 l 1
 42 25 l 1
 43 25 l 1
 43 26 l 1
 44 26 l 1
 44 27 l 1
45 26 m 1
 44 26 l 1
 44 25 l 1
 46 25 l 1
 46 27 l 1
 45 27 l 1
 45 26 l 1
49 27 m 1
 47 27 l 1
 47 25 l 1
 49 25 l 1
 49 27 l 1
55 31 m 1
 53 31 l 1
 53 29 l 1
 55 29 l 1
 55 31 l 1
55 27 m 1
 53 27 l 1
 53 25 l 1
 55 25 l 1
 55 27 l 1
58 27 m 1
 56 27 l 1
 56 25 l 1
 57 25 l 1
 57 26 l 1
 58 26 l 1
 58 27 l 1
60 35 m 1
 58 35 l 1
 58 34 l 1
 59 34 l 1
 59 33 l 1
 60 33 l 1
 60 35 l 1
63 35 m 1
 61 35 l 1
 61 33 l 1
 63 33 l 1
 63 35 l 1
63 31 m 1
 61 31 l 1
 61 29 l 1
 63 29 l 1
 63 31 l 1
59 26 m 1
 58 26 l 1
 58 25 l 1
 60 25 l 1
 60 27 l 1
 59 27 l 1
 59 26 l 1
63 27 m 1
 61 27 l 1
 61 25 l 1
 63 25 l 1
 63 27 l 1
EndSplineSet
EndChar

StartChar: custom_5_6_0_1_7
Encoding: 36785 36785 16817
Width: 70
Flags: H
LayerCount: 2
Fore
SplineSet
23 43 m 1
 21 43 l 1
 21 41 l 1
 23 41 l 1
 23 43 l 1
26 43 m 1
 24 43 l 1
 24 41 l 1
 25 41 l 1
 25 42 l 1
 26 42 l 1
 26 43 l 1
27 42 m 1
 26 42 l 1
 26 41 l 1
 28 41 l 1
 28 43 l 1
 27 43 l 1
 27 42 l 1
31 43 m 1
 29 43 l 1
 29 41 l 1
 31 41 l 1
 31 43 l 1
41 43 m 1
 39 43 l 1
 39 41 l 1
 41 41 l 1
 41 43 l 1
23 35 m 1
 21 35 l 1
 21 33 l 1
 23 33 l 1
 23 35 l 1
25 35 m 1
 24 35 l 1
 24 33 l 1
 26 33 l 1
 26 34 l 1
 25 34 l 1
 25 35 l 1
23 31 m 1
 21 31 l 1
 21 29 l 1
 23 29 l 1
 23 31 l 1
23 27 m 1
 21 27 l 1
 21 25 l 1
 23 25 l 1
 23 27 l 1
26 27 m 1
 24 27 l 1
 24 25 l 1
 25 25 l 1
 25 26 l 1
 26 26 l 1
 26 27 l 1
31 39 m 1
 29 39 l 1
 29 37 l 1
 31 37 l 1
 31 39 l 1
28 35 m 1
 26 35 l 1
 26 34 l 1
 27 34 l 1
 27 33 l 1
 28 33 l 1
 28 35 l 1
31 35 m 1
 29 35 l 1
 29 33 l 1
 31 33 l 1
 31 35 l 1
36 37 m 1
 34 37 l 1
 34 35 l 1
 36 35 l 1
 36 37 l 1
41 39 m 1
 39 39 l 1
 39 37 l 1
 41 37 l 1
 41 39 l 1
36 33 m 1
 34 33 l 1
 34 31 l 1
 36 31 l 1
 36 33 l 1
41 35 m 1
 39 35 l 1
 39 33 l 1
 41 33 l 1
 41 35 l 1
27 26 m 1
 26 26 l 1
 26 25 l 1
 28 25 l 1
 28 27 l 1
 27 27 l 1
 27 26 l 1
31 27 m 1
 29 27 l 1
 29 25 l 1
 31 25 l 1
 31 27 l 1
41 27 m 1
 39 27 l 1
 39 25 l 1
 41 25 l 1
 41 27 l 1
44 43 m 1
 42 43 l 1
 42 41 l 1
 43 41 l 1
 43 42 l 1
 44 42 l 1
 44 43 l 1
45 42 m 1
 44 42 l 1
 44 41 l 1
 46 41 l 1
 46 43 l 1
 45 43 l 1
 45 42 l 1
49 43 m 1
 47 43 l 1
 47 41 l 1
 49 41 l 1
 49 43 l 1
55 43 m 1
 53 43 l 1
 53 41 l 1
 55 41 l 1
 55 43 l 1
58 43 m 1
 56 43 l 1
 56 41 l 1
 57 41 l 1
 57 42 l 1
 58 42 l 1
 58 43 l 1
59 42 m 1
 58 42 l 1
 58 41 l 1
 60 41 l 1
 60 43 l 1
 59 43 l 1
 59 42 l 1
63 43 m 1
 61 43 l 1
 61 41 l 1
 63 41 l 1
 63 43 l 1
43 35 m 1
 42 35 l 1
 42 33 l 1
 44 33 l 1
 44 34 l 1
 43 34 l 1
 43 35 l 1
46 35 m 1
 44 35 l 1
 44 34 l 1
 45 34 l 1
 45 33 l 1
 46 33 l 1
 46 35 l 1
49 35 m 1
 47 35 l 1
 47 33 l 1
 49 33 l 1
 49 35 l 1
55 39 m 1
 53 39 l 1
 53 37 l 1
 55 37 l 1
 55 39 l 1
55 35 m 1
 53 35 l 1
 53 33 l 1
 55 33 l 1
 55 35 l 1
57 35 m 1
 56 35 l 1
 56 33 l 1
 58 33 l 1
 58 34 l 1
 57 34 l 1
 57 35 l 1
49 31 m 1
 47 31 l 1
 47 29 l 1
 49 29 l 1
 49 31 l 1
44 27 m 1
 42 27 l 1
 42 25 l 1
 43 25 l 1
 43 26 l 1
 44 26 l 1
 44 27 l 1
45 26 m 1
 44 26 l 1
 44 25 l 1
 46 25 l 1
 46 27 l 1
 45 27 l 1
 45 26 l 1
49 27 m 1
 47 27 l 1
 47 25 l 1
 49 25 l 1
 49 27 l 1
55 31 m 1
 53 31 l 1
 53 29 l 1
 55 29 l 1
 55 31 l 1
55 27 m 1
 53 27 l 1
 53 25 l 1
 55 25 l 1
 55 27 l 1
58 27 m 1
 56 27 l 1
 56 25 l 1
 57 25 l 1
 57 26 l 1
 58 26 l 1
 58 27 l 1
60 35 m 1
 58 35 l 1
 58 34 l 1
 59 34 l 1
 59 33 l 1
 60 33 l 1
 60 35 l 1
63 35 m 1
 61 35 l 1
 61 33 l 1
 63 33 l 1
 63 35 l 1
63 31 m 1
 61 31 l 1
 61 29 l 1
 63 29 l 1
 63 31 l 1
59 26 m 1
 58 26 l 1
 58 25 l 1
 60 25 l 1
 60 27 l 1
 59 27 l 1
 59 26 l 1
63 27 m 1
 61 27 l 1
 61 25 l 1
 63 25 l 1
 63 27 l 1
EndSplineSet
EndChar

StartChar: custom_5_6_0_1_8
Encoding: 36786 36786 16818
Width: 70
Flags: H
LayerCount: 2
Fore
SplineSet
23 43 m 1
 21 43 l 1
 21 41 l 1
 23 41 l 1
 23 43 l 1
26 43 m 1
 24 43 l 1
 24 41 l 1
 25 41 l 1
 25 42 l 1
 26 42 l 1
 26 43 l 1
27 42 m 1
 26 42 l 1
 26 41 l 1
 28 41 l 1
 28 43 l 1
 27 43 l 1
 27 42 l 1
31 43 m 1
 29 43 l 1
 29 41 l 1
 31 41 l 1
 31 43 l 1
41 43 m 1
 39 43 l 1
 39 41 l 1
 41 41 l 1
 41 43 l 1
23 35 m 1
 21 35 l 1
 21 33 l 1
 23 33 l 1
 23 35 l 1
25 35 m 1
 24 35 l 1
 24 33 l 1
 26 33 l 1
 26 34 l 1
 25 34 l 1
 25 35 l 1
23 31 m 1
 21 31 l 1
 21 29 l 1
 23 29 l 1
 23 31 l 1
23 27 m 1
 21 27 l 1
 21 25 l 1
 23 25 l 1
 23 27 l 1
26 27 m 1
 24 27 l 1
 24 25 l 1
 25 25 l 1
 25 26 l 1
 26 26 l 1
 26 27 l 1
31 39 m 1
 29 39 l 1
 29 37 l 1
 31 37 l 1
 31 39 l 1
28 35 m 1
 26 35 l 1
 26 34 l 1
 27 34 l 1
 27 33 l 1
 28 33 l 1
 28 35 l 1
31 35 m 1
 29 35 l 1
 29 33 l 1
 31 33 l 1
 31 35 l 1
36 37 m 1
 34 37 l 1
 34 35 l 1
 36 35 l 1
 36 37 l 1
41 39 m 1
 39 39 l 1
 39 37 l 1
 41 37 l 1
 41 39 l 1
36 33 m 1
 34 33 l 1
 34 31 l 1
 36 31 l 1
 36 33 l 1
41 35 m 1
 39 35 l 1
 39 33 l 1
 41 33 l 1
 41 35 l 1
27 26 m 1
 26 26 l 1
 26 25 l 1
 28 25 l 1
 28 27 l 1
 27 27 l 1
 27 26 l 1
31 27 m 1
 29 27 l 1
 29 25 l 1
 31 25 l 1
 31 27 l 1
41 27 m 1
 39 27 l 1
 39 25 l 1
 41 25 l 1
 41 27 l 1
44 43 m 1
 42 43 l 1
 42 41 l 1
 43 41 l 1
 43 42 l 1
 44 42 l 1
 44 43 l 1
45 42 m 1
 44 42 l 1
 44 41 l 1
 46 41 l 1
 46 43 l 1
 45 43 l 1
 45 42 l 1
49 43 m 1
 47 43 l 1
 47 41 l 1
 49 41 l 1
 49 43 l 1
55 43 m 1
 53 43 l 1
 53 41 l 1
 55 41 l 1
 55 43 l 1
58 43 m 1
 56 43 l 1
 56 41 l 1
 57 41 l 1
 57 42 l 1
 58 42 l 1
 58 43 l 1
59 42 m 1
 58 42 l 1
 58 41 l 1
 60 41 l 1
 60 43 l 1
 59 43 l 1
 59 42 l 1
63 43 m 1
 61 43 l 1
 61 41 l 1
 63 41 l 1
 63 43 l 1
43 35 m 1
 42 35 l 1
 42 33 l 1
 44 33 l 1
 44 34 l 1
 43 34 l 1
 43 35 l 1
46 35 m 1
 44 35 l 1
 44 34 l 1
 45 34 l 1
 45 33 l 1
 46 33 l 1
 46 35 l 1
49 35 m 1
 47 35 l 1
 47 33 l 1
 49 33 l 1
 49 35 l 1
55 39 m 1
 53 39 l 1
 53 37 l 1
 55 37 l 1
 55 39 l 1
55 35 m 1
 53 35 l 1
 53 33 l 1
 55 33 l 1
 55 35 l 1
57 35 m 1
 56 35 l 1
 56 33 l 1
 58 33 l 1
 58 34 l 1
 57 34 l 1
 57 35 l 1
49 31 m 1
 47 31 l 1
 47 29 l 1
 49 29 l 1
 49 31 l 1
44 27 m 1
 42 27 l 1
 42 25 l 1
 43 25 l 1
 43 26 l 1
 44 26 l 1
 44 27 l 1
45 26 m 1
 44 26 l 1
 44 25 l 1
 46 25 l 1
 46 27 l 1
 45 27 l 1
 45 26 l 1
49 27 m 1
 47 27 l 1
 47 25 l 1
 49 25 l 1
 49 27 l 1
55 31 m 1
 53 31 l 1
 53 29 l 1
 55 29 l 1
 55 31 l 1
55 27 m 1
 53 27 l 1
 53 25 l 1
 55 25 l 1
 55 27 l 1
58 27 m 1
 56 27 l 1
 56 25 l 1
 57 25 l 1
 57 26 l 1
 58 26 l 1
 58 27 l 1
60 35 m 1
 58 35 l 1
 58 34 l 1
 59 34 l 1
 59 33 l 1
 60 33 l 1
 60 35 l 1
63 35 m 1
 61 35 l 1
 61 33 l 1
 63 33 l 1
 63 35 l 1
63 31 m 1
 61 31 l 1
 61 29 l 1
 63 29 l 1
 63 31 l 1
59 26 m 1
 58 26 l 1
 58 25 l 1
 60 25 l 1
 60 27 l 1
 59 27 l 1
 59 26 l 1
63 27 m 1
 61 27 l 1
 61 25 l 1
 63 25 l 1
 63 27 l 1
EndSplineSet
EndChar

StartChar: custom_5_6_0_1_9
Encoding: 36787 36787 16819
Width: 70
Flags: H
LayerCount: 2
Fore
SplineSet
23 43 m 1
 21 43 l 1
 21 41 l 1
 23 41 l 1
 23 43 l 1
26 43 m 1
 24 43 l 1
 24 41 l 1
 25 41 l 1
 25 42 l 1
 26 42 l 1
 26 43 l 1
27 42 m 1
 26 42 l 1
 26 41 l 1
 28 41 l 1
 28 43 l 1
 27 43 l 1
 27 42 l 1
31 43 m 1
 29 43 l 1
 29 41 l 1
 31 41 l 1
 31 43 l 1
41 43 m 1
 39 43 l 1
 39 41 l 1
 41 41 l 1
 41 43 l 1
23 35 m 1
 21 35 l 1
 21 33 l 1
 23 33 l 1
 23 35 l 1
25 35 m 1
 24 35 l 1
 24 33 l 1
 26 33 l 1
 26 34 l 1
 25 34 l 1
 25 35 l 1
23 31 m 1
 21 31 l 1
 21 29 l 1
 23 29 l 1
 23 31 l 1
23 27 m 1
 21 27 l 1
 21 25 l 1
 23 25 l 1
 23 27 l 1
26 27 m 1
 24 27 l 1
 24 25 l 1
 25 25 l 1
 25 26 l 1
 26 26 l 1
 26 27 l 1
31 39 m 1
 29 39 l 1
 29 37 l 1
 31 37 l 1
 31 39 l 1
28 35 m 1
 26 35 l 1
 26 34 l 1
 27 34 l 1
 27 33 l 1
 28 33 l 1
 28 35 l 1
31 35 m 1
 29 35 l 1
 29 33 l 1
 31 33 l 1
 31 35 l 1
36 37 m 1
 34 37 l 1
 34 35 l 1
 36 35 l 1
 36 37 l 1
41 39 m 1
 39 39 l 1
 39 37 l 1
 41 37 l 1
 41 39 l 1
36 33 m 1
 34 33 l 1
 34 31 l 1
 36 31 l 1
 36 33 l 1
41 35 m 1
 39 35 l 1
 39 33 l 1
 41 33 l 1
 41 35 l 1
27 26 m 1
 26 26 l 1
 26 25 l 1
 28 25 l 1
 28 27 l 1
 27 27 l 1
 27 26 l 1
31 27 m 1
 29 27 l 1
 29 25 l 1
 31 25 l 1
 31 27 l 1
41 27 m 1
 39 27 l 1
 39 25 l 1
 41 25 l 1
 41 27 l 1
44 43 m 1
 42 43 l 1
 42 41 l 1
 43 41 l 1
 43 42 l 1
 44 42 l 1
 44 43 l 1
45 42 m 1
 44 42 l 1
 44 41 l 1
 46 41 l 1
 46 43 l 1
 45 43 l 1
 45 42 l 1
49 43 m 1
 47 43 l 1
 47 41 l 1
 49 41 l 1
 49 43 l 1
55 43 m 1
 53 43 l 1
 53 41 l 1
 55 41 l 1
 55 43 l 1
58 43 m 1
 56 43 l 1
 56 41 l 1
 57 41 l 1
 57 42 l 1
 58 42 l 1
 58 43 l 1
59 42 m 1
 58 42 l 1
 58 41 l 1
 60 41 l 1
 60 43 l 1
 59 43 l 1
 59 42 l 1
63 43 m 1
 61 43 l 1
 61 41 l 1
 63 41 l 1
 63 43 l 1
43 35 m 1
 42 35 l 1
 42 33 l 1
 44 33 l 1
 44 34 l 1
 43 34 l 1
 43 35 l 1
46 35 m 1
 44 35 l 1
 44 34 l 1
 45 34 l 1
 45 33 l 1
 46 33 l 1
 46 35 l 1
49 35 m 1
 47 35 l 1
 47 33 l 1
 49 33 l 1
 49 35 l 1
55 39 m 1
 53 39 l 1
 53 37 l 1
 55 37 l 1
 55 39 l 1
55 35 m 1
 53 35 l 1
 53 33 l 1
 55 33 l 1
 55 35 l 1
57 35 m 1
 56 35 l 1
 56 33 l 1
 58 33 l 1
 58 34 l 1
 57 34 l 1
 57 35 l 1
49 31 m 1
 47 31 l 1
 47 29 l 1
 49 29 l 1
 49 31 l 1
44 27 m 1
 42 27 l 1
 42 25 l 1
 43 25 l 1
 43 26 l 1
 44 26 l 1
 44 27 l 1
45 26 m 1
 44 26 l 1
 44 25 l 1
 46 25 l 1
 46 27 l 1
 45 27 l 1
 45 26 l 1
49 27 m 1
 47 27 l 1
 47 25 l 1
 49 25 l 1
 49 27 l 1
55 31 m 1
 53 31 l 1
 53 29 l 1
 55 29 l 1
 55 31 l 1
55 27 m 1
 53 27 l 1
 53 25 l 1
 55 25 l 1
 55 27 l 1
58 27 m 1
 56 27 l 1
 56 25 l 1
 57 25 l 1
 57 26 l 1
 58 26 l 1
 58 27 l 1
60 35 m 1
 58 35 l 1
 58 34 l 1
 59 34 l 1
 59 33 l 1
 60 33 l 1
 60 35 l 1
63 35 m 1
 61 35 l 1
 61 33 l 1
 63 33 l 1
 63 35 l 1
63 31 m 1
 61 31 l 1
 61 29 l 1
 63 29 l 1
 63 31 l 1
59 26 m 1
 58 26 l 1
 58 25 l 1
 60 25 l 1
 60 27 l 1
 59 27 l 1
 59 26 l 1
63 27 m 1
 61 27 l 1
 61 25 l 1
 63 25 l 1
 63 27 l 1
EndSplineSet
EndChar

StartChar: custom_5_6_0_2_0
Encoding: 36788 36788 16820
Width: 70
Flags: H
LayerCount: 2
Fore
SplineSet
23 43 m 1
 21 43 l 1
 21 41 l 1
 23 41 l 1
 23 43 l 1
26 43 m 1
 24 43 l 1
 24 41 l 1
 25 41 l 1
 25 42 l 1
 26 42 l 1
 26 43 l 1
27 42 m 1
 26 42 l 1
 26 41 l 1
 28 41 l 1
 28 43 l 1
 27 43 l 1
 27 42 l 1
31 43 m 1
 29 43 l 1
 29 41 l 1
 31 41 l 1
 31 43 l 1
41 43 m 1
 39 43 l 1
 39 41 l 1
 41 41 l 1
 41 43 l 1
23 35 m 1
 21 35 l 1
 21 33 l 1
 23 33 l 1
 23 35 l 1
25 35 m 1
 24 35 l 1
 24 33 l 1
 26 33 l 1
 26 34 l 1
 25 34 l 1
 25 35 l 1
23 31 m 1
 21 31 l 1
 21 29 l 1
 23 29 l 1
 23 31 l 1
23 27 m 1
 21 27 l 1
 21 25 l 1
 23 25 l 1
 23 27 l 1
26 27 m 1
 24 27 l 1
 24 25 l 1
 25 25 l 1
 25 26 l 1
 26 26 l 1
 26 27 l 1
31 39 m 1
 29 39 l 1
 29 37 l 1
 31 37 l 1
 31 39 l 1
28 35 m 1
 26 35 l 1
 26 34 l 1
 27 34 l 1
 27 33 l 1
 28 33 l 1
 28 35 l 1
31 35 m 1
 29 35 l 1
 29 33 l 1
 31 33 l 1
 31 35 l 1
36 37 m 1
 34 37 l 1
 34 35 l 1
 36 35 l 1
 36 37 l 1
41 39 m 1
 39 39 l 1
 39 37 l 1
 41 37 l 1
 41 39 l 1
36 33 m 1
 34 33 l 1
 34 31 l 1
 36 31 l 1
 36 33 l 1
41 35 m 1
 39 35 l 1
 39 33 l 1
 41 33 l 1
 41 35 l 1
27 26 m 1
 26 26 l 1
 26 25 l 1
 28 25 l 1
 28 27 l 1
 27 27 l 1
 27 26 l 1
31 27 m 1
 29 27 l 1
 29 25 l 1
 31 25 l 1
 31 27 l 1
41 27 m 1
 39 27 l 1
 39 25 l 1
 41 25 l 1
 41 27 l 1
44 43 m 1
 42 43 l 1
 42 41 l 1
 43 41 l 1
 43 42 l 1
 44 42 l 1
 44 43 l 1
45 42 m 1
 44 42 l 1
 44 41 l 1
 46 41 l 1
 46 43 l 1
 45 43 l 1
 45 42 l 1
49 43 m 1
 47 43 l 1
 47 41 l 1
 49 41 l 1
 49 43 l 1
55 43 m 1
 53 43 l 1
 53 41 l 1
 55 41 l 1
 55 43 l 1
58 43 m 1
 56 43 l 1
 56 41 l 1
 57 41 l 1
 57 42 l 1
 58 42 l 1
 58 43 l 1
59 42 m 1
 58 42 l 1
 58 41 l 1
 60 41 l 1
 60 43 l 1
 59 43 l 1
 59 42 l 1
63 43 m 1
 61 43 l 1
 61 41 l 1
 63 41 l 1
 63 43 l 1
43 35 m 1
 42 35 l 1
 42 33 l 1
 44 33 l 1
 44 34 l 1
 43 34 l 1
 43 35 l 1
46 35 m 1
 44 35 l 1
 44 34 l 1
 45 34 l 1
 45 33 l 1
 46 33 l 1
 46 35 l 1
49 35 m 1
 47 35 l 1
 47 33 l 1
 49 33 l 1
 49 35 l 1
55 39 m 1
 53 39 l 1
 53 37 l 1
 55 37 l 1
 55 39 l 1
55 35 m 1
 53 35 l 1
 53 33 l 1
 55 33 l 1
 55 35 l 1
57 35 m 1
 56 35 l 1
 56 33 l 1
 58 33 l 1
 58 34 l 1
 57 34 l 1
 57 35 l 1
49 31 m 1
 47 31 l 1
 47 29 l 1
 49 29 l 1
 49 31 l 1
44 27 m 1
 42 27 l 1
 42 25 l 1
 43 25 l 1
 43 26 l 1
 44 26 l 1
 44 27 l 1
45 26 m 1
 44 26 l 1
 44 25 l 1
 46 25 l 1
 46 27 l 1
 45 27 l 1
 45 26 l 1
49 27 m 1
 47 27 l 1
 47 25 l 1
 49 25 l 1
 49 27 l 1
55 31 m 1
 53 31 l 1
 53 29 l 1
 55 29 l 1
 55 31 l 1
55 27 m 1
 53 27 l 1
 53 25 l 1
 55 25 l 1
 55 27 l 1
58 27 m 1
 56 27 l 1
 56 25 l 1
 57 25 l 1
 57 26 l 1
 58 26 l 1
 58 27 l 1
60 35 m 1
 58 35 l 1
 58 34 l 1
 59 34 l 1
 59 33 l 1
 60 33 l 1
 60 35 l 1
63 35 m 1
 61 35 l 1
 61 33 l 1
 63 33 l 1
 63 35 l 1
63 31 m 1
 61 31 l 1
 61 29 l 1
 63 29 l 1
 63 31 l 1
59 26 m 1
 58 26 l 1
 58 25 l 1
 60 25 l 1
 60 27 l 1
 59 27 l 1
 59 26 l 1
63 27 m 1
 61 27 l 1
 61 25 l 1
 63 25 l 1
 63 27 l 1
EndSplineSet
EndChar

StartChar: custom_5_6_0_2_1
Encoding: 36789 36789 16821
Width: 70
Flags: H
LayerCount: 2
Fore
SplineSet
23 43 m 1
 21 43 l 1
 21 41 l 1
 23 41 l 1
 23 43 l 1
26 43 m 1
 24 43 l 1
 24 41 l 1
 25 41 l 1
 25 42 l 1
 26 42 l 1
 26 43 l 1
27 42 m 1
 26 42 l 1
 26 41 l 1
 28 41 l 1
 28 43 l 1
 27 43 l 1
 27 42 l 1
31 43 m 1
 29 43 l 1
 29 41 l 1
 31 41 l 1
 31 43 l 1
41 43 m 1
 39 43 l 1
 39 41 l 1
 41 41 l 1
 41 43 l 1
23 35 m 1
 21 35 l 1
 21 33 l 1
 23 33 l 1
 23 35 l 1
25 35 m 1
 24 35 l 1
 24 33 l 1
 26 33 l 1
 26 34 l 1
 25 34 l 1
 25 35 l 1
23 31 m 1
 21 31 l 1
 21 29 l 1
 23 29 l 1
 23 31 l 1
23 27 m 1
 21 27 l 1
 21 25 l 1
 23 25 l 1
 23 27 l 1
26 27 m 1
 24 27 l 1
 24 25 l 1
 25 25 l 1
 25 26 l 1
 26 26 l 1
 26 27 l 1
31 39 m 1
 29 39 l 1
 29 37 l 1
 31 37 l 1
 31 39 l 1
28 35 m 1
 26 35 l 1
 26 34 l 1
 27 34 l 1
 27 33 l 1
 28 33 l 1
 28 35 l 1
31 35 m 1
 29 35 l 1
 29 33 l 1
 31 33 l 1
 31 35 l 1
36 37 m 1
 34 37 l 1
 34 35 l 1
 36 35 l 1
 36 37 l 1
41 39 m 1
 39 39 l 1
 39 37 l 1
 41 37 l 1
 41 39 l 1
36 33 m 1
 34 33 l 1
 34 31 l 1
 36 31 l 1
 36 33 l 1
41 35 m 1
 39 35 l 1
 39 33 l 1
 41 33 l 1
 41 35 l 1
27 26 m 1
 26 26 l 1
 26 25 l 1
 28 25 l 1
 28 27 l 1
 27 27 l 1
 27 26 l 1
31 27 m 1
 29 27 l 1
 29 25 l 1
 31 25 l 1
 31 27 l 1
41 27 m 1
 39 27 l 1
 39 25 l 1
 41 25 l 1
 41 27 l 1
44 43 m 1
 42 43 l 1
 42 41 l 1
 43 41 l 1
 43 42 l 1
 44 42 l 1
 44 43 l 1
45 42 m 1
 44 42 l 1
 44 41 l 1
 46 41 l 1
 46 43 l 1
 45 43 l 1
 45 42 l 1
49 43 m 1
 47 43 l 1
 47 41 l 1
 49 41 l 1
 49 43 l 1
55 43 m 1
 53 43 l 1
 53 41 l 1
 55 41 l 1
 55 43 l 1
58 43 m 1
 56 43 l 1
 56 41 l 1
 57 41 l 1
 57 42 l 1
 58 42 l 1
 58 43 l 1
59 42 m 1
 58 42 l 1
 58 41 l 1
 60 41 l 1
 60 43 l 1
 59 43 l 1
 59 42 l 1
63 43 m 1
 61 43 l 1
 61 41 l 1
 63 41 l 1
 63 43 l 1
43 35 m 1
 42 35 l 1
 42 33 l 1
 44 33 l 1
 44 34 l 1
 43 34 l 1
 43 35 l 1
46 35 m 1
 44 35 l 1
 44 34 l 1
 45 34 l 1
 45 33 l 1
 46 33 l 1
 46 35 l 1
49 35 m 1
 47 35 l 1
 47 33 l 1
 49 33 l 1
 49 35 l 1
55 39 m 1
 53 39 l 1
 53 37 l 1
 55 37 l 1
 55 39 l 1
55 35 m 1
 53 35 l 1
 53 33 l 1
 55 33 l 1
 55 35 l 1
57 35 m 1
 56 35 l 1
 56 33 l 1
 58 33 l 1
 58 34 l 1
 57 34 l 1
 57 35 l 1
49 31 m 1
 47 31 l 1
 47 29 l 1
 49 29 l 1
 49 31 l 1
44 27 m 1
 42 27 l 1
 42 25 l 1
 43 25 l 1
 43 26 l 1
 44 26 l 1
 44 27 l 1
45 26 m 1
 44 26 l 1
 44 25 l 1
 46 25 l 1
 46 27 l 1
 45 27 l 1
 45 26 l 1
49 27 m 1
 47 27 l 1
 47 25 l 1
 49 25 l 1
 49 27 l 1
55 31 m 1
 53 31 l 1
 53 29 l 1
 55 29 l 1
 55 31 l 1
55 27 m 1
 53 27 l 1
 53 25 l 1
 55 25 l 1
 55 27 l 1
58 27 m 1
 56 27 l 1
 56 25 l 1
 57 25 l 1
 57 26 l 1
 58 26 l 1
 58 27 l 1
60 35 m 1
 58 35 l 1
 58 34 l 1
 59 34 l 1
 59 33 l 1
 60 33 l 1
 60 35 l 1
63 35 m 1
 61 35 l 1
 61 33 l 1
 63 33 l 1
 63 35 l 1
63 31 m 1
 61 31 l 1
 61 29 l 1
 63 29 l 1
 63 31 l 1
59 26 m 1
 58 26 l 1
 58 25 l 1
 60 25 l 1
 60 27 l 1
 59 27 l 1
 59 26 l 1
63 27 m 1
 61 27 l 1
 61 25 l 1
 63 25 l 1
 63 27 l 1
EndSplineSet
EndChar

StartChar: custom_5_6_0_2_2
Encoding: 36790 36790 16822
Width: 70
Flags: H
LayerCount: 2
Fore
SplineSet
23 43 m 1
 21 43 l 1
 21 41 l 1
 23 41 l 1
 23 43 l 1
26 43 m 1
 24 43 l 1
 24 41 l 1
 25 41 l 1
 25 42 l 1
 26 42 l 1
 26 43 l 1
27 42 m 1
 26 42 l 1
 26 41 l 1
 28 41 l 1
 28 43 l 1
 27 43 l 1
 27 42 l 1
31 43 m 1
 29 43 l 1
 29 41 l 1
 31 41 l 1
 31 43 l 1
41 43 m 1
 39 43 l 1
 39 41 l 1
 41 41 l 1
 41 43 l 1
23 35 m 1
 21 35 l 1
 21 33 l 1
 23 33 l 1
 23 35 l 1
25 35 m 1
 24 35 l 1
 24 33 l 1
 26 33 l 1
 26 34 l 1
 25 34 l 1
 25 35 l 1
23 31 m 1
 21 31 l 1
 21 29 l 1
 23 29 l 1
 23 31 l 1
23 27 m 1
 21 27 l 1
 21 25 l 1
 23 25 l 1
 23 27 l 1
26 27 m 1
 24 27 l 1
 24 25 l 1
 25 25 l 1
 25 26 l 1
 26 26 l 1
 26 27 l 1
31 39 m 1
 29 39 l 1
 29 37 l 1
 31 37 l 1
 31 39 l 1
28 35 m 1
 26 35 l 1
 26 34 l 1
 27 34 l 1
 27 33 l 1
 28 33 l 1
 28 35 l 1
31 35 m 1
 29 35 l 1
 29 33 l 1
 31 33 l 1
 31 35 l 1
36 37 m 1
 34 37 l 1
 34 35 l 1
 36 35 l 1
 36 37 l 1
41 39 m 1
 39 39 l 1
 39 37 l 1
 41 37 l 1
 41 39 l 1
36 33 m 1
 34 33 l 1
 34 31 l 1
 36 31 l 1
 36 33 l 1
41 35 m 1
 39 35 l 1
 39 33 l 1
 41 33 l 1
 41 35 l 1
27 26 m 1
 26 26 l 1
 26 25 l 1
 28 25 l 1
 28 27 l 1
 27 27 l 1
 27 26 l 1
31 27 m 1
 29 27 l 1
 29 25 l 1
 31 25 l 1
 31 27 l 1
41 27 m 1
 39 27 l 1
 39 25 l 1
 41 25 l 1
 41 27 l 1
44 43 m 1
 42 43 l 1
 42 41 l 1
 43 41 l 1
 43 42 l 1
 44 42 l 1
 44 43 l 1
45 42 m 1
 44 42 l 1
 44 41 l 1
 46 41 l 1
 46 43 l 1
 45 43 l 1
 45 42 l 1
49 43 m 1
 47 43 l 1
 47 41 l 1
 49 41 l 1
 49 43 l 1
55 43 m 1
 53 43 l 1
 53 41 l 1
 55 41 l 1
 55 43 l 1
58 43 m 1
 56 43 l 1
 56 41 l 1
 57 41 l 1
 57 42 l 1
 58 42 l 1
 58 43 l 1
59 42 m 1
 58 42 l 1
 58 41 l 1
 60 41 l 1
 60 43 l 1
 59 43 l 1
 59 42 l 1
63 43 m 1
 61 43 l 1
 61 41 l 1
 63 41 l 1
 63 43 l 1
43 35 m 1
 42 35 l 1
 42 33 l 1
 44 33 l 1
 44 34 l 1
 43 34 l 1
 43 35 l 1
46 35 m 1
 44 35 l 1
 44 34 l 1
 45 34 l 1
 45 33 l 1
 46 33 l 1
 46 35 l 1
49 35 m 1
 47 35 l 1
 47 33 l 1
 49 33 l 1
 49 35 l 1
55 39 m 1
 53 39 l 1
 53 37 l 1
 55 37 l 1
 55 39 l 1
55 35 m 1
 53 35 l 1
 53 33 l 1
 55 33 l 1
 55 35 l 1
57 35 m 1
 56 35 l 1
 56 33 l 1
 58 33 l 1
 58 34 l 1
 57 34 l 1
 57 35 l 1
49 31 m 1
 47 31 l 1
 47 29 l 1
 49 29 l 1
 49 31 l 1
44 27 m 1
 42 27 l 1
 42 25 l 1
 43 25 l 1
 43 26 l 1
 44 26 l 1
 44 27 l 1
45 26 m 1
 44 26 l 1
 44 25 l 1
 46 25 l 1
 46 27 l 1
 45 27 l 1
 45 26 l 1
49 27 m 1
 47 27 l 1
 47 25 l 1
 49 25 l 1
 49 27 l 1
55 31 m 1
 53 31 l 1
 53 29 l 1
 55 29 l 1
 55 31 l 1
55 27 m 1
 53 27 l 1
 53 25 l 1
 55 25 l 1
 55 27 l 1
58 27 m 1
 56 27 l 1
 56 25 l 1
 57 25 l 1
 57 26 l 1
 58 26 l 1
 58 27 l 1
60 35 m 1
 58 35 l 1
 58 34 l 1
 59 34 l 1
 59 33 l 1
 60 33 l 1
 60 35 l 1
63 35 m 1
 61 35 l 1
 61 33 l 1
 63 33 l 1
 63 35 l 1
63 31 m 1
 61 31 l 1
 61 29 l 1
 63 29 l 1
 63 31 l 1
59 26 m 1
 58 26 l 1
 58 25 l 1
 60 25 l 1
 60 27 l 1
 59 27 l 1
 59 26 l 1
63 27 m 1
 61 27 l 1
 61 25 l 1
 63 25 l 1
 63 27 l 1
EndSplineSet
EndChar

StartChar: custom_5_6_0_2_3
Encoding: 36791 36791 16823
Width: 70
Flags: H
LayerCount: 2
Fore
SplineSet
23 43 m 1
 21 43 l 1
 21 41 l 1
 23 41 l 1
 23 43 l 1
26 43 m 1
 24 43 l 1
 24 41 l 1
 25 41 l 1
 25 42 l 1
 26 42 l 1
 26 43 l 1
27 42 m 1
 26 42 l 1
 26 41 l 1
 28 41 l 1
 28 43 l 1
 27 43 l 1
 27 42 l 1
31 43 m 1
 29 43 l 1
 29 41 l 1
 31 41 l 1
 31 43 l 1
41 43 m 1
 39 43 l 1
 39 41 l 1
 41 41 l 1
 41 43 l 1
23 35 m 1
 21 35 l 1
 21 33 l 1
 23 33 l 1
 23 35 l 1
25 35 m 1
 24 35 l 1
 24 33 l 1
 26 33 l 1
 26 34 l 1
 25 34 l 1
 25 35 l 1
23 31 m 1
 21 31 l 1
 21 29 l 1
 23 29 l 1
 23 31 l 1
23 27 m 1
 21 27 l 1
 21 25 l 1
 23 25 l 1
 23 27 l 1
26 27 m 1
 24 27 l 1
 24 25 l 1
 25 25 l 1
 25 26 l 1
 26 26 l 1
 26 27 l 1
31 39 m 1
 29 39 l 1
 29 37 l 1
 31 37 l 1
 31 39 l 1
28 35 m 1
 26 35 l 1
 26 34 l 1
 27 34 l 1
 27 33 l 1
 28 33 l 1
 28 35 l 1
31 35 m 1
 29 35 l 1
 29 33 l 1
 31 33 l 1
 31 35 l 1
36 37 m 1
 34 37 l 1
 34 35 l 1
 36 35 l 1
 36 37 l 1
41 39 m 1
 39 39 l 1
 39 37 l 1
 41 37 l 1
 41 39 l 1
36 33 m 1
 34 33 l 1
 34 31 l 1
 36 31 l 1
 36 33 l 1
41 35 m 1
 39 35 l 1
 39 33 l 1
 41 33 l 1
 41 35 l 1
27 26 m 1
 26 26 l 1
 26 25 l 1
 28 25 l 1
 28 27 l 1
 27 27 l 1
 27 26 l 1
31 27 m 1
 29 27 l 1
 29 25 l 1
 31 25 l 1
 31 27 l 1
41 27 m 1
 39 27 l 1
 39 25 l 1
 41 25 l 1
 41 27 l 1
44 43 m 1
 42 43 l 1
 42 41 l 1
 43 41 l 1
 43 42 l 1
 44 42 l 1
 44 43 l 1
45 42 m 1
 44 42 l 1
 44 41 l 1
 46 41 l 1
 46 43 l 1
 45 43 l 1
 45 42 l 1
49 43 m 1
 47 43 l 1
 47 41 l 1
 49 41 l 1
 49 43 l 1
55 43 m 1
 53 43 l 1
 53 41 l 1
 55 41 l 1
 55 43 l 1
58 43 m 1
 56 43 l 1
 56 41 l 1
 57 41 l 1
 57 42 l 1
 58 42 l 1
 58 43 l 1
59 42 m 1
 58 42 l 1
 58 41 l 1
 60 41 l 1
 60 43 l 1
 59 43 l 1
 59 42 l 1
63 43 m 1
 61 43 l 1
 61 41 l 1
 63 41 l 1
 63 43 l 1
43 35 m 1
 42 35 l 1
 42 33 l 1
 44 33 l 1
 44 34 l 1
 43 34 l 1
 43 35 l 1
46 35 m 1
 44 35 l 1
 44 34 l 1
 45 34 l 1
 45 33 l 1
 46 33 l 1
 46 35 l 1
49 35 m 1
 47 35 l 1
 47 33 l 1
 49 33 l 1
 49 35 l 1
55 39 m 1
 53 39 l 1
 53 37 l 1
 55 37 l 1
 55 39 l 1
55 35 m 1
 53 35 l 1
 53 33 l 1
 55 33 l 1
 55 35 l 1
57 35 m 1
 56 35 l 1
 56 33 l 1
 58 33 l 1
 58 34 l 1
 57 34 l 1
 57 35 l 1
49 31 m 1
 47 31 l 1
 47 29 l 1
 49 29 l 1
 49 31 l 1
44 27 m 1
 42 27 l 1
 42 25 l 1
 43 25 l 1
 43 26 l 1
 44 26 l 1
 44 27 l 1
45 26 m 1
 44 26 l 1
 44 25 l 1
 46 25 l 1
 46 27 l 1
 45 27 l 1
 45 26 l 1
49 27 m 1
 47 27 l 1
 47 25 l 1
 49 25 l 1
 49 27 l 1
55 31 m 1
 53 31 l 1
 53 29 l 1
 55 29 l 1
 55 31 l 1
55 27 m 1
 53 27 l 1
 53 25 l 1
 55 25 l 1
 55 27 l 1
58 27 m 1
 56 27 l 1
 56 25 l 1
 57 25 l 1
 57 26 l 1
 58 26 l 1
 58 27 l 1
60 35 m 1
 58 35 l 1
 58 34 l 1
 59 34 l 1
 59 33 l 1
 60 33 l 1
 60 35 l 1
63 35 m 1
 61 35 l 1
 61 33 l 1
 63 33 l 1
 63 35 l 1
63 31 m 1
 61 31 l 1
 61 29 l 1
 63 29 l 1
 63 31 l 1
59 26 m 1
 58 26 l 1
 58 25 l 1
 60 25 l 1
 60 27 l 1
 59 27 l 1
 59 26 l 1
63 27 m 1
 61 27 l 1
 61 25 l 1
 63 25 l 1
 63 27 l 1
EndSplineSet
EndChar

StartChar: custom_5_6_0_2_4
Encoding: 36792 36792 16824
Width: 70
Flags: H
LayerCount: 2
Fore
SplineSet
23 43 m 1
 21 43 l 1
 21 41 l 1
 23 41 l 1
 23 43 l 1
26 43 m 1
 24 43 l 1
 24 41 l 1
 25 41 l 1
 25 42 l 1
 26 42 l 1
 26 43 l 1
27 42 m 1
 26 42 l 1
 26 41 l 1
 28 41 l 1
 28 43 l 1
 27 43 l 1
 27 42 l 1
31 43 m 1
 29 43 l 1
 29 41 l 1
 31 41 l 1
 31 43 l 1
41 43 m 1
 39 43 l 1
 39 41 l 1
 41 41 l 1
 41 43 l 1
23 35 m 1
 21 35 l 1
 21 33 l 1
 23 33 l 1
 23 35 l 1
25 35 m 1
 24 35 l 1
 24 33 l 1
 26 33 l 1
 26 34 l 1
 25 34 l 1
 25 35 l 1
23 31 m 1
 21 31 l 1
 21 29 l 1
 23 29 l 1
 23 31 l 1
23 27 m 1
 21 27 l 1
 21 25 l 1
 23 25 l 1
 23 27 l 1
26 27 m 1
 24 27 l 1
 24 25 l 1
 25 25 l 1
 25 26 l 1
 26 26 l 1
 26 27 l 1
31 39 m 1
 29 39 l 1
 29 37 l 1
 31 37 l 1
 31 39 l 1
28 35 m 1
 26 35 l 1
 26 34 l 1
 27 34 l 1
 27 33 l 1
 28 33 l 1
 28 35 l 1
31 35 m 1
 29 35 l 1
 29 33 l 1
 31 33 l 1
 31 35 l 1
36 37 m 1
 34 37 l 1
 34 35 l 1
 36 35 l 1
 36 37 l 1
41 39 m 1
 39 39 l 1
 39 37 l 1
 41 37 l 1
 41 39 l 1
36 33 m 1
 34 33 l 1
 34 31 l 1
 36 31 l 1
 36 33 l 1
41 35 m 1
 39 35 l 1
 39 33 l 1
 41 33 l 1
 41 35 l 1
27 26 m 1
 26 26 l 1
 26 25 l 1
 28 25 l 1
 28 27 l 1
 27 27 l 1
 27 26 l 1
31 27 m 1
 29 27 l 1
 29 25 l 1
 31 25 l 1
 31 27 l 1
41 27 m 1
 39 27 l 1
 39 25 l 1
 41 25 l 1
 41 27 l 1
44 43 m 1
 42 43 l 1
 42 41 l 1
 43 41 l 1
 43 42 l 1
 44 42 l 1
 44 43 l 1
45 42 m 1
 44 42 l 1
 44 41 l 1
 46 41 l 1
 46 43 l 1
 45 43 l 1
 45 42 l 1
49 43 m 1
 47 43 l 1
 47 41 l 1
 49 41 l 1
 49 43 l 1
55 43 m 1
 53 43 l 1
 53 41 l 1
 55 41 l 1
 55 43 l 1
58 43 m 1
 56 43 l 1
 56 41 l 1
 57 41 l 1
 57 42 l 1
 58 42 l 1
 58 43 l 1
59 42 m 1
 58 42 l 1
 58 41 l 1
 60 41 l 1
 60 43 l 1
 59 43 l 1
 59 42 l 1
63 43 m 1
 61 43 l 1
 61 41 l 1
 63 41 l 1
 63 43 l 1
43 35 m 1
 42 35 l 1
 42 33 l 1
 44 33 l 1
 44 34 l 1
 43 34 l 1
 43 35 l 1
46 35 m 1
 44 35 l 1
 44 34 l 1
 45 34 l 1
 45 33 l 1
 46 33 l 1
 46 35 l 1
49 35 m 1
 47 35 l 1
 47 33 l 1
 49 33 l 1
 49 35 l 1
55 39 m 1
 53 39 l 1
 53 37 l 1
 55 37 l 1
 55 39 l 1
55 35 m 1
 53 35 l 1
 53 33 l 1
 55 33 l 1
 55 35 l 1
57 35 m 1
 56 35 l 1
 56 33 l 1
 58 33 l 1
 58 34 l 1
 57 34 l 1
 57 35 l 1
49 31 m 1
 47 31 l 1
 47 29 l 1
 49 29 l 1
 49 31 l 1
44 27 m 1
 42 27 l 1
 42 25 l 1
 43 25 l 1
 43 26 l 1
 44 26 l 1
 44 27 l 1
45 26 m 1
 44 26 l 1
 44 25 l 1
 46 25 l 1
 46 27 l 1
 45 27 l 1
 45 26 l 1
49 27 m 1
 47 27 l 1
 47 25 l 1
 49 25 l 1
 49 27 l 1
55 31 m 1
 53 31 l 1
 53 29 l 1
 55 29 l 1
 55 31 l 1
55 27 m 1
 53 27 l 1
 53 25 l 1
 55 25 l 1
 55 27 l 1
58 27 m 1
 56 27 l 1
 56 25 l 1
 57 25 l 1
 57 26 l 1
 58 26 l 1
 58 27 l 1
60 35 m 1
 58 35 l 1
 58 34 l 1
 59 34 l 1
 59 33 l 1
 60 33 l 1
 60 35 l 1
63 35 m 1
 61 35 l 1
 61 33 l 1
 63 33 l 1
 63 35 l 1
63 31 m 1
 61 31 l 1
 61 29 l 1
 63 29 l 1
 63 31 l 1
59 26 m 1
 58 26 l 1
 58 25 l 1
 60 25 l 1
 60 27 l 1
 59 27 l 1
 59 26 l 1
63 27 m 1
 61 27 l 1
 61 25 l 1
 63 25 l 1
 63 27 l 1
EndSplineSet
EndChar

StartChar: custom_5_6_0_2_5
Encoding: 36793 36793 16825
Width: 70
Flags: H
LayerCount: 2
Fore
SplineSet
23 43 m 1
 21 43 l 1
 21 41 l 1
 23 41 l 1
 23 43 l 1
26 43 m 1
 24 43 l 1
 24 41 l 1
 25 41 l 1
 25 42 l 1
 26 42 l 1
 26 43 l 1
27 42 m 1
 26 42 l 1
 26 41 l 1
 28 41 l 1
 28 43 l 1
 27 43 l 1
 27 42 l 1
31 43 m 1
 29 43 l 1
 29 41 l 1
 31 41 l 1
 31 43 l 1
41 43 m 1
 39 43 l 1
 39 41 l 1
 41 41 l 1
 41 43 l 1
23 35 m 1
 21 35 l 1
 21 33 l 1
 23 33 l 1
 23 35 l 1
25 35 m 1
 24 35 l 1
 24 33 l 1
 26 33 l 1
 26 34 l 1
 25 34 l 1
 25 35 l 1
23 31 m 1
 21 31 l 1
 21 29 l 1
 23 29 l 1
 23 31 l 1
23 27 m 1
 21 27 l 1
 21 25 l 1
 23 25 l 1
 23 27 l 1
26 27 m 1
 24 27 l 1
 24 25 l 1
 25 25 l 1
 25 26 l 1
 26 26 l 1
 26 27 l 1
31 39 m 1
 29 39 l 1
 29 37 l 1
 31 37 l 1
 31 39 l 1
28 35 m 1
 26 35 l 1
 26 34 l 1
 27 34 l 1
 27 33 l 1
 28 33 l 1
 28 35 l 1
31 35 m 1
 29 35 l 1
 29 33 l 1
 31 33 l 1
 31 35 l 1
36 37 m 1
 34 37 l 1
 34 35 l 1
 36 35 l 1
 36 37 l 1
41 39 m 1
 39 39 l 1
 39 37 l 1
 41 37 l 1
 41 39 l 1
36 33 m 1
 34 33 l 1
 34 31 l 1
 36 31 l 1
 36 33 l 1
41 35 m 1
 39 35 l 1
 39 33 l 1
 41 33 l 1
 41 35 l 1
27 26 m 1
 26 26 l 1
 26 25 l 1
 28 25 l 1
 28 27 l 1
 27 27 l 1
 27 26 l 1
31 27 m 1
 29 27 l 1
 29 25 l 1
 31 25 l 1
 31 27 l 1
41 27 m 1
 39 27 l 1
 39 25 l 1
 41 25 l 1
 41 27 l 1
44 43 m 1
 42 43 l 1
 42 41 l 1
 43 41 l 1
 43 42 l 1
 44 42 l 1
 44 43 l 1
45 42 m 1
 44 42 l 1
 44 41 l 1
 46 41 l 1
 46 43 l 1
 45 43 l 1
 45 42 l 1
49 43 m 1
 47 43 l 1
 47 41 l 1
 49 41 l 1
 49 43 l 1
55 43 m 1
 53 43 l 1
 53 41 l 1
 55 41 l 1
 55 43 l 1
58 43 m 1
 56 43 l 1
 56 41 l 1
 57 41 l 1
 57 42 l 1
 58 42 l 1
 58 43 l 1
59 42 m 1
 58 42 l 1
 58 41 l 1
 60 41 l 1
 60 43 l 1
 59 43 l 1
 59 42 l 1
63 43 m 1
 61 43 l 1
 61 41 l 1
 63 41 l 1
 63 43 l 1
43 35 m 1
 42 35 l 1
 42 33 l 1
 44 33 l 1
 44 34 l 1
 43 34 l 1
 43 35 l 1
46 35 m 1
 44 35 l 1
 44 34 l 1
 45 34 l 1
 45 33 l 1
 46 33 l 1
 46 35 l 1
49 35 m 1
 47 35 l 1
 47 33 l 1
 49 33 l 1
 49 35 l 1
55 39 m 1
 53 39 l 1
 53 37 l 1
 55 37 l 1
 55 39 l 1
55 35 m 1
 53 35 l 1
 53 33 l 1
 55 33 l 1
 55 35 l 1
57 35 m 1
 56 35 l 1
 56 33 l 1
 58 33 l 1
 58 34 l 1
 57 34 l 1
 57 35 l 1
49 31 m 1
 47 31 l 1
 47 29 l 1
 49 29 l 1
 49 31 l 1
44 27 m 1
 42 27 l 1
 42 25 l 1
 43 25 l 1
 43 26 l 1
 44 26 l 1
 44 27 l 1
45 26 m 1
 44 26 l 1
 44 25 l 1
 46 25 l 1
 46 27 l 1
 45 27 l 1
 45 26 l 1
49 27 m 1
 47 27 l 1
 47 25 l 1
 49 25 l 1
 49 27 l 1
55 31 m 1
 53 31 l 1
 53 29 l 1
 55 29 l 1
 55 31 l 1
55 27 m 1
 53 27 l 1
 53 25 l 1
 55 25 l 1
 55 27 l 1
58 27 m 1
 56 27 l 1
 56 25 l 1
 57 25 l 1
 57 26 l 1
 58 26 l 1
 58 27 l 1
60 35 m 1
 58 35 l 1
 58 34 l 1
 59 34 l 1
 59 33 l 1
 60 33 l 1
 60 35 l 1
63 35 m 1
 61 35 l 1
 61 33 l 1
 63 33 l 1
 63 35 l 1
63 31 m 1
 61 31 l 1
 61 29 l 1
 63 29 l 1
 63 31 l 1
59 26 m 1
 58 26 l 1
 58 25 l 1
 60 25 l 1
 60 27 l 1
 59 27 l 1
 59 26 l 1
63 27 m 1
 61 27 l 1
 61 25 l 1
 63 25 l 1
 63 27 l 1
EndSplineSet
EndChar

StartChar: custom_5_6_0_2_6
Encoding: 36794 36794 16826
Width: 70
Flags: H
LayerCount: 2
Fore
SplineSet
23 43 m 1
 21 43 l 1
 21 41 l 1
 23 41 l 1
 23 43 l 1
26 43 m 1
 24 43 l 1
 24 41 l 1
 25 41 l 1
 25 42 l 1
 26 42 l 1
 26 43 l 1
27 42 m 1
 26 42 l 1
 26 41 l 1
 28 41 l 1
 28 43 l 1
 27 43 l 1
 27 42 l 1
31 43 m 1
 29 43 l 1
 29 41 l 1
 31 41 l 1
 31 43 l 1
41 43 m 1
 39 43 l 1
 39 41 l 1
 41 41 l 1
 41 43 l 1
23 35 m 1
 21 35 l 1
 21 33 l 1
 23 33 l 1
 23 35 l 1
25 35 m 1
 24 35 l 1
 24 33 l 1
 26 33 l 1
 26 34 l 1
 25 34 l 1
 25 35 l 1
23 31 m 1
 21 31 l 1
 21 29 l 1
 23 29 l 1
 23 31 l 1
23 27 m 1
 21 27 l 1
 21 25 l 1
 23 25 l 1
 23 27 l 1
26 27 m 1
 24 27 l 1
 24 25 l 1
 25 25 l 1
 25 26 l 1
 26 26 l 1
 26 27 l 1
31 39 m 1
 29 39 l 1
 29 37 l 1
 31 37 l 1
 31 39 l 1
28 35 m 1
 26 35 l 1
 26 34 l 1
 27 34 l 1
 27 33 l 1
 28 33 l 1
 28 35 l 1
31 35 m 1
 29 35 l 1
 29 33 l 1
 31 33 l 1
 31 35 l 1
36 37 m 1
 34 37 l 1
 34 35 l 1
 36 35 l 1
 36 37 l 1
41 39 m 1
 39 39 l 1
 39 37 l 1
 41 37 l 1
 41 39 l 1
36 33 m 1
 34 33 l 1
 34 31 l 1
 36 31 l 1
 36 33 l 1
41 35 m 1
 39 35 l 1
 39 33 l 1
 41 33 l 1
 41 35 l 1
27 26 m 1
 26 26 l 1
 26 25 l 1
 28 25 l 1
 28 27 l 1
 27 27 l 1
 27 26 l 1
31 27 m 1
 29 27 l 1
 29 25 l 1
 31 25 l 1
 31 27 l 1
41 27 m 1
 39 27 l 1
 39 25 l 1
 41 25 l 1
 41 27 l 1
44 43 m 1
 42 43 l 1
 42 41 l 1
 43 41 l 1
 43 42 l 1
 44 42 l 1
 44 43 l 1
45 42 m 1
 44 42 l 1
 44 41 l 1
 46 41 l 1
 46 43 l 1
 45 43 l 1
 45 42 l 1
49 43 m 1
 47 43 l 1
 47 41 l 1
 49 41 l 1
 49 43 l 1
55 43 m 1
 53 43 l 1
 53 41 l 1
 55 41 l 1
 55 43 l 1
58 43 m 1
 56 43 l 1
 56 41 l 1
 57 41 l 1
 57 42 l 1
 58 42 l 1
 58 43 l 1
59 42 m 1
 58 42 l 1
 58 41 l 1
 60 41 l 1
 60 43 l 1
 59 43 l 1
 59 42 l 1
63 43 m 1
 61 43 l 1
 61 41 l 1
 63 41 l 1
 63 43 l 1
43 35 m 1
 42 35 l 1
 42 33 l 1
 44 33 l 1
 44 34 l 1
 43 34 l 1
 43 35 l 1
46 35 m 1
 44 35 l 1
 44 34 l 1
 45 34 l 1
 45 33 l 1
 46 33 l 1
 46 35 l 1
49 35 m 1
 47 35 l 1
 47 33 l 1
 49 33 l 1
 49 35 l 1
55 39 m 1
 53 39 l 1
 53 37 l 1
 55 37 l 1
 55 39 l 1
55 35 m 1
 53 35 l 1
 53 33 l 1
 55 33 l 1
 55 35 l 1
57 35 m 1
 56 35 l 1
 56 33 l 1
 58 33 l 1
 58 34 l 1
 57 34 l 1
 57 35 l 1
49 31 m 1
 47 31 l 1
 47 29 l 1
 49 29 l 1
 49 31 l 1
44 27 m 1
 42 27 l 1
 42 25 l 1
 43 25 l 1
 43 26 l 1
 44 26 l 1
 44 27 l 1
45 26 m 1
 44 26 l 1
 44 25 l 1
 46 25 l 1
 46 27 l 1
 45 27 l 1
 45 26 l 1
49 27 m 1
 47 27 l 1
 47 25 l 1
 49 25 l 1
 49 27 l 1
55 31 m 1
 53 31 l 1
 53 29 l 1
 55 29 l 1
 55 31 l 1
55 27 m 1
 53 27 l 1
 53 25 l 1
 55 25 l 1
 55 27 l 1
58 27 m 1
 56 27 l 1
 56 25 l 1
 57 25 l 1
 57 26 l 1
 58 26 l 1
 58 27 l 1
60 35 m 1
 58 35 l 1
 58 34 l 1
 59 34 l 1
 59 33 l 1
 60 33 l 1
 60 35 l 1
63 35 m 1
 61 35 l 1
 61 33 l 1
 63 33 l 1
 63 35 l 1
63 31 m 1
 61 31 l 1
 61 29 l 1
 63 29 l 1
 63 31 l 1
59 26 m 1
 58 26 l 1
 58 25 l 1
 60 25 l 1
 60 27 l 1
 59 27 l 1
 59 26 l 1
63 27 m 1
 61 27 l 1
 61 25 l 1
 63 25 l 1
 63 27 l 1
EndSplineSet
EndChar

StartChar: custom_5_6_0_2_7
Encoding: 36795 36795 16827
Width: 70
Flags: H
LayerCount: 2
Fore
SplineSet
23 43 m 1
 21 43 l 1
 21 41 l 1
 23 41 l 1
 23 43 l 1
26 43 m 1
 24 43 l 1
 24 41 l 1
 25 41 l 1
 25 42 l 1
 26 42 l 1
 26 43 l 1
27 42 m 1
 26 42 l 1
 26 41 l 1
 28 41 l 1
 28 43 l 1
 27 43 l 1
 27 42 l 1
31 43 m 1
 29 43 l 1
 29 41 l 1
 31 41 l 1
 31 43 l 1
41 43 m 1
 39 43 l 1
 39 41 l 1
 41 41 l 1
 41 43 l 1
23 35 m 1
 21 35 l 1
 21 33 l 1
 23 33 l 1
 23 35 l 1
25 35 m 1
 24 35 l 1
 24 33 l 1
 26 33 l 1
 26 34 l 1
 25 34 l 1
 25 35 l 1
23 31 m 1
 21 31 l 1
 21 29 l 1
 23 29 l 1
 23 31 l 1
23 27 m 1
 21 27 l 1
 21 25 l 1
 23 25 l 1
 23 27 l 1
26 27 m 1
 24 27 l 1
 24 25 l 1
 25 25 l 1
 25 26 l 1
 26 26 l 1
 26 27 l 1
31 39 m 1
 29 39 l 1
 29 37 l 1
 31 37 l 1
 31 39 l 1
28 35 m 1
 26 35 l 1
 26 34 l 1
 27 34 l 1
 27 33 l 1
 28 33 l 1
 28 35 l 1
31 35 m 1
 29 35 l 1
 29 33 l 1
 31 33 l 1
 31 35 l 1
36 37 m 1
 34 37 l 1
 34 35 l 1
 36 35 l 1
 36 37 l 1
41 39 m 1
 39 39 l 1
 39 37 l 1
 41 37 l 1
 41 39 l 1
36 33 m 1
 34 33 l 1
 34 31 l 1
 36 31 l 1
 36 33 l 1
41 35 m 1
 39 35 l 1
 39 33 l 1
 41 33 l 1
 41 35 l 1
27 26 m 1
 26 26 l 1
 26 25 l 1
 28 25 l 1
 28 27 l 1
 27 27 l 1
 27 26 l 1
31 27 m 1
 29 27 l 1
 29 25 l 1
 31 25 l 1
 31 27 l 1
41 27 m 1
 39 27 l 1
 39 25 l 1
 41 25 l 1
 41 27 l 1
44 43 m 1
 42 43 l 1
 42 41 l 1
 43 41 l 1
 43 42 l 1
 44 42 l 1
 44 43 l 1
45 42 m 1
 44 42 l 1
 44 41 l 1
 46 41 l 1
 46 43 l 1
 45 43 l 1
 45 42 l 1
49 43 m 1
 47 43 l 1
 47 41 l 1
 49 41 l 1
 49 43 l 1
55 43 m 1
 53 43 l 1
 53 41 l 1
 55 41 l 1
 55 43 l 1
58 43 m 1
 56 43 l 1
 56 41 l 1
 57 41 l 1
 57 42 l 1
 58 42 l 1
 58 43 l 1
59 42 m 1
 58 42 l 1
 58 41 l 1
 60 41 l 1
 60 43 l 1
 59 43 l 1
 59 42 l 1
63 43 m 1
 61 43 l 1
 61 41 l 1
 63 41 l 1
 63 43 l 1
43 35 m 1
 42 35 l 1
 42 33 l 1
 44 33 l 1
 44 34 l 1
 43 34 l 1
 43 35 l 1
46 35 m 1
 44 35 l 1
 44 34 l 1
 45 34 l 1
 45 33 l 1
 46 33 l 1
 46 35 l 1
49 35 m 1
 47 35 l 1
 47 33 l 1
 49 33 l 1
 49 35 l 1
55 39 m 1
 53 39 l 1
 53 37 l 1
 55 37 l 1
 55 39 l 1
55 35 m 1
 53 35 l 1
 53 33 l 1
 55 33 l 1
 55 35 l 1
57 35 m 1
 56 35 l 1
 56 33 l 1
 58 33 l 1
 58 34 l 1
 57 34 l 1
 57 35 l 1
49 31 m 1
 47 31 l 1
 47 29 l 1
 49 29 l 1
 49 31 l 1
44 27 m 1
 42 27 l 1
 42 25 l 1
 43 25 l 1
 43 26 l 1
 44 26 l 1
 44 27 l 1
45 26 m 1
 44 26 l 1
 44 25 l 1
 46 25 l 1
 46 27 l 1
 45 27 l 1
 45 26 l 1
49 27 m 1
 47 27 l 1
 47 25 l 1
 49 25 l 1
 49 27 l 1
55 31 m 1
 53 31 l 1
 53 29 l 1
 55 29 l 1
 55 31 l 1
55 27 m 1
 53 27 l 1
 53 25 l 1
 55 25 l 1
 55 27 l 1
58 27 m 1
 56 27 l 1
 56 25 l 1
 57 25 l 1
 57 26 l 1
 58 26 l 1
 58 27 l 1
60 35 m 1
 58 35 l 1
 58 34 l 1
 59 34 l 1
 59 33 l 1
 60 33 l 1
 60 35 l 1
63 35 m 1
 61 35 l 1
 61 33 l 1
 63 33 l 1
 63 35 l 1
63 31 m 1
 61 31 l 1
 61 29 l 1
 63 29 l 1
 63 31 l 1
59 26 m 1
 58 26 l 1
 58 25 l 1
 60 25 l 1
 60 27 l 1
 59 27 l 1
 59 26 l 1
63 27 m 1
 61 27 l 1
 61 25 l 1
 63 25 l 1
 63 27 l 1
EndSplineSet
EndChar

StartChar: custom_5_6_0_2_8
Encoding: 36796 36796 16828
Width: 70
Flags: H
LayerCount: 2
Fore
SplineSet
23 43 m 1
 21 43 l 1
 21 41 l 1
 23 41 l 1
 23 43 l 1
26 43 m 1
 24 43 l 1
 24 41 l 1
 25 41 l 1
 25 42 l 1
 26 42 l 1
 26 43 l 1
27 42 m 1
 26 42 l 1
 26 41 l 1
 28 41 l 1
 28 43 l 1
 27 43 l 1
 27 42 l 1
31 43 m 1
 29 43 l 1
 29 41 l 1
 31 41 l 1
 31 43 l 1
41 43 m 1
 39 43 l 1
 39 41 l 1
 41 41 l 1
 41 43 l 1
23 35 m 1
 21 35 l 1
 21 33 l 1
 23 33 l 1
 23 35 l 1
25 35 m 1
 24 35 l 1
 24 33 l 1
 26 33 l 1
 26 34 l 1
 25 34 l 1
 25 35 l 1
23 31 m 1
 21 31 l 1
 21 29 l 1
 23 29 l 1
 23 31 l 1
23 27 m 1
 21 27 l 1
 21 25 l 1
 23 25 l 1
 23 27 l 1
26 27 m 1
 24 27 l 1
 24 25 l 1
 25 25 l 1
 25 26 l 1
 26 26 l 1
 26 27 l 1
31 39 m 1
 29 39 l 1
 29 37 l 1
 31 37 l 1
 31 39 l 1
28 35 m 1
 26 35 l 1
 26 34 l 1
 27 34 l 1
 27 33 l 1
 28 33 l 1
 28 35 l 1
31 35 m 1
 29 35 l 1
 29 33 l 1
 31 33 l 1
 31 35 l 1
36 37 m 1
 34 37 l 1
 34 35 l 1
 36 35 l 1
 36 37 l 1
41 39 m 1
 39 39 l 1
 39 37 l 1
 41 37 l 1
 41 39 l 1
36 33 m 1
 34 33 l 1
 34 31 l 1
 36 31 l 1
 36 33 l 1
41 35 m 1
 39 35 l 1
 39 33 l 1
 41 33 l 1
 41 35 l 1
27 26 m 1
 26 26 l 1
 26 25 l 1
 28 25 l 1
 28 27 l 1
 27 27 l 1
 27 26 l 1
31 27 m 1
 29 27 l 1
 29 25 l 1
 31 25 l 1
 31 27 l 1
41 27 m 1
 39 27 l 1
 39 25 l 1
 41 25 l 1
 41 27 l 1
44 43 m 1
 42 43 l 1
 42 41 l 1
 43 41 l 1
 43 42 l 1
 44 42 l 1
 44 43 l 1
45 42 m 1
 44 42 l 1
 44 41 l 1
 46 41 l 1
 46 43 l 1
 45 43 l 1
 45 42 l 1
49 43 m 1
 47 43 l 1
 47 41 l 1
 49 41 l 1
 49 43 l 1
55 43 m 1
 53 43 l 1
 53 41 l 1
 55 41 l 1
 55 43 l 1
58 43 m 1
 56 43 l 1
 56 41 l 1
 57 41 l 1
 57 42 l 1
 58 42 l 1
 58 43 l 1
59 42 m 1
 58 42 l 1
 58 41 l 1
 60 41 l 1
 60 43 l 1
 59 43 l 1
 59 42 l 1
63 43 m 1
 61 43 l 1
 61 41 l 1
 63 41 l 1
 63 43 l 1
43 35 m 1
 42 35 l 1
 42 33 l 1
 44 33 l 1
 44 34 l 1
 43 34 l 1
 43 35 l 1
46 35 m 1
 44 35 l 1
 44 34 l 1
 45 34 l 1
 45 33 l 1
 46 33 l 1
 46 35 l 1
49 35 m 1
 47 35 l 1
 47 33 l 1
 49 33 l 1
 49 35 l 1
55 39 m 1
 53 39 l 1
 53 37 l 1
 55 37 l 1
 55 39 l 1
55 35 m 1
 53 35 l 1
 53 33 l 1
 55 33 l 1
 55 35 l 1
57 35 m 1
 56 35 l 1
 56 33 l 1
 58 33 l 1
 58 34 l 1
 57 34 l 1
 57 35 l 1
49 31 m 1
 47 31 l 1
 47 29 l 1
 49 29 l 1
 49 31 l 1
44 27 m 1
 42 27 l 1
 42 25 l 1
 43 25 l 1
 43 26 l 1
 44 26 l 1
 44 27 l 1
45 26 m 1
 44 26 l 1
 44 25 l 1
 46 25 l 1
 46 27 l 1
 45 27 l 1
 45 26 l 1
49 27 m 1
 47 27 l 1
 47 25 l 1
 49 25 l 1
 49 27 l 1
55 31 m 1
 53 31 l 1
 53 29 l 1
 55 29 l 1
 55 31 l 1
55 27 m 1
 53 27 l 1
 53 25 l 1
 55 25 l 1
 55 27 l 1
58 27 m 1
 56 27 l 1
 56 25 l 1
 57 25 l 1
 57 26 l 1
 58 26 l 1
 58 27 l 1
60 35 m 1
 58 35 l 1
 58 34 l 1
 59 34 l 1
 59 33 l 1
 60 33 l 1
 60 35 l 1
63 35 m 1
 61 35 l 1
 61 33 l 1
 63 33 l 1
 63 35 l 1
63 31 m 1
 61 31 l 1
 61 29 l 1
 63 29 l 1
 63 31 l 1
59 26 m 1
 58 26 l 1
 58 25 l 1
 60 25 l 1
 60 27 l 1
 59 27 l 1
 59 26 l 1
63 27 m 1
 61 27 l 1
 61 25 l 1
 63 25 l 1
 63 27 l 1
EndSplineSet
EndChar

StartChar: custom_5_6_0_2_9
Encoding: 36797 36797 16829
Width: 70
Flags: H
LayerCount: 2
Fore
SplineSet
23 43 m 1
 21 43 l 1
 21 41 l 1
 23 41 l 1
 23 43 l 1
26 43 m 1
 24 43 l 1
 24 41 l 1
 25 41 l 1
 25 42 l 1
 26 42 l 1
 26 43 l 1
27 42 m 1
 26 42 l 1
 26 41 l 1
 28 41 l 1
 28 43 l 1
 27 43 l 1
 27 42 l 1
31 43 m 1
 29 43 l 1
 29 41 l 1
 31 41 l 1
 31 43 l 1
41 43 m 1
 39 43 l 1
 39 41 l 1
 41 41 l 1
 41 43 l 1
23 35 m 1
 21 35 l 1
 21 33 l 1
 23 33 l 1
 23 35 l 1
25 35 m 1
 24 35 l 1
 24 33 l 1
 26 33 l 1
 26 34 l 1
 25 34 l 1
 25 35 l 1
23 31 m 1
 21 31 l 1
 21 29 l 1
 23 29 l 1
 23 31 l 1
23 27 m 1
 21 27 l 1
 21 25 l 1
 23 25 l 1
 23 27 l 1
26 27 m 1
 24 27 l 1
 24 25 l 1
 25 25 l 1
 25 26 l 1
 26 26 l 1
 26 27 l 1
31 39 m 1
 29 39 l 1
 29 37 l 1
 31 37 l 1
 31 39 l 1
28 35 m 1
 26 35 l 1
 26 34 l 1
 27 34 l 1
 27 33 l 1
 28 33 l 1
 28 35 l 1
31 35 m 1
 29 35 l 1
 29 33 l 1
 31 33 l 1
 31 35 l 1
36 37 m 1
 34 37 l 1
 34 35 l 1
 36 35 l 1
 36 37 l 1
41 39 m 1
 39 39 l 1
 39 37 l 1
 41 37 l 1
 41 39 l 1
36 33 m 1
 34 33 l 1
 34 31 l 1
 36 31 l 1
 36 33 l 1
41 35 m 1
 39 35 l 1
 39 33 l 1
 41 33 l 1
 41 35 l 1
27 26 m 1
 26 26 l 1
 26 25 l 1
 28 25 l 1
 28 27 l 1
 27 27 l 1
 27 26 l 1
31 27 m 1
 29 27 l 1
 29 25 l 1
 31 25 l 1
 31 27 l 1
41 27 m 1
 39 27 l 1
 39 25 l 1
 41 25 l 1
 41 27 l 1
44 43 m 1
 42 43 l 1
 42 41 l 1
 43 41 l 1
 43 42 l 1
 44 42 l 1
 44 43 l 1
45 42 m 1
 44 42 l 1
 44 41 l 1
 46 41 l 1
 46 43 l 1
 45 43 l 1
 45 42 l 1
49 43 m 1
 47 43 l 1
 47 41 l 1
 49 41 l 1
 49 43 l 1
55 43 m 1
 53 43 l 1
 53 41 l 1
 55 41 l 1
 55 43 l 1
58 43 m 1
 56 43 l 1
 56 41 l 1
 57 41 l 1
 57 42 l 1
 58 42 l 1
 58 43 l 1
59 42 m 1
 58 42 l 1
 58 41 l 1
 60 41 l 1
 60 43 l 1
 59 43 l 1
 59 42 l 1
63 43 m 1
 61 43 l 1
 61 41 l 1
 63 41 l 1
 63 43 l 1
43 35 m 1
 42 35 l 1
 42 33 l 1
 44 33 l 1
 44 34 l 1
 43 34 l 1
 43 35 l 1
46 35 m 1
 44 35 l 1
 44 34 l 1
 45 34 l 1
 45 33 l 1
 46 33 l 1
 46 35 l 1
49 35 m 1
 47 35 l 1
 47 33 l 1
 49 33 l 1
 49 35 l 1
55 39 m 1
 53 39 l 1
 53 37 l 1
 55 37 l 1
 55 39 l 1
55 35 m 1
 53 35 l 1
 53 33 l 1
 55 33 l 1
 55 35 l 1
57 35 m 1
 56 35 l 1
 56 33 l 1
 58 33 l 1
 58 34 l 1
 57 34 l 1
 57 35 l 1
49 31 m 1
 47 31 l 1
 47 29 l 1
 49 29 l 1
 49 31 l 1
44 27 m 1
 42 27 l 1
 42 25 l 1
 43 25 l 1
 43 26 l 1
 44 26 l 1
 44 27 l 1
45 26 m 1
 44 26 l 1
 44 25 l 1
 46 25 l 1
 46 27 l 1
 45 27 l 1
 45 26 l 1
49 27 m 1
 47 27 l 1
 47 25 l 1
 49 25 l 1
 49 27 l 1
55 31 m 1
 53 31 l 1
 53 29 l 1
 55 29 l 1
 55 31 l 1
55 27 m 1
 53 27 l 1
 53 25 l 1
 55 25 l 1
 55 27 l 1
58 27 m 1
 56 27 l 1
 56 25 l 1
 57 25 l 1
 57 26 l 1
 58 26 l 1
 58 27 l 1
60 35 m 1
 58 35 l 1
 58 34 l 1
 59 34 l 1
 59 33 l 1
 60 33 l 1
 60 35 l 1
63 35 m 1
 61 35 l 1
 61 33 l 1
 63 33 l 1
 63 35 l 1
63 31 m 1
 61 31 l 1
 61 29 l 1
 63 29 l 1
 63 31 l 1
59 26 m 1
 58 26 l 1
 58 25 l 1
 60 25 l 1
 60 27 l 1
 59 27 l 1
 59 26 l 1
63 27 m 1
 61 27 l 1
 61 25 l 1
 63 25 l 1
 63 27 l 1
EndSplineSet
EndChar

StartChar: custom_5_6_0_3_0
Encoding: 36798 36798 16830
Width: 70
Flags: H
LayerCount: 2
Fore
SplineSet
23 43 m 1
 21 43 l 1
 21 41 l 1
 23 41 l 1
 23 43 l 1
26 43 m 1
 24 43 l 1
 24 41 l 1
 25 41 l 1
 25 42 l 1
 26 42 l 1
 26 43 l 1
27 42 m 1
 26 42 l 1
 26 41 l 1
 28 41 l 1
 28 43 l 1
 27 43 l 1
 27 42 l 1
31 43 m 1
 29 43 l 1
 29 41 l 1
 31 41 l 1
 31 43 l 1
41 43 m 1
 39 43 l 1
 39 41 l 1
 41 41 l 1
 41 43 l 1
23 35 m 1
 21 35 l 1
 21 33 l 1
 23 33 l 1
 23 35 l 1
25 35 m 1
 24 35 l 1
 24 33 l 1
 26 33 l 1
 26 34 l 1
 25 34 l 1
 25 35 l 1
23 31 m 1
 21 31 l 1
 21 29 l 1
 23 29 l 1
 23 31 l 1
23 27 m 1
 21 27 l 1
 21 25 l 1
 23 25 l 1
 23 27 l 1
26 27 m 1
 24 27 l 1
 24 25 l 1
 25 25 l 1
 25 26 l 1
 26 26 l 1
 26 27 l 1
31 39 m 1
 29 39 l 1
 29 37 l 1
 31 37 l 1
 31 39 l 1
28 35 m 1
 26 35 l 1
 26 34 l 1
 27 34 l 1
 27 33 l 1
 28 33 l 1
 28 35 l 1
31 35 m 1
 29 35 l 1
 29 33 l 1
 31 33 l 1
 31 35 l 1
36 37 m 1
 34 37 l 1
 34 35 l 1
 36 35 l 1
 36 37 l 1
41 39 m 1
 39 39 l 1
 39 37 l 1
 41 37 l 1
 41 39 l 1
36 33 m 1
 34 33 l 1
 34 31 l 1
 36 31 l 1
 36 33 l 1
41 35 m 1
 39 35 l 1
 39 33 l 1
 41 33 l 1
 41 35 l 1
27 26 m 1
 26 26 l 1
 26 25 l 1
 28 25 l 1
 28 27 l 1
 27 27 l 1
 27 26 l 1
31 27 m 1
 29 27 l 1
 29 25 l 1
 31 25 l 1
 31 27 l 1
41 27 m 1
 39 27 l 1
 39 25 l 1
 41 25 l 1
 41 27 l 1
44 43 m 1
 42 43 l 1
 42 41 l 1
 43 41 l 1
 43 42 l 1
 44 42 l 1
 44 43 l 1
45 42 m 1
 44 42 l 1
 44 41 l 1
 46 41 l 1
 46 43 l 1
 45 43 l 1
 45 42 l 1
49 43 m 1
 47 43 l 1
 47 41 l 1
 49 41 l 1
 49 43 l 1
55 43 m 1
 53 43 l 1
 53 41 l 1
 55 41 l 1
 55 43 l 1
58 43 m 1
 56 43 l 1
 56 41 l 1
 57 41 l 1
 57 42 l 1
 58 42 l 1
 58 43 l 1
59 42 m 1
 58 42 l 1
 58 41 l 1
 60 41 l 1
 60 43 l 1
 59 43 l 1
 59 42 l 1
63 43 m 1
 61 43 l 1
 61 41 l 1
 63 41 l 1
 63 43 l 1
43 35 m 1
 42 35 l 1
 42 33 l 1
 44 33 l 1
 44 34 l 1
 43 34 l 1
 43 35 l 1
46 35 m 1
 44 35 l 1
 44 34 l 1
 45 34 l 1
 45 33 l 1
 46 33 l 1
 46 35 l 1
49 35 m 1
 47 35 l 1
 47 33 l 1
 49 33 l 1
 49 35 l 1
55 39 m 1
 53 39 l 1
 53 37 l 1
 55 37 l 1
 55 39 l 1
55 35 m 1
 53 35 l 1
 53 33 l 1
 55 33 l 1
 55 35 l 1
57 35 m 1
 56 35 l 1
 56 33 l 1
 58 33 l 1
 58 34 l 1
 57 34 l 1
 57 35 l 1
49 31 m 1
 47 31 l 1
 47 29 l 1
 49 29 l 1
 49 31 l 1
44 27 m 1
 42 27 l 1
 42 25 l 1
 43 25 l 1
 43 26 l 1
 44 26 l 1
 44 27 l 1
45 26 m 1
 44 26 l 1
 44 25 l 1
 46 25 l 1
 46 27 l 1
 45 27 l 1
 45 26 l 1
49 27 m 1
 47 27 l 1
 47 25 l 1
 49 25 l 1
 49 27 l 1
55 31 m 1
 53 31 l 1
 53 29 l 1
 55 29 l 1
 55 31 l 1
55 27 m 1
 53 27 l 1
 53 25 l 1
 55 25 l 1
 55 27 l 1
58 27 m 1
 56 27 l 1
 56 25 l 1
 57 25 l 1
 57 26 l 1
 58 26 l 1
 58 27 l 1
60 35 m 1
 58 35 l 1
 58 34 l 1
 59 34 l 1
 59 33 l 1
 60 33 l 1
 60 35 l 1
63 35 m 1
 61 35 l 1
 61 33 l 1
 63 33 l 1
 63 35 l 1
63 31 m 1
 61 31 l 1
 61 29 l 1
 63 29 l 1
 63 31 l 1
59 26 m 1
 58 26 l 1
 58 25 l 1
 60 25 l 1
 60 27 l 1
 59 27 l 1
 59 26 l 1
63 27 m 1
 61 27 l 1
 61 25 l 1
 63 25 l 1
 63 27 l 1
EndSplineSet
EndChar

StartChar: custom_5_6_0_3_1
Encoding: 36799 36799 16831
Width: 70
Flags: H
LayerCount: 2
Fore
SplineSet
23 43 m 1
 21 43 l 1
 21 41 l 1
 23 41 l 1
 23 43 l 1
26 43 m 1
 24 43 l 1
 24 41 l 1
 25 41 l 1
 25 42 l 1
 26 42 l 1
 26 43 l 1
27 42 m 1
 26 42 l 1
 26 41 l 1
 28 41 l 1
 28 43 l 1
 27 43 l 1
 27 42 l 1
31 43 m 1
 29 43 l 1
 29 41 l 1
 31 41 l 1
 31 43 l 1
41 43 m 1
 39 43 l 1
 39 41 l 1
 41 41 l 1
 41 43 l 1
23 35 m 1
 21 35 l 1
 21 33 l 1
 23 33 l 1
 23 35 l 1
25 35 m 1
 24 35 l 1
 24 33 l 1
 26 33 l 1
 26 34 l 1
 25 34 l 1
 25 35 l 1
23 31 m 1
 21 31 l 1
 21 29 l 1
 23 29 l 1
 23 31 l 1
23 27 m 1
 21 27 l 1
 21 25 l 1
 23 25 l 1
 23 27 l 1
26 27 m 1
 24 27 l 1
 24 25 l 1
 25 25 l 1
 25 26 l 1
 26 26 l 1
 26 27 l 1
31 39 m 1
 29 39 l 1
 29 37 l 1
 31 37 l 1
 31 39 l 1
28 35 m 1
 26 35 l 1
 26 34 l 1
 27 34 l 1
 27 33 l 1
 28 33 l 1
 28 35 l 1
31 35 m 1
 29 35 l 1
 29 33 l 1
 31 33 l 1
 31 35 l 1
36 37 m 1
 34 37 l 1
 34 35 l 1
 36 35 l 1
 36 37 l 1
41 39 m 1
 39 39 l 1
 39 37 l 1
 41 37 l 1
 41 39 l 1
36 33 m 1
 34 33 l 1
 34 31 l 1
 36 31 l 1
 36 33 l 1
41 35 m 1
 39 35 l 1
 39 33 l 1
 41 33 l 1
 41 35 l 1
27 26 m 1
 26 26 l 1
 26 25 l 1
 28 25 l 1
 28 27 l 1
 27 27 l 1
 27 26 l 1
31 27 m 1
 29 27 l 1
 29 25 l 1
 31 25 l 1
 31 27 l 1
41 27 m 1
 39 27 l 1
 39 25 l 1
 41 25 l 1
 41 27 l 1
44 43 m 1
 42 43 l 1
 42 41 l 1
 43 41 l 1
 43 42 l 1
 44 42 l 1
 44 43 l 1
45 42 m 1
 44 42 l 1
 44 41 l 1
 46 41 l 1
 46 43 l 1
 45 43 l 1
 45 42 l 1
49 43 m 1
 47 43 l 1
 47 41 l 1
 49 41 l 1
 49 43 l 1
55 43 m 1
 53 43 l 1
 53 41 l 1
 55 41 l 1
 55 43 l 1
58 43 m 1
 56 43 l 1
 56 41 l 1
 57 41 l 1
 57 42 l 1
 58 42 l 1
 58 43 l 1
59 42 m 1
 58 42 l 1
 58 41 l 1
 60 41 l 1
 60 43 l 1
 59 43 l 1
 59 42 l 1
63 43 m 1
 61 43 l 1
 61 41 l 1
 63 41 l 1
 63 43 l 1
43 35 m 1
 42 35 l 1
 42 33 l 1
 44 33 l 1
 44 34 l 1
 43 34 l 1
 43 35 l 1
46 35 m 1
 44 35 l 1
 44 34 l 1
 45 34 l 1
 45 33 l 1
 46 33 l 1
 46 35 l 1
49 35 m 1
 47 35 l 1
 47 33 l 1
 49 33 l 1
 49 35 l 1
55 39 m 1
 53 39 l 1
 53 37 l 1
 55 37 l 1
 55 39 l 1
55 35 m 1
 53 35 l 1
 53 33 l 1
 55 33 l 1
 55 35 l 1
57 35 m 1
 56 35 l 1
 56 33 l 1
 58 33 l 1
 58 34 l 1
 57 34 l 1
 57 35 l 1
49 31 m 1
 47 31 l 1
 47 29 l 1
 49 29 l 1
 49 31 l 1
44 27 m 1
 42 27 l 1
 42 25 l 1
 43 25 l 1
 43 26 l 1
 44 26 l 1
 44 27 l 1
45 26 m 1
 44 26 l 1
 44 25 l 1
 46 25 l 1
 46 27 l 1
 45 27 l 1
 45 26 l 1
49 27 m 1
 47 27 l 1
 47 25 l 1
 49 25 l 1
 49 27 l 1
55 31 m 1
 53 31 l 1
 53 29 l 1
 55 29 l 1
 55 31 l 1
55 27 m 1
 53 27 l 1
 53 25 l 1
 55 25 l 1
 55 27 l 1
58 27 m 1
 56 27 l 1
 56 25 l 1
 57 25 l 1
 57 26 l 1
 58 26 l 1
 58 27 l 1
60 35 m 1
 58 35 l 1
 58 34 l 1
 59 34 l 1
 59 33 l 1
 60 33 l 1
 60 35 l 1
63 35 m 1
 61 35 l 1
 61 33 l 1
 63 33 l 1
 63 35 l 1
63 31 m 1
 61 31 l 1
 61 29 l 1
 63 29 l 1
 63 31 l 1
59 26 m 1
 58 26 l 1
 58 25 l 1
 60 25 l 1
 60 27 l 1
 59 27 l 1
 59 26 l 1
63 27 m 1
 61 27 l 1
 61 25 l 1
 63 25 l 1
 63 27 l 1
EndSplineSet
EndChar

StartChar: custom_5_6_0_3_2
Encoding: 36800 36800 16832
Width: 70
Flags: H
LayerCount: 2
Fore
SplineSet
23 43 m 1
 21 43 l 1
 21 41 l 1
 23 41 l 1
 23 43 l 1
26 43 m 1
 24 43 l 1
 24 41 l 1
 25 41 l 1
 25 42 l 1
 26 42 l 1
 26 43 l 1
27 42 m 1
 26 42 l 1
 26 41 l 1
 28 41 l 1
 28 43 l 1
 27 43 l 1
 27 42 l 1
31 43 m 1
 29 43 l 1
 29 41 l 1
 31 41 l 1
 31 43 l 1
41 43 m 1
 39 43 l 1
 39 41 l 1
 41 41 l 1
 41 43 l 1
23 35 m 1
 21 35 l 1
 21 33 l 1
 23 33 l 1
 23 35 l 1
25 35 m 1
 24 35 l 1
 24 33 l 1
 26 33 l 1
 26 34 l 1
 25 34 l 1
 25 35 l 1
23 31 m 1
 21 31 l 1
 21 29 l 1
 23 29 l 1
 23 31 l 1
23 27 m 1
 21 27 l 1
 21 25 l 1
 23 25 l 1
 23 27 l 1
26 27 m 1
 24 27 l 1
 24 25 l 1
 25 25 l 1
 25 26 l 1
 26 26 l 1
 26 27 l 1
31 39 m 1
 29 39 l 1
 29 37 l 1
 31 37 l 1
 31 39 l 1
28 35 m 1
 26 35 l 1
 26 34 l 1
 27 34 l 1
 27 33 l 1
 28 33 l 1
 28 35 l 1
31 35 m 1
 29 35 l 1
 29 33 l 1
 31 33 l 1
 31 35 l 1
36 37 m 1
 34 37 l 1
 34 35 l 1
 36 35 l 1
 36 37 l 1
41 39 m 1
 39 39 l 1
 39 37 l 1
 41 37 l 1
 41 39 l 1
36 33 m 1
 34 33 l 1
 34 31 l 1
 36 31 l 1
 36 33 l 1
41 35 m 1
 39 35 l 1
 39 33 l 1
 41 33 l 1
 41 35 l 1
27 26 m 1
 26 26 l 1
 26 25 l 1
 28 25 l 1
 28 27 l 1
 27 27 l 1
 27 26 l 1
31 27 m 1
 29 27 l 1
 29 25 l 1
 31 25 l 1
 31 27 l 1
41 27 m 1
 39 27 l 1
 39 25 l 1
 41 25 l 1
 41 27 l 1
44 43 m 1
 42 43 l 1
 42 41 l 1
 43 41 l 1
 43 42 l 1
 44 42 l 1
 44 43 l 1
45 42 m 1
 44 42 l 1
 44 41 l 1
 46 41 l 1
 46 43 l 1
 45 43 l 1
 45 42 l 1
49 43 m 1
 47 43 l 1
 47 41 l 1
 49 41 l 1
 49 43 l 1
55 43 m 1
 53 43 l 1
 53 41 l 1
 55 41 l 1
 55 43 l 1
58 43 m 1
 56 43 l 1
 56 41 l 1
 57 41 l 1
 57 42 l 1
 58 42 l 1
 58 43 l 1
59 42 m 1
 58 42 l 1
 58 41 l 1
 60 41 l 1
 60 43 l 1
 59 43 l 1
 59 42 l 1
63 43 m 1
 61 43 l 1
 61 41 l 1
 63 41 l 1
 63 43 l 1
43 35 m 1
 42 35 l 1
 42 33 l 1
 44 33 l 1
 44 34 l 1
 43 34 l 1
 43 35 l 1
46 35 m 1
 44 35 l 1
 44 34 l 1
 45 34 l 1
 45 33 l 1
 46 33 l 1
 46 35 l 1
49 35 m 1
 47 35 l 1
 47 33 l 1
 49 33 l 1
 49 35 l 1
55 39 m 1
 53 39 l 1
 53 37 l 1
 55 37 l 1
 55 39 l 1
55 35 m 1
 53 35 l 1
 53 33 l 1
 55 33 l 1
 55 35 l 1
57 35 m 1
 56 35 l 1
 56 33 l 1
 58 33 l 1
 58 34 l 1
 57 34 l 1
 57 35 l 1
49 31 m 1
 47 31 l 1
 47 29 l 1
 49 29 l 1
 49 31 l 1
44 27 m 1
 42 27 l 1
 42 25 l 1
 43 25 l 1
 43 26 l 1
 44 26 l 1
 44 27 l 1
45 26 m 1
 44 26 l 1
 44 25 l 1
 46 25 l 1
 46 27 l 1
 45 27 l 1
 45 26 l 1
49 27 m 1
 47 27 l 1
 47 25 l 1
 49 25 l 1
 49 27 l 1
55 31 m 1
 53 31 l 1
 53 29 l 1
 55 29 l 1
 55 31 l 1
55 27 m 1
 53 27 l 1
 53 25 l 1
 55 25 l 1
 55 27 l 1
58 27 m 1
 56 27 l 1
 56 25 l 1
 57 25 l 1
 57 26 l 1
 58 26 l 1
 58 27 l 1
60 35 m 1
 58 35 l 1
 58 34 l 1
 59 34 l 1
 59 33 l 1
 60 33 l 1
 60 35 l 1
63 35 m 1
 61 35 l 1
 61 33 l 1
 63 33 l 1
 63 35 l 1
63 31 m 1
 61 31 l 1
 61 29 l 1
 63 29 l 1
 63 31 l 1
59 26 m 1
 58 26 l 1
 58 25 l 1
 60 25 l 1
 60 27 l 1
 59 27 l 1
 59 26 l 1
63 27 m 1
 61 27 l 1
 61 25 l 1
 63 25 l 1
 63 27 l 1
EndSplineSet
EndChar

StartChar: custom_5_6_0_3_3
Encoding: 36801 36801 16833
Width: 70
Flags: H
LayerCount: 2
Fore
SplineSet
23 43 m 1
 21 43 l 1
 21 41 l 1
 23 41 l 1
 23 43 l 1
26 43 m 1
 24 43 l 1
 24 41 l 1
 25 41 l 1
 25 42 l 1
 26 42 l 1
 26 43 l 1
27 42 m 1
 26 42 l 1
 26 41 l 1
 28 41 l 1
 28 43 l 1
 27 43 l 1
 27 42 l 1
31 43 m 1
 29 43 l 1
 29 41 l 1
 31 41 l 1
 31 43 l 1
41 43 m 1
 39 43 l 1
 39 41 l 1
 41 41 l 1
 41 43 l 1
23 35 m 1
 21 35 l 1
 21 33 l 1
 23 33 l 1
 23 35 l 1
25 35 m 1
 24 35 l 1
 24 33 l 1
 26 33 l 1
 26 34 l 1
 25 34 l 1
 25 35 l 1
23 31 m 1
 21 31 l 1
 21 29 l 1
 23 29 l 1
 23 31 l 1
23 27 m 1
 21 27 l 1
 21 25 l 1
 23 25 l 1
 23 27 l 1
26 27 m 1
 24 27 l 1
 24 25 l 1
 25 25 l 1
 25 26 l 1
 26 26 l 1
 26 27 l 1
31 39 m 1
 29 39 l 1
 29 37 l 1
 31 37 l 1
 31 39 l 1
28 35 m 1
 26 35 l 1
 26 34 l 1
 27 34 l 1
 27 33 l 1
 28 33 l 1
 28 35 l 1
31 35 m 1
 29 35 l 1
 29 33 l 1
 31 33 l 1
 31 35 l 1
36 37 m 1
 34 37 l 1
 34 35 l 1
 36 35 l 1
 36 37 l 1
41 39 m 1
 39 39 l 1
 39 37 l 1
 41 37 l 1
 41 39 l 1
36 33 m 1
 34 33 l 1
 34 31 l 1
 36 31 l 1
 36 33 l 1
41 35 m 1
 39 35 l 1
 39 33 l 1
 41 33 l 1
 41 35 l 1
27 26 m 1
 26 26 l 1
 26 25 l 1
 28 25 l 1
 28 27 l 1
 27 27 l 1
 27 26 l 1
31 27 m 1
 29 27 l 1
 29 25 l 1
 31 25 l 1
 31 27 l 1
41 27 m 1
 39 27 l 1
 39 25 l 1
 41 25 l 1
 41 27 l 1
44 43 m 1
 42 43 l 1
 42 41 l 1
 43 41 l 1
 43 42 l 1
 44 42 l 1
 44 43 l 1
45 42 m 1
 44 42 l 1
 44 41 l 1
 46 41 l 1
 46 43 l 1
 45 43 l 1
 45 42 l 1
49 43 m 1
 47 43 l 1
 47 41 l 1
 49 41 l 1
 49 43 l 1
55 43 m 1
 53 43 l 1
 53 41 l 1
 55 41 l 1
 55 43 l 1
58 43 m 1
 56 43 l 1
 56 41 l 1
 57 41 l 1
 57 42 l 1
 58 42 l 1
 58 43 l 1
59 42 m 1
 58 42 l 1
 58 41 l 1
 60 41 l 1
 60 43 l 1
 59 43 l 1
 59 42 l 1
63 43 m 1
 61 43 l 1
 61 41 l 1
 63 41 l 1
 63 43 l 1
43 35 m 1
 42 35 l 1
 42 33 l 1
 44 33 l 1
 44 34 l 1
 43 34 l 1
 43 35 l 1
46 35 m 1
 44 35 l 1
 44 34 l 1
 45 34 l 1
 45 33 l 1
 46 33 l 1
 46 35 l 1
49 35 m 1
 47 35 l 1
 47 33 l 1
 49 33 l 1
 49 35 l 1
55 39 m 1
 53 39 l 1
 53 37 l 1
 55 37 l 1
 55 39 l 1
55 35 m 1
 53 35 l 1
 53 33 l 1
 55 33 l 1
 55 35 l 1
57 35 m 1
 56 35 l 1
 56 33 l 1
 58 33 l 1
 58 34 l 1
 57 34 l 1
 57 35 l 1
49 31 m 1
 47 31 l 1
 47 29 l 1
 49 29 l 1
 49 31 l 1
44 27 m 1
 42 27 l 1
 42 25 l 1
 43 25 l 1
 43 26 l 1
 44 26 l 1
 44 27 l 1
45 26 m 1
 44 26 l 1
 44 25 l 1
 46 25 l 1
 46 27 l 1
 45 27 l 1
 45 26 l 1
49 27 m 1
 47 27 l 1
 47 25 l 1
 49 25 l 1
 49 27 l 1
55 31 m 1
 53 31 l 1
 53 29 l 1
 55 29 l 1
 55 31 l 1
55 27 m 1
 53 27 l 1
 53 25 l 1
 55 25 l 1
 55 27 l 1
58 27 m 1
 56 27 l 1
 56 25 l 1
 57 25 l 1
 57 26 l 1
 58 26 l 1
 58 27 l 1
60 35 m 1
 58 35 l 1
 58 34 l 1
 59 34 l 1
 59 33 l 1
 60 33 l 1
 60 35 l 1
63 35 m 1
 61 35 l 1
 61 33 l 1
 63 33 l 1
 63 35 l 1
63 31 m 1
 61 31 l 1
 61 29 l 1
 63 29 l 1
 63 31 l 1
59 26 m 1
 58 26 l 1
 58 25 l 1
 60 25 l 1
 60 27 l 1
 59 27 l 1
 59 26 l 1
63 27 m 1
 61 27 l 1
 61 25 l 1
 63 25 l 1
 63 27 l 1
EndSplineSet
EndChar

StartChar: custom_5_6_0_3_4
Encoding: 36802 36802 16834
Width: 70
Flags: H
LayerCount: 2
Fore
SplineSet
23 43 m 1
 21 43 l 1
 21 41 l 1
 23 41 l 1
 23 43 l 1
26 43 m 1
 24 43 l 1
 24 41 l 1
 25 41 l 1
 25 42 l 1
 26 42 l 1
 26 43 l 1
27 42 m 1
 26 42 l 1
 26 41 l 1
 28 41 l 1
 28 43 l 1
 27 43 l 1
 27 42 l 1
31 43 m 1
 29 43 l 1
 29 41 l 1
 31 41 l 1
 31 43 l 1
41 43 m 1
 39 43 l 1
 39 41 l 1
 41 41 l 1
 41 43 l 1
23 35 m 1
 21 35 l 1
 21 33 l 1
 23 33 l 1
 23 35 l 1
25 35 m 1
 24 35 l 1
 24 33 l 1
 26 33 l 1
 26 34 l 1
 25 34 l 1
 25 35 l 1
23 31 m 1
 21 31 l 1
 21 29 l 1
 23 29 l 1
 23 31 l 1
23 27 m 1
 21 27 l 1
 21 25 l 1
 23 25 l 1
 23 27 l 1
26 27 m 1
 24 27 l 1
 24 25 l 1
 25 25 l 1
 25 26 l 1
 26 26 l 1
 26 27 l 1
31 39 m 1
 29 39 l 1
 29 37 l 1
 31 37 l 1
 31 39 l 1
28 35 m 1
 26 35 l 1
 26 34 l 1
 27 34 l 1
 27 33 l 1
 28 33 l 1
 28 35 l 1
31 35 m 1
 29 35 l 1
 29 33 l 1
 31 33 l 1
 31 35 l 1
36 37 m 1
 34 37 l 1
 34 35 l 1
 36 35 l 1
 36 37 l 1
41 39 m 1
 39 39 l 1
 39 37 l 1
 41 37 l 1
 41 39 l 1
36 33 m 1
 34 33 l 1
 34 31 l 1
 36 31 l 1
 36 33 l 1
41 35 m 1
 39 35 l 1
 39 33 l 1
 41 33 l 1
 41 35 l 1
27 26 m 1
 26 26 l 1
 26 25 l 1
 28 25 l 1
 28 27 l 1
 27 27 l 1
 27 26 l 1
31 27 m 1
 29 27 l 1
 29 25 l 1
 31 25 l 1
 31 27 l 1
41 27 m 1
 39 27 l 1
 39 25 l 1
 41 25 l 1
 41 27 l 1
44 43 m 1
 42 43 l 1
 42 41 l 1
 43 41 l 1
 43 42 l 1
 44 42 l 1
 44 43 l 1
45 42 m 1
 44 42 l 1
 44 41 l 1
 46 41 l 1
 46 43 l 1
 45 43 l 1
 45 42 l 1
49 43 m 1
 47 43 l 1
 47 41 l 1
 49 41 l 1
 49 43 l 1
55 43 m 1
 53 43 l 1
 53 41 l 1
 55 41 l 1
 55 43 l 1
58 43 m 1
 56 43 l 1
 56 41 l 1
 57 41 l 1
 57 42 l 1
 58 42 l 1
 58 43 l 1
59 42 m 1
 58 42 l 1
 58 41 l 1
 60 41 l 1
 60 43 l 1
 59 43 l 1
 59 42 l 1
63 43 m 1
 61 43 l 1
 61 41 l 1
 63 41 l 1
 63 43 l 1
43 35 m 1
 42 35 l 1
 42 33 l 1
 44 33 l 1
 44 34 l 1
 43 34 l 1
 43 35 l 1
46 35 m 1
 44 35 l 1
 44 34 l 1
 45 34 l 1
 45 33 l 1
 46 33 l 1
 46 35 l 1
49 35 m 1
 47 35 l 1
 47 33 l 1
 49 33 l 1
 49 35 l 1
55 39 m 1
 53 39 l 1
 53 37 l 1
 55 37 l 1
 55 39 l 1
55 35 m 1
 53 35 l 1
 53 33 l 1
 55 33 l 1
 55 35 l 1
57 35 m 1
 56 35 l 1
 56 33 l 1
 58 33 l 1
 58 34 l 1
 57 34 l 1
 57 35 l 1
49 31 m 1
 47 31 l 1
 47 29 l 1
 49 29 l 1
 49 31 l 1
44 27 m 1
 42 27 l 1
 42 25 l 1
 43 25 l 1
 43 26 l 1
 44 26 l 1
 44 27 l 1
45 26 m 1
 44 26 l 1
 44 25 l 1
 46 25 l 1
 46 27 l 1
 45 27 l 1
 45 26 l 1
49 27 m 1
 47 27 l 1
 47 25 l 1
 49 25 l 1
 49 27 l 1
55 31 m 1
 53 31 l 1
 53 29 l 1
 55 29 l 1
 55 31 l 1
55 27 m 1
 53 27 l 1
 53 25 l 1
 55 25 l 1
 55 27 l 1
58 27 m 1
 56 27 l 1
 56 25 l 1
 57 25 l 1
 57 26 l 1
 58 26 l 1
 58 27 l 1
60 35 m 1
 58 35 l 1
 58 34 l 1
 59 34 l 1
 59 33 l 1
 60 33 l 1
 60 35 l 1
63 35 m 1
 61 35 l 1
 61 33 l 1
 63 33 l 1
 63 35 l 1
63 31 m 1
 61 31 l 1
 61 29 l 1
 63 29 l 1
 63 31 l 1
59 26 m 1
 58 26 l 1
 58 25 l 1
 60 25 l 1
 60 27 l 1
 59 27 l 1
 59 26 l 1
63 27 m 1
 61 27 l 1
 61 25 l 1
 63 25 l 1
 63 27 l 1
EndSplineSet
EndChar

StartChar: custom_5_6_0_3_5
Encoding: 36803 36803 16835
Width: 70
Flags: H
LayerCount: 2
Fore
SplineSet
23 43 m 1
 21 43 l 1
 21 41 l 1
 23 41 l 1
 23 43 l 1
26 43 m 1
 24 43 l 1
 24 41 l 1
 25 41 l 1
 25 42 l 1
 26 42 l 1
 26 43 l 1
27 42 m 1
 26 42 l 1
 26 41 l 1
 28 41 l 1
 28 43 l 1
 27 43 l 1
 27 42 l 1
31 43 m 1
 29 43 l 1
 29 41 l 1
 31 41 l 1
 31 43 l 1
41 43 m 1
 39 43 l 1
 39 41 l 1
 41 41 l 1
 41 43 l 1
23 35 m 1
 21 35 l 1
 21 33 l 1
 23 33 l 1
 23 35 l 1
25 35 m 1
 24 35 l 1
 24 33 l 1
 26 33 l 1
 26 34 l 1
 25 34 l 1
 25 35 l 1
23 31 m 1
 21 31 l 1
 21 29 l 1
 23 29 l 1
 23 31 l 1
23 27 m 1
 21 27 l 1
 21 25 l 1
 23 25 l 1
 23 27 l 1
26 27 m 1
 24 27 l 1
 24 25 l 1
 25 25 l 1
 25 26 l 1
 26 26 l 1
 26 27 l 1
31 39 m 1
 29 39 l 1
 29 37 l 1
 31 37 l 1
 31 39 l 1
28 35 m 1
 26 35 l 1
 26 34 l 1
 27 34 l 1
 27 33 l 1
 28 33 l 1
 28 35 l 1
31 35 m 1
 29 35 l 1
 29 33 l 1
 31 33 l 1
 31 35 l 1
36 37 m 1
 34 37 l 1
 34 35 l 1
 36 35 l 1
 36 37 l 1
41 39 m 1
 39 39 l 1
 39 37 l 1
 41 37 l 1
 41 39 l 1
36 33 m 1
 34 33 l 1
 34 31 l 1
 36 31 l 1
 36 33 l 1
41 35 m 1
 39 35 l 1
 39 33 l 1
 41 33 l 1
 41 35 l 1
27 26 m 1
 26 26 l 1
 26 25 l 1
 28 25 l 1
 28 27 l 1
 27 27 l 1
 27 26 l 1
31 27 m 1
 29 27 l 1
 29 25 l 1
 31 25 l 1
 31 27 l 1
41 27 m 1
 39 27 l 1
 39 25 l 1
 41 25 l 1
 41 27 l 1
44 43 m 1
 42 43 l 1
 42 41 l 1
 43 41 l 1
 43 42 l 1
 44 42 l 1
 44 43 l 1
45 42 m 1
 44 42 l 1
 44 41 l 1
 46 41 l 1
 46 43 l 1
 45 43 l 1
 45 42 l 1
49 43 m 1
 47 43 l 1
 47 41 l 1
 49 41 l 1
 49 43 l 1
55 43 m 1
 53 43 l 1
 53 41 l 1
 55 41 l 1
 55 43 l 1
58 43 m 1
 56 43 l 1
 56 41 l 1
 57 41 l 1
 57 42 l 1
 58 42 l 1
 58 43 l 1
59 42 m 1
 58 42 l 1
 58 41 l 1
 60 41 l 1
 60 43 l 1
 59 43 l 1
 59 42 l 1
63 43 m 1
 61 43 l 1
 61 41 l 1
 63 41 l 1
 63 43 l 1
43 35 m 1
 42 35 l 1
 42 33 l 1
 44 33 l 1
 44 34 l 1
 43 34 l 1
 43 35 l 1
46 35 m 1
 44 35 l 1
 44 34 l 1
 45 34 l 1
 45 33 l 1
 46 33 l 1
 46 35 l 1
49 35 m 1
 47 35 l 1
 47 33 l 1
 49 33 l 1
 49 35 l 1
55 39 m 1
 53 39 l 1
 53 37 l 1
 55 37 l 1
 55 39 l 1
55 35 m 1
 53 35 l 1
 53 33 l 1
 55 33 l 1
 55 35 l 1
57 35 m 1
 56 35 l 1
 56 33 l 1
 58 33 l 1
 58 34 l 1
 57 34 l 1
 57 35 l 1
49 31 m 1
 47 31 l 1
 47 29 l 1
 49 29 l 1
 49 31 l 1
44 27 m 1
 42 27 l 1
 42 25 l 1
 43 25 l 1
 43 26 l 1
 44 26 l 1
 44 27 l 1
45 26 m 1
 44 26 l 1
 44 25 l 1
 46 25 l 1
 46 27 l 1
 45 27 l 1
 45 26 l 1
49 27 m 1
 47 27 l 1
 47 25 l 1
 49 25 l 1
 49 27 l 1
55 31 m 1
 53 31 l 1
 53 29 l 1
 55 29 l 1
 55 31 l 1
55 27 m 1
 53 27 l 1
 53 25 l 1
 55 25 l 1
 55 27 l 1
58 27 m 1
 56 27 l 1
 56 25 l 1
 57 25 l 1
 57 26 l 1
 58 26 l 1
 58 27 l 1
60 35 m 1
 58 35 l 1
 58 34 l 1
 59 34 l 1
 59 33 l 1
 60 33 l 1
 60 35 l 1
63 35 m 1
 61 35 l 1
 61 33 l 1
 63 33 l 1
 63 35 l 1
63 31 m 1
 61 31 l 1
 61 29 l 1
 63 29 l 1
 63 31 l 1
59 26 m 1
 58 26 l 1
 58 25 l 1
 60 25 l 1
 60 27 l 1
 59 27 l 1
 59 26 l 1
63 27 m 1
 61 27 l 1
 61 25 l 1
 63 25 l 1
 63 27 l 1
EndSplineSet
EndChar

StartChar: custom_5_6_0_3_6
Encoding: 36804 36804 16836
Width: 70
Flags: H
LayerCount: 2
Fore
SplineSet
23 43 m 1
 21 43 l 1
 21 41 l 1
 23 41 l 1
 23 43 l 1
26 43 m 1
 24 43 l 1
 24 41 l 1
 25 41 l 1
 25 42 l 1
 26 42 l 1
 26 43 l 1
27 42 m 1
 26 42 l 1
 26 41 l 1
 28 41 l 1
 28 43 l 1
 27 43 l 1
 27 42 l 1
31 43 m 1
 29 43 l 1
 29 41 l 1
 31 41 l 1
 31 43 l 1
41 43 m 1
 39 43 l 1
 39 41 l 1
 41 41 l 1
 41 43 l 1
23 35 m 1
 21 35 l 1
 21 33 l 1
 23 33 l 1
 23 35 l 1
25 35 m 1
 24 35 l 1
 24 33 l 1
 26 33 l 1
 26 34 l 1
 25 34 l 1
 25 35 l 1
23 31 m 1
 21 31 l 1
 21 29 l 1
 23 29 l 1
 23 31 l 1
23 27 m 1
 21 27 l 1
 21 25 l 1
 23 25 l 1
 23 27 l 1
26 27 m 1
 24 27 l 1
 24 25 l 1
 25 25 l 1
 25 26 l 1
 26 26 l 1
 26 27 l 1
31 39 m 1
 29 39 l 1
 29 37 l 1
 31 37 l 1
 31 39 l 1
28 35 m 1
 26 35 l 1
 26 34 l 1
 27 34 l 1
 27 33 l 1
 28 33 l 1
 28 35 l 1
31 35 m 1
 29 35 l 1
 29 33 l 1
 31 33 l 1
 31 35 l 1
36 37 m 1
 34 37 l 1
 34 35 l 1
 36 35 l 1
 36 37 l 1
41 39 m 1
 39 39 l 1
 39 37 l 1
 41 37 l 1
 41 39 l 1
36 33 m 1
 34 33 l 1
 34 31 l 1
 36 31 l 1
 36 33 l 1
41 35 m 1
 39 35 l 1
 39 33 l 1
 41 33 l 1
 41 35 l 1
27 26 m 1
 26 26 l 1
 26 25 l 1
 28 25 l 1
 28 27 l 1
 27 27 l 1
 27 26 l 1
31 27 m 1
 29 27 l 1
 29 25 l 1
 31 25 l 1
 31 27 l 1
41 27 m 1
 39 27 l 1
 39 25 l 1
 41 25 l 1
 41 27 l 1
44 43 m 1
 42 43 l 1
 42 41 l 1
 43 41 l 1
 43 42 l 1
 44 42 l 1
 44 43 l 1
45 42 m 1
 44 42 l 1
 44 41 l 1
 46 41 l 1
 46 43 l 1
 45 43 l 1
 45 42 l 1
49 43 m 1
 47 43 l 1
 47 41 l 1
 49 41 l 1
 49 43 l 1
55 43 m 1
 53 43 l 1
 53 41 l 1
 55 41 l 1
 55 43 l 1
58 43 m 1
 56 43 l 1
 56 41 l 1
 57 41 l 1
 57 42 l 1
 58 42 l 1
 58 43 l 1
59 42 m 1
 58 42 l 1
 58 41 l 1
 60 41 l 1
 60 43 l 1
 59 43 l 1
 59 42 l 1
63 43 m 1
 61 43 l 1
 61 41 l 1
 63 41 l 1
 63 43 l 1
43 35 m 1
 42 35 l 1
 42 33 l 1
 44 33 l 1
 44 34 l 1
 43 34 l 1
 43 35 l 1
46 35 m 1
 44 35 l 1
 44 34 l 1
 45 34 l 1
 45 33 l 1
 46 33 l 1
 46 35 l 1
49 35 m 1
 47 35 l 1
 47 33 l 1
 49 33 l 1
 49 35 l 1
55 39 m 1
 53 39 l 1
 53 37 l 1
 55 37 l 1
 55 39 l 1
55 35 m 1
 53 35 l 1
 53 33 l 1
 55 33 l 1
 55 35 l 1
57 35 m 1
 56 35 l 1
 56 33 l 1
 58 33 l 1
 58 34 l 1
 57 34 l 1
 57 35 l 1
49 31 m 1
 47 31 l 1
 47 29 l 1
 49 29 l 1
 49 31 l 1
44 27 m 1
 42 27 l 1
 42 25 l 1
 43 25 l 1
 43 26 l 1
 44 26 l 1
 44 27 l 1
45 26 m 1
 44 26 l 1
 44 25 l 1
 46 25 l 1
 46 27 l 1
 45 27 l 1
 45 26 l 1
49 27 m 1
 47 27 l 1
 47 25 l 1
 49 25 l 1
 49 27 l 1
55 31 m 1
 53 31 l 1
 53 29 l 1
 55 29 l 1
 55 31 l 1
55 27 m 1
 53 27 l 1
 53 25 l 1
 55 25 l 1
 55 27 l 1
58 27 m 1
 56 27 l 1
 56 25 l 1
 57 25 l 1
 57 26 l 1
 58 26 l 1
 58 27 l 1
60 35 m 1
 58 35 l 1
 58 34 l 1
 59 34 l 1
 59 33 l 1
 60 33 l 1
 60 35 l 1
63 35 m 1
 61 35 l 1
 61 33 l 1
 63 33 l 1
 63 35 l 1
63 31 m 1
 61 31 l 1
 61 29 l 1
 63 29 l 1
 63 31 l 1
59 26 m 1
 58 26 l 1
 58 25 l 1
 60 25 l 1
 60 27 l 1
 59 27 l 1
 59 26 l 1
63 27 m 1
 61 27 l 1
 61 25 l 1
 63 25 l 1
 63 27 l 1
EndSplineSet
EndChar

StartChar: custom_5_6_0_3_7
Encoding: 36805 36805 16837
Width: 70
Flags: H
LayerCount: 2
Fore
SplineSet
23 43 m 1
 21 43 l 1
 21 41 l 1
 23 41 l 1
 23 43 l 1
26 43 m 1
 24 43 l 1
 24 41 l 1
 25 41 l 1
 25 42 l 1
 26 42 l 1
 26 43 l 1
27 42 m 1
 26 42 l 1
 26 41 l 1
 28 41 l 1
 28 43 l 1
 27 43 l 1
 27 42 l 1
31 43 m 1
 29 43 l 1
 29 41 l 1
 31 41 l 1
 31 43 l 1
41 43 m 1
 39 43 l 1
 39 41 l 1
 41 41 l 1
 41 43 l 1
23 35 m 1
 21 35 l 1
 21 33 l 1
 23 33 l 1
 23 35 l 1
25 35 m 1
 24 35 l 1
 24 33 l 1
 26 33 l 1
 26 34 l 1
 25 34 l 1
 25 35 l 1
23 31 m 1
 21 31 l 1
 21 29 l 1
 23 29 l 1
 23 31 l 1
23 27 m 1
 21 27 l 1
 21 25 l 1
 23 25 l 1
 23 27 l 1
26 27 m 1
 24 27 l 1
 24 25 l 1
 25 25 l 1
 25 26 l 1
 26 26 l 1
 26 27 l 1
31 39 m 1
 29 39 l 1
 29 37 l 1
 31 37 l 1
 31 39 l 1
28 35 m 1
 26 35 l 1
 26 34 l 1
 27 34 l 1
 27 33 l 1
 28 33 l 1
 28 35 l 1
31 35 m 1
 29 35 l 1
 29 33 l 1
 31 33 l 1
 31 35 l 1
36 37 m 1
 34 37 l 1
 34 35 l 1
 36 35 l 1
 36 37 l 1
41 39 m 1
 39 39 l 1
 39 37 l 1
 41 37 l 1
 41 39 l 1
36 33 m 1
 34 33 l 1
 34 31 l 1
 36 31 l 1
 36 33 l 1
41 35 m 1
 39 35 l 1
 39 33 l 1
 41 33 l 1
 41 35 l 1
27 26 m 1
 26 26 l 1
 26 25 l 1
 28 25 l 1
 28 27 l 1
 27 27 l 1
 27 26 l 1
31 27 m 1
 29 27 l 1
 29 25 l 1
 31 25 l 1
 31 27 l 1
41 27 m 1
 39 27 l 1
 39 25 l 1
 41 25 l 1
 41 27 l 1
44 43 m 1
 42 43 l 1
 42 41 l 1
 43 41 l 1
 43 42 l 1
 44 42 l 1
 44 43 l 1
45 42 m 1
 44 42 l 1
 44 41 l 1
 46 41 l 1
 46 43 l 1
 45 43 l 1
 45 42 l 1
49 43 m 1
 47 43 l 1
 47 41 l 1
 49 41 l 1
 49 43 l 1
55 43 m 1
 53 43 l 1
 53 41 l 1
 55 41 l 1
 55 43 l 1
58 43 m 1
 56 43 l 1
 56 41 l 1
 57 41 l 1
 57 42 l 1
 58 42 l 1
 58 43 l 1
59 42 m 1
 58 42 l 1
 58 41 l 1
 60 41 l 1
 60 43 l 1
 59 43 l 1
 59 42 l 1
63 43 m 1
 61 43 l 1
 61 41 l 1
 63 41 l 1
 63 43 l 1
43 35 m 1
 42 35 l 1
 42 33 l 1
 44 33 l 1
 44 34 l 1
 43 34 l 1
 43 35 l 1
46 35 m 1
 44 35 l 1
 44 34 l 1
 45 34 l 1
 45 33 l 1
 46 33 l 1
 46 35 l 1
49 35 m 1
 47 35 l 1
 47 33 l 1
 49 33 l 1
 49 35 l 1
55 39 m 1
 53 39 l 1
 53 37 l 1
 55 37 l 1
 55 39 l 1
55 35 m 1
 53 35 l 1
 53 33 l 1
 55 33 l 1
 55 35 l 1
57 35 m 1
 56 35 l 1
 56 33 l 1
 58 33 l 1
 58 34 l 1
 57 34 l 1
 57 35 l 1
49 31 m 1
 47 31 l 1
 47 29 l 1
 49 29 l 1
 49 31 l 1
44 27 m 1
 42 27 l 1
 42 25 l 1
 43 25 l 1
 43 26 l 1
 44 26 l 1
 44 27 l 1
45 26 m 1
 44 26 l 1
 44 25 l 1
 46 25 l 1
 46 27 l 1
 45 27 l 1
 45 26 l 1
49 27 m 1
 47 27 l 1
 47 25 l 1
 49 25 l 1
 49 27 l 1
55 31 m 1
 53 31 l 1
 53 29 l 1
 55 29 l 1
 55 31 l 1
55 27 m 1
 53 27 l 1
 53 25 l 1
 55 25 l 1
 55 27 l 1
58 27 m 1
 56 27 l 1
 56 25 l 1
 57 25 l 1
 57 26 l 1
 58 26 l 1
 58 27 l 1
60 35 m 1
 58 35 l 1
 58 34 l 1
 59 34 l 1
 59 33 l 1
 60 33 l 1
 60 35 l 1
63 35 m 1
 61 35 l 1
 61 33 l 1
 63 33 l 1
 63 35 l 1
63 31 m 1
 61 31 l 1
 61 29 l 1
 63 29 l 1
 63 31 l 1
59 26 m 1
 58 26 l 1
 58 25 l 1
 60 25 l 1
 60 27 l 1
 59 27 l 1
 59 26 l 1
63 27 m 1
 61 27 l 1
 61 25 l 1
 63 25 l 1
 63 27 l 1
EndSplineSet
EndChar

StartChar: custom_5_6_0_3_8
Encoding: 36806 36806 16838
Width: 70
Flags: H
LayerCount: 2
Fore
SplineSet
23 43 m 1
 21 43 l 1
 21 41 l 1
 23 41 l 1
 23 43 l 1
26 43 m 1
 24 43 l 1
 24 41 l 1
 25 41 l 1
 25 42 l 1
 26 42 l 1
 26 43 l 1
27 42 m 1
 26 42 l 1
 26 41 l 1
 28 41 l 1
 28 43 l 1
 27 43 l 1
 27 42 l 1
31 43 m 1
 29 43 l 1
 29 41 l 1
 31 41 l 1
 31 43 l 1
41 43 m 1
 39 43 l 1
 39 41 l 1
 41 41 l 1
 41 43 l 1
23 35 m 1
 21 35 l 1
 21 33 l 1
 23 33 l 1
 23 35 l 1
25 35 m 1
 24 35 l 1
 24 33 l 1
 26 33 l 1
 26 34 l 1
 25 34 l 1
 25 35 l 1
23 31 m 1
 21 31 l 1
 21 29 l 1
 23 29 l 1
 23 31 l 1
23 27 m 1
 21 27 l 1
 21 25 l 1
 23 25 l 1
 23 27 l 1
26 27 m 1
 24 27 l 1
 24 25 l 1
 25 25 l 1
 25 26 l 1
 26 26 l 1
 26 27 l 1
31 39 m 1
 29 39 l 1
 29 37 l 1
 31 37 l 1
 31 39 l 1
28 35 m 1
 26 35 l 1
 26 34 l 1
 27 34 l 1
 27 33 l 1
 28 33 l 1
 28 35 l 1
31 35 m 1
 29 35 l 1
 29 33 l 1
 31 33 l 1
 31 35 l 1
36 37 m 1
 34 37 l 1
 34 35 l 1
 36 35 l 1
 36 37 l 1
41 39 m 1
 39 39 l 1
 39 37 l 1
 41 37 l 1
 41 39 l 1
36 33 m 1
 34 33 l 1
 34 31 l 1
 36 31 l 1
 36 33 l 1
41 35 m 1
 39 35 l 1
 39 33 l 1
 41 33 l 1
 41 35 l 1
27 26 m 1
 26 26 l 1
 26 25 l 1
 28 25 l 1
 28 27 l 1
 27 27 l 1
 27 26 l 1
31 27 m 1
 29 27 l 1
 29 25 l 1
 31 25 l 1
 31 27 l 1
41 27 m 1
 39 27 l 1
 39 25 l 1
 41 25 l 1
 41 27 l 1
44 43 m 1
 42 43 l 1
 42 41 l 1
 43 41 l 1
 43 42 l 1
 44 42 l 1
 44 43 l 1
45 42 m 1
 44 42 l 1
 44 41 l 1
 46 41 l 1
 46 43 l 1
 45 43 l 1
 45 42 l 1
49 43 m 1
 47 43 l 1
 47 41 l 1
 49 41 l 1
 49 43 l 1
55 43 m 1
 53 43 l 1
 53 41 l 1
 55 41 l 1
 55 43 l 1
58 43 m 1
 56 43 l 1
 56 41 l 1
 57 41 l 1
 57 42 l 1
 58 42 l 1
 58 43 l 1
59 42 m 1
 58 42 l 1
 58 41 l 1
 60 41 l 1
 60 43 l 1
 59 43 l 1
 59 42 l 1
63 43 m 1
 61 43 l 1
 61 41 l 1
 63 41 l 1
 63 43 l 1
43 35 m 1
 42 35 l 1
 42 33 l 1
 44 33 l 1
 44 34 l 1
 43 34 l 1
 43 35 l 1
46 35 m 1
 44 35 l 1
 44 34 l 1
 45 34 l 1
 45 33 l 1
 46 33 l 1
 46 35 l 1
49 35 m 1
 47 35 l 1
 47 33 l 1
 49 33 l 1
 49 35 l 1
55 39 m 1
 53 39 l 1
 53 37 l 1
 55 37 l 1
 55 39 l 1
55 35 m 1
 53 35 l 1
 53 33 l 1
 55 33 l 1
 55 35 l 1
57 35 m 1
 56 35 l 1
 56 33 l 1
 58 33 l 1
 58 34 l 1
 57 34 l 1
 57 35 l 1
49 31 m 1
 47 31 l 1
 47 29 l 1
 49 29 l 1
 49 31 l 1
44 27 m 1
 42 27 l 1
 42 25 l 1
 43 25 l 1
 43 26 l 1
 44 26 l 1
 44 27 l 1
45 26 m 1
 44 26 l 1
 44 25 l 1
 46 25 l 1
 46 27 l 1
 45 27 l 1
 45 26 l 1
49 27 m 1
 47 27 l 1
 47 25 l 1
 49 25 l 1
 49 27 l 1
55 31 m 1
 53 31 l 1
 53 29 l 1
 55 29 l 1
 55 31 l 1
55 27 m 1
 53 27 l 1
 53 25 l 1
 55 25 l 1
 55 27 l 1
58 27 m 1
 56 27 l 1
 56 25 l 1
 57 25 l 1
 57 26 l 1
 58 26 l 1
 58 27 l 1
60 35 m 1
 58 35 l 1
 58 34 l 1
 59 34 l 1
 59 33 l 1
 60 33 l 1
 60 35 l 1
63 35 m 1
 61 35 l 1
 61 33 l 1
 63 33 l 1
 63 35 l 1
63 31 m 1
 61 31 l 1
 61 29 l 1
 63 29 l 1
 63 31 l 1
59 26 m 1
 58 26 l 1
 58 25 l 1
 60 25 l 1
 60 27 l 1
 59 27 l 1
 59 26 l 1
63 27 m 1
 61 27 l 1
 61 25 l 1
 63 25 l 1
 63 27 l 1
EndSplineSet
EndChar

StartChar: custom_5_6_0_3_9
Encoding: 36807 36807 16839
Width: 70
Flags: H
LayerCount: 2
Fore
SplineSet
23 43 m 1
 21 43 l 1
 21 41 l 1
 23 41 l 1
 23 43 l 1
26 43 m 1
 24 43 l 1
 24 41 l 1
 25 41 l 1
 25 42 l 1
 26 42 l 1
 26 43 l 1
27 42 m 1
 26 42 l 1
 26 41 l 1
 28 41 l 1
 28 43 l 1
 27 43 l 1
 27 42 l 1
31 43 m 1
 29 43 l 1
 29 41 l 1
 31 41 l 1
 31 43 l 1
41 43 m 1
 39 43 l 1
 39 41 l 1
 41 41 l 1
 41 43 l 1
23 35 m 1
 21 35 l 1
 21 33 l 1
 23 33 l 1
 23 35 l 1
25 35 m 1
 24 35 l 1
 24 33 l 1
 26 33 l 1
 26 34 l 1
 25 34 l 1
 25 35 l 1
23 31 m 1
 21 31 l 1
 21 29 l 1
 23 29 l 1
 23 31 l 1
23 27 m 1
 21 27 l 1
 21 25 l 1
 23 25 l 1
 23 27 l 1
26 27 m 1
 24 27 l 1
 24 25 l 1
 25 25 l 1
 25 26 l 1
 26 26 l 1
 26 27 l 1
31 39 m 1
 29 39 l 1
 29 37 l 1
 31 37 l 1
 31 39 l 1
28 35 m 1
 26 35 l 1
 26 34 l 1
 27 34 l 1
 27 33 l 1
 28 33 l 1
 28 35 l 1
31 35 m 1
 29 35 l 1
 29 33 l 1
 31 33 l 1
 31 35 l 1
36 37 m 1
 34 37 l 1
 34 35 l 1
 36 35 l 1
 36 37 l 1
41 39 m 1
 39 39 l 1
 39 37 l 1
 41 37 l 1
 41 39 l 1
36 33 m 1
 34 33 l 1
 34 31 l 1
 36 31 l 1
 36 33 l 1
41 35 m 1
 39 35 l 1
 39 33 l 1
 41 33 l 1
 41 35 l 1
27 26 m 1
 26 26 l 1
 26 25 l 1
 28 25 l 1
 28 27 l 1
 27 27 l 1
 27 26 l 1
31 27 m 1
 29 27 l 1
 29 25 l 1
 31 25 l 1
 31 27 l 1
41 27 m 1
 39 27 l 1
 39 25 l 1
 41 25 l 1
 41 27 l 1
44 43 m 1
 42 43 l 1
 42 41 l 1
 43 41 l 1
 43 42 l 1
 44 42 l 1
 44 43 l 1
45 42 m 1
 44 42 l 1
 44 41 l 1
 46 41 l 1
 46 43 l 1
 45 43 l 1
 45 42 l 1
49 43 m 1
 47 43 l 1
 47 41 l 1
 49 41 l 1
 49 43 l 1
55 43 m 1
 53 43 l 1
 53 41 l 1
 55 41 l 1
 55 43 l 1
58 43 m 1
 56 43 l 1
 56 41 l 1
 57 41 l 1
 57 42 l 1
 58 42 l 1
 58 43 l 1
59 42 m 1
 58 42 l 1
 58 41 l 1
 60 41 l 1
 60 43 l 1
 59 43 l 1
 59 42 l 1
63 43 m 1
 61 43 l 1
 61 41 l 1
 63 41 l 1
 63 43 l 1
43 35 m 1
 42 35 l 1
 42 33 l 1
 44 33 l 1
 44 34 l 1
 43 34 l 1
 43 35 l 1
46 35 m 1
 44 35 l 1
 44 34 l 1
 45 34 l 1
 45 33 l 1
 46 33 l 1
 46 35 l 1
49 35 m 1
 47 35 l 1
 47 33 l 1
 49 33 l 1
 49 35 l 1
55 39 m 1
 53 39 l 1
 53 37 l 1
 55 37 l 1
 55 39 l 1
55 35 m 1
 53 35 l 1
 53 33 l 1
 55 33 l 1
 55 35 l 1
57 35 m 1
 56 35 l 1
 56 33 l 1
 58 33 l 1
 58 34 l 1
 57 34 l 1
 57 35 l 1
49 31 m 1
 47 31 l 1
 47 29 l 1
 49 29 l 1
 49 31 l 1
44 27 m 1
 42 27 l 1
 42 25 l 1
 43 25 l 1
 43 26 l 1
 44 26 l 1
 44 27 l 1
45 26 m 1
 44 26 l 1
 44 25 l 1
 46 25 l 1
 46 27 l 1
 45 27 l 1
 45 26 l 1
49 27 m 1
 47 27 l 1
 47 25 l 1
 49 25 l 1
 49 27 l 1
55 31 m 1
 53 31 l 1
 53 29 l 1
 55 29 l 1
 55 31 l 1
55 27 m 1
 53 27 l 1
 53 25 l 1
 55 25 l 1
 55 27 l 1
58 27 m 1
 56 27 l 1
 56 25 l 1
 57 25 l 1
 57 26 l 1
 58 26 l 1
 58 27 l 1
60 35 m 1
 58 35 l 1
 58 34 l 1
 59 34 l 1
 59 33 l 1
 60 33 l 1
 60 35 l 1
63 35 m 1
 61 35 l 1
 61 33 l 1
 63 33 l 1
 63 35 l 1
63 31 m 1
 61 31 l 1
 61 29 l 1
 63 29 l 1
 63 31 l 1
59 26 m 1
 58 26 l 1
 58 25 l 1
 60 25 l 1
 60 27 l 1
 59 27 l 1
 59 26 l 1
63 27 m 1
 61 27 l 1
 61 25 l 1
 63 25 l 1
 63 27 l 1
EndSplineSet
EndChar

StartChar: custom_5_6_0_4_0
Encoding: 36808 36808 16840
Width: 70
Flags: H
LayerCount: 2
Fore
SplineSet
23 43 m 1
 21 43 l 1
 21 41 l 1
 23 41 l 1
 23 43 l 1
26 43 m 1
 24 43 l 1
 24 41 l 1
 25 41 l 1
 25 42 l 1
 26 42 l 1
 26 43 l 1
27 42 m 1
 26 42 l 1
 26 41 l 1
 28 41 l 1
 28 43 l 1
 27 43 l 1
 27 42 l 1
31 43 m 1
 29 43 l 1
 29 41 l 1
 31 41 l 1
 31 43 l 1
41 43 m 1
 39 43 l 1
 39 41 l 1
 41 41 l 1
 41 43 l 1
23 35 m 1
 21 35 l 1
 21 33 l 1
 23 33 l 1
 23 35 l 1
25 35 m 1
 24 35 l 1
 24 33 l 1
 26 33 l 1
 26 34 l 1
 25 34 l 1
 25 35 l 1
23 31 m 1
 21 31 l 1
 21 29 l 1
 23 29 l 1
 23 31 l 1
23 27 m 1
 21 27 l 1
 21 25 l 1
 23 25 l 1
 23 27 l 1
26 27 m 1
 24 27 l 1
 24 25 l 1
 25 25 l 1
 25 26 l 1
 26 26 l 1
 26 27 l 1
31 39 m 1
 29 39 l 1
 29 37 l 1
 31 37 l 1
 31 39 l 1
28 35 m 1
 26 35 l 1
 26 34 l 1
 27 34 l 1
 27 33 l 1
 28 33 l 1
 28 35 l 1
31 35 m 1
 29 35 l 1
 29 33 l 1
 31 33 l 1
 31 35 l 1
36 37 m 1
 34 37 l 1
 34 35 l 1
 36 35 l 1
 36 37 l 1
41 39 m 1
 39 39 l 1
 39 37 l 1
 41 37 l 1
 41 39 l 1
36 33 m 1
 34 33 l 1
 34 31 l 1
 36 31 l 1
 36 33 l 1
41 35 m 1
 39 35 l 1
 39 33 l 1
 41 33 l 1
 41 35 l 1
27 26 m 1
 26 26 l 1
 26 25 l 1
 28 25 l 1
 28 27 l 1
 27 27 l 1
 27 26 l 1
31 27 m 1
 29 27 l 1
 29 25 l 1
 31 25 l 1
 31 27 l 1
41 27 m 1
 39 27 l 1
 39 25 l 1
 41 25 l 1
 41 27 l 1
44 43 m 1
 42 43 l 1
 42 41 l 1
 43 41 l 1
 43 42 l 1
 44 42 l 1
 44 43 l 1
45 42 m 1
 44 42 l 1
 44 41 l 1
 46 41 l 1
 46 43 l 1
 45 43 l 1
 45 42 l 1
49 43 m 1
 47 43 l 1
 47 41 l 1
 49 41 l 1
 49 43 l 1
55 43 m 1
 53 43 l 1
 53 41 l 1
 55 41 l 1
 55 43 l 1
58 43 m 1
 56 43 l 1
 56 41 l 1
 57 41 l 1
 57 42 l 1
 58 42 l 1
 58 43 l 1
59 42 m 1
 58 42 l 1
 58 41 l 1
 60 41 l 1
 60 43 l 1
 59 43 l 1
 59 42 l 1
63 43 m 1
 61 43 l 1
 61 41 l 1
 63 41 l 1
 63 43 l 1
43 35 m 1
 42 35 l 1
 42 33 l 1
 44 33 l 1
 44 34 l 1
 43 34 l 1
 43 35 l 1
46 35 m 1
 44 35 l 1
 44 34 l 1
 45 34 l 1
 45 33 l 1
 46 33 l 1
 46 35 l 1
49 35 m 1
 47 35 l 1
 47 33 l 1
 49 33 l 1
 49 35 l 1
55 39 m 1
 53 39 l 1
 53 37 l 1
 55 37 l 1
 55 39 l 1
55 35 m 1
 53 35 l 1
 53 33 l 1
 55 33 l 1
 55 35 l 1
57 35 m 1
 56 35 l 1
 56 33 l 1
 58 33 l 1
 58 34 l 1
 57 34 l 1
 57 35 l 1
49 31 m 1
 47 31 l 1
 47 29 l 1
 49 29 l 1
 49 31 l 1
44 27 m 1
 42 27 l 1
 42 25 l 1
 43 25 l 1
 43 26 l 1
 44 26 l 1
 44 27 l 1
45 26 m 1
 44 26 l 1
 44 25 l 1
 46 25 l 1
 46 27 l 1
 45 27 l 1
 45 26 l 1
49 27 m 1
 47 27 l 1
 47 25 l 1
 49 25 l 1
 49 27 l 1
55 31 m 1
 53 31 l 1
 53 29 l 1
 55 29 l 1
 55 31 l 1
55 27 m 1
 53 27 l 1
 53 25 l 1
 55 25 l 1
 55 27 l 1
58 27 m 1
 56 27 l 1
 56 25 l 1
 57 25 l 1
 57 26 l 1
 58 26 l 1
 58 27 l 1
60 35 m 1
 58 35 l 1
 58 34 l 1
 59 34 l 1
 59 33 l 1
 60 33 l 1
 60 35 l 1
63 35 m 1
 61 35 l 1
 61 33 l 1
 63 33 l 1
 63 35 l 1
63 31 m 1
 61 31 l 1
 61 29 l 1
 63 29 l 1
 63 31 l 1
59 26 m 1
 58 26 l 1
 58 25 l 1
 60 25 l 1
 60 27 l 1
 59 27 l 1
 59 26 l 1
63 27 m 1
 61 27 l 1
 61 25 l 1
 63 25 l 1
 63 27 l 1
EndSplineSet
EndChar

StartChar: custom_5_6_0_4_1
Encoding: 36809 36809 16841
Width: 70
Flags: H
LayerCount: 2
Fore
SplineSet
23 43 m 1
 21 43 l 1
 21 41 l 1
 23 41 l 1
 23 43 l 1
26 43 m 1
 24 43 l 1
 24 41 l 1
 25 41 l 1
 25 42 l 1
 26 42 l 1
 26 43 l 1
27 42 m 1
 26 42 l 1
 26 41 l 1
 28 41 l 1
 28 43 l 1
 27 43 l 1
 27 42 l 1
31 43 m 1
 29 43 l 1
 29 41 l 1
 31 41 l 1
 31 43 l 1
41 43 m 1
 39 43 l 1
 39 41 l 1
 41 41 l 1
 41 43 l 1
23 35 m 1
 21 35 l 1
 21 33 l 1
 23 33 l 1
 23 35 l 1
25 35 m 1
 24 35 l 1
 24 33 l 1
 26 33 l 1
 26 34 l 1
 25 34 l 1
 25 35 l 1
23 31 m 1
 21 31 l 1
 21 29 l 1
 23 29 l 1
 23 31 l 1
23 27 m 1
 21 27 l 1
 21 25 l 1
 23 25 l 1
 23 27 l 1
26 27 m 1
 24 27 l 1
 24 25 l 1
 25 25 l 1
 25 26 l 1
 26 26 l 1
 26 27 l 1
31 39 m 1
 29 39 l 1
 29 37 l 1
 31 37 l 1
 31 39 l 1
28 35 m 1
 26 35 l 1
 26 34 l 1
 27 34 l 1
 27 33 l 1
 28 33 l 1
 28 35 l 1
31 35 m 1
 29 35 l 1
 29 33 l 1
 31 33 l 1
 31 35 l 1
36 37 m 1
 34 37 l 1
 34 35 l 1
 36 35 l 1
 36 37 l 1
41 39 m 1
 39 39 l 1
 39 37 l 1
 41 37 l 1
 41 39 l 1
36 33 m 1
 34 33 l 1
 34 31 l 1
 36 31 l 1
 36 33 l 1
41 35 m 1
 39 35 l 1
 39 33 l 1
 41 33 l 1
 41 35 l 1
27 26 m 1
 26 26 l 1
 26 25 l 1
 28 25 l 1
 28 27 l 1
 27 27 l 1
 27 26 l 1
31 27 m 1
 29 27 l 1
 29 25 l 1
 31 25 l 1
 31 27 l 1
41 27 m 1
 39 27 l 1
 39 25 l 1
 41 25 l 1
 41 27 l 1
44 43 m 1
 42 43 l 1
 42 41 l 1
 43 41 l 1
 43 42 l 1
 44 42 l 1
 44 43 l 1
45 42 m 1
 44 42 l 1
 44 41 l 1
 46 41 l 1
 46 43 l 1
 45 43 l 1
 45 42 l 1
49 43 m 1
 47 43 l 1
 47 41 l 1
 49 41 l 1
 49 43 l 1
55 43 m 1
 53 43 l 1
 53 41 l 1
 55 41 l 1
 55 43 l 1
58 43 m 1
 56 43 l 1
 56 41 l 1
 57 41 l 1
 57 42 l 1
 58 42 l 1
 58 43 l 1
59 42 m 1
 58 42 l 1
 58 41 l 1
 60 41 l 1
 60 43 l 1
 59 43 l 1
 59 42 l 1
63 43 m 1
 61 43 l 1
 61 41 l 1
 63 41 l 1
 63 43 l 1
43 35 m 1
 42 35 l 1
 42 33 l 1
 44 33 l 1
 44 34 l 1
 43 34 l 1
 43 35 l 1
46 35 m 1
 44 35 l 1
 44 34 l 1
 45 34 l 1
 45 33 l 1
 46 33 l 1
 46 35 l 1
49 35 m 1
 47 35 l 1
 47 33 l 1
 49 33 l 1
 49 35 l 1
55 39 m 1
 53 39 l 1
 53 37 l 1
 55 37 l 1
 55 39 l 1
55 35 m 1
 53 35 l 1
 53 33 l 1
 55 33 l 1
 55 35 l 1
57 35 m 1
 56 35 l 1
 56 33 l 1
 58 33 l 1
 58 34 l 1
 57 34 l 1
 57 35 l 1
49 31 m 1
 47 31 l 1
 47 29 l 1
 49 29 l 1
 49 31 l 1
44 27 m 1
 42 27 l 1
 42 25 l 1
 43 25 l 1
 43 26 l 1
 44 26 l 1
 44 27 l 1
45 26 m 1
 44 26 l 1
 44 25 l 1
 46 25 l 1
 46 27 l 1
 45 27 l 1
 45 26 l 1
49 27 m 1
 47 27 l 1
 47 25 l 1
 49 25 l 1
 49 27 l 1
55 31 m 1
 53 31 l 1
 53 29 l 1
 55 29 l 1
 55 31 l 1
55 27 m 1
 53 27 l 1
 53 25 l 1
 55 25 l 1
 55 27 l 1
58 27 m 1
 56 27 l 1
 56 25 l 1
 57 25 l 1
 57 26 l 1
 58 26 l 1
 58 27 l 1
60 35 m 1
 58 35 l 1
 58 34 l 1
 59 34 l 1
 59 33 l 1
 60 33 l 1
 60 35 l 1
63 35 m 1
 61 35 l 1
 61 33 l 1
 63 33 l 1
 63 35 l 1
63 31 m 1
 61 31 l 1
 61 29 l 1
 63 29 l 1
 63 31 l 1
59 26 m 1
 58 26 l 1
 58 25 l 1
 60 25 l 1
 60 27 l 1
 59 27 l 1
 59 26 l 1
63 27 m 1
 61 27 l 1
 61 25 l 1
 63 25 l 1
 63 27 l 1
EndSplineSet
EndChar

StartChar: custom_5_6_0_4_2
Encoding: 36810 36810 16842
Width: 70
Flags: H
LayerCount: 2
Fore
SplineSet
23 43 m 1
 21 43 l 1
 21 41 l 1
 23 41 l 1
 23 43 l 1
26 43 m 1
 24 43 l 1
 24 41 l 1
 25 41 l 1
 25 42 l 1
 26 42 l 1
 26 43 l 1
27 42 m 1
 26 42 l 1
 26 41 l 1
 28 41 l 1
 28 43 l 1
 27 43 l 1
 27 42 l 1
31 43 m 1
 29 43 l 1
 29 41 l 1
 31 41 l 1
 31 43 l 1
41 43 m 1
 39 43 l 1
 39 41 l 1
 41 41 l 1
 41 43 l 1
23 35 m 1
 21 35 l 1
 21 33 l 1
 23 33 l 1
 23 35 l 1
25 35 m 1
 24 35 l 1
 24 33 l 1
 26 33 l 1
 26 34 l 1
 25 34 l 1
 25 35 l 1
23 31 m 1
 21 31 l 1
 21 29 l 1
 23 29 l 1
 23 31 l 1
23 27 m 1
 21 27 l 1
 21 25 l 1
 23 25 l 1
 23 27 l 1
26 27 m 1
 24 27 l 1
 24 25 l 1
 25 25 l 1
 25 26 l 1
 26 26 l 1
 26 27 l 1
31 39 m 1
 29 39 l 1
 29 37 l 1
 31 37 l 1
 31 39 l 1
28 35 m 1
 26 35 l 1
 26 34 l 1
 27 34 l 1
 27 33 l 1
 28 33 l 1
 28 35 l 1
31 35 m 1
 29 35 l 1
 29 33 l 1
 31 33 l 1
 31 35 l 1
36 37 m 1
 34 37 l 1
 34 35 l 1
 36 35 l 1
 36 37 l 1
41 39 m 1
 39 39 l 1
 39 37 l 1
 41 37 l 1
 41 39 l 1
36 33 m 1
 34 33 l 1
 34 31 l 1
 36 31 l 1
 36 33 l 1
41 35 m 1
 39 35 l 1
 39 33 l 1
 41 33 l 1
 41 35 l 1
27 26 m 1
 26 26 l 1
 26 25 l 1
 28 25 l 1
 28 27 l 1
 27 27 l 1
 27 26 l 1
31 27 m 1
 29 27 l 1
 29 25 l 1
 31 25 l 1
 31 27 l 1
41 27 m 1
 39 27 l 1
 39 25 l 1
 41 25 l 1
 41 27 l 1
44 43 m 1
 42 43 l 1
 42 41 l 1
 43 41 l 1
 43 42 l 1
 44 42 l 1
 44 43 l 1
45 42 m 1
 44 42 l 1
 44 41 l 1
 46 41 l 1
 46 43 l 1
 45 43 l 1
 45 42 l 1
49 43 m 1
 47 43 l 1
 47 41 l 1
 49 41 l 1
 49 43 l 1
55 43 m 1
 53 43 l 1
 53 41 l 1
 55 41 l 1
 55 43 l 1
58 43 m 1
 56 43 l 1
 56 41 l 1
 57 41 l 1
 57 42 l 1
 58 42 l 1
 58 43 l 1
59 42 m 1
 58 42 l 1
 58 41 l 1
 60 41 l 1
 60 43 l 1
 59 43 l 1
 59 42 l 1
63 43 m 1
 61 43 l 1
 61 41 l 1
 63 41 l 1
 63 43 l 1
43 35 m 1
 42 35 l 1
 42 33 l 1
 44 33 l 1
 44 34 l 1
 43 34 l 1
 43 35 l 1
46 35 m 1
 44 35 l 1
 44 34 l 1
 45 34 l 1
 45 33 l 1
 46 33 l 1
 46 35 l 1
49 35 m 1
 47 35 l 1
 47 33 l 1
 49 33 l 1
 49 35 l 1
55 39 m 1
 53 39 l 1
 53 37 l 1
 55 37 l 1
 55 39 l 1
55 35 m 1
 53 35 l 1
 53 33 l 1
 55 33 l 1
 55 35 l 1
57 35 m 1
 56 35 l 1
 56 33 l 1
 58 33 l 1
 58 34 l 1
 57 34 l 1
 57 35 l 1
49 31 m 1
 47 31 l 1
 47 29 l 1
 49 29 l 1
 49 31 l 1
44 27 m 1
 42 27 l 1
 42 25 l 1
 43 25 l 1
 43 26 l 1
 44 26 l 1
 44 27 l 1
45 26 m 1
 44 26 l 1
 44 25 l 1
 46 25 l 1
 46 27 l 1
 45 27 l 1
 45 26 l 1
49 27 m 1
 47 27 l 1
 47 25 l 1
 49 25 l 1
 49 27 l 1
55 31 m 1
 53 31 l 1
 53 29 l 1
 55 29 l 1
 55 31 l 1
55 27 m 1
 53 27 l 1
 53 25 l 1
 55 25 l 1
 55 27 l 1
58 27 m 1
 56 27 l 1
 56 25 l 1
 57 25 l 1
 57 26 l 1
 58 26 l 1
 58 27 l 1
60 35 m 1
 58 35 l 1
 58 34 l 1
 59 34 l 1
 59 33 l 1
 60 33 l 1
 60 35 l 1
63 35 m 1
 61 35 l 1
 61 33 l 1
 63 33 l 1
 63 35 l 1
63 31 m 1
 61 31 l 1
 61 29 l 1
 63 29 l 1
 63 31 l 1
59 26 m 1
 58 26 l 1
 58 25 l 1
 60 25 l 1
 60 27 l 1
 59 27 l 1
 59 26 l 1
63 27 m 1
 61 27 l 1
 61 25 l 1
 63 25 l 1
 63 27 l 1
EndSplineSet
EndChar

StartChar: custom_5_6_0_4_3
Encoding: 36811 36811 16843
Width: 70
Flags: H
LayerCount: 2
Fore
SplineSet
23 43 m 1
 21 43 l 1
 21 41 l 1
 23 41 l 1
 23 43 l 1
26 43 m 1
 24 43 l 1
 24 41 l 1
 25 41 l 1
 25 42 l 1
 26 42 l 1
 26 43 l 1
27 42 m 1
 26 42 l 1
 26 41 l 1
 28 41 l 1
 28 43 l 1
 27 43 l 1
 27 42 l 1
31 43 m 1
 29 43 l 1
 29 41 l 1
 31 41 l 1
 31 43 l 1
41 43 m 1
 39 43 l 1
 39 41 l 1
 41 41 l 1
 41 43 l 1
23 35 m 1
 21 35 l 1
 21 33 l 1
 23 33 l 1
 23 35 l 1
25 35 m 1
 24 35 l 1
 24 33 l 1
 26 33 l 1
 26 34 l 1
 25 34 l 1
 25 35 l 1
23 31 m 1
 21 31 l 1
 21 29 l 1
 23 29 l 1
 23 31 l 1
23 27 m 1
 21 27 l 1
 21 25 l 1
 23 25 l 1
 23 27 l 1
26 27 m 1
 24 27 l 1
 24 25 l 1
 25 25 l 1
 25 26 l 1
 26 26 l 1
 26 27 l 1
31 39 m 1
 29 39 l 1
 29 37 l 1
 31 37 l 1
 31 39 l 1
28 35 m 1
 26 35 l 1
 26 34 l 1
 27 34 l 1
 27 33 l 1
 28 33 l 1
 28 35 l 1
31 35 m 1
 29 35 l 1
 29 33 l 1
 31 33 l 1
 31 35 l 1
36 37 m 1
 34 37 l 1
 34 35 l 1
 36 35 l 1
 36 37 l 1
41 39 m 1
 39 39 l 1
 39 37 l 1
 41 37 l 1
 41 39 l 1
36 33 m 1
 34 33 l 1
 34 31 l 1
 36 31 l 1
 36 33 l 1
41 35 m 1
 39 35 l 1
 39 33 l 1
 41 33 l 1
 41 35 l 1
27 26 m 1
 26 26 l 1
 26 25 l 1
 28 25 l 1
 28 27 l 1
 27 27 l 1
 27 26 l 1
31 27 m 1
 29 27 l 1
 29 25 l 1
 31 25 l 1
 31 27 l 1
41 27 m 1
 39 27 l 1
 39 25 l 1
 41 25 l 1
 41 27 l 1
44 43 m 1
 42 43 l 1
 42 41 l 1
 43 41 l 1
 43 42 l 1
 44 42 l 1
 44 43 l 1
45 42 m 1
 44 42 l 1
 44 41 l 1
 46 41 l 1
 46 43 l 1
 45 43 l 1
 45 42 l 1
49 43 m 1
 47 43 l 1
 47 41 l 1
 49 41 l 1
 49 43 l 1
55 43 m 1
 53 43 l 1
 53 41 l 1
 55 41 l 1
 55 43 l 1
58 43 m 1
 56 43 l 1
 56 41 l 1
 57 41 l 1
 57 42 l 1
 58 42 l 1
 58 43 l 1
59 42 m 1
 58 42 l 1
 58 41 l 1
 60 41 l 1
 60 43 l 1
 59 43 l 1
 59 42 l 1
63 43 m 1
 61 43 l 1
 61 41 l 1
 63 41 l 1
 63 43 l 1
43 35 m 1
 42 35 l 1
 42 33 l 1
 44 33 l 1
 44 34 l 1
 43 34 l 1
 43 35 l 1
46 35 m 1
 44 35 l 1
 44 34 l 1
 45 34 l 1
 45 33 l 1
 46 33 l 1
 46 35 l 1
49 35 m 1
 47 35 l 1
 47 33 l 1
 49 33 l 1
 49 35 l 1
55 39 m 1
 53 39 l 1
 53 37 l 1
 55 37 l 1
 55 39 l 1
55 35 m 1
 53 35 l 1
 53 33 l 1
 55 33 l 1
 55 35 l 1
57 35 m 1
 56 35 l 1
 56 33 l 1
 58 33 l 1
 58 34 l 1
 57 34 l 1
 57 35 l 1
49 31 m 1
 47 31 l 1
 47 29 l 1
 49 29 l 1
 49 31 l 1
44 27 m 1
 42 27 l 1
 42 25 l 1
 43 25 l 1
 43 26 l 1
 44 26 l 1
 44 27 l 1
45 26 m 1
 44 26 l 1
 44 25 l 1
 46 25 l 1
 46 27 l 1
 45 27 l 1
 45 26 l 1
49 27 m 1
 47 27 l 1
 47 25 l 1
 49 25 l 1
 49 27 l 1
55 31 m 1
 53 31 l 1
 53 29 l 1
 55 29 l 1
 55 31 l 1
55 27 m 1
 53 27 l 1
 53 25 l 1
 55 25 l 1
 55 27 l 1
58 27 m 1
 56 27 l 1
 56 25 l 1
 57 25 l 1
 57 26 l 1
 58 26 l 1
 58 27 l 1
60 35 m 1
 58 35 l 1
 58 34 l 1
 59 34 l 1
 59 33 l 1
 60 33 l 1
 60 35 l 1
63 35 m 1
 61 35 l 1
 61 33 l 1
 63 33 l 1
 63 35 l 1
63 31 m 1
 61 31 l 1
 61 29 l 1
 63 29 l 1
 63 31 l 1
59 26 m 1
 58 26 l 1
 58 25 l 1
 60 25 l 1
 60 27 l 1
 59 27 l 1
 59 26 l 1
63 27 m 1
 61 27 l 1
 61 25 l 1
 63 25 l 1
 63 27 l 1
EndSplineSet
EndChar

StartChar: custom_5_6_0_4_4
Encoding: 36812 36812 16844
Width: 70
Flags: H
LayerCount: 2
Fore
SplineSet
23 43 m 1
 21 43 l 1
 21 41 l 1
 23 41 l 1
 23 43 l 1
26 43 m 1
 24 43 l 1
 24 41 l 1
 25 41 l 1
 25 42 l 1
 26 42 l 1
 26 43 l 1
27 42 m 1
 26 42 l 1
 26 41 l 1
 28 41 l 1
 28 43 l 1
 27 43 l 1
 27 42 l 1
31 43 m 1
 29 43 l 1
 29 41 l 1
 31 41 l 1
 31 43 l 1
41 43 m 1
 39 43 l 1
 39 41 l 1
 41 41 l 1
 41 43 l 1
23 35 m 1
 21 35 l 1
 21 33 l 1
 23 33 l 1
 23 35 l 1
25 35 m 1
 24 35 l 1
 24 33 l 1
 26 33 l 1
 26 34 l 1
 25 34 l 1
 25 35 l 1
23 31 m 1
 21 31 l 1
 21 29 l 1
 23 29 l 1
 23 31 l 1
23 27 m 1
 21 27 l 1
 21 25 l 1
 23 25 l 1
 23 27 l 1
26 27 m 1
 24 27 l 1
 24 25 l 1
 25 25 l 1
 25 26 l 1
 26 26 l 1
 26 27 l 1
31 39 m 1
 29 39 l 1
 29 37 l 1
 31 37 l 1
 31 39 l 1
28 35 m 1
 26 35 l 1
 26 34 l 1
 27 34 l 1
 27 33 l 1
 28 33 l 1
 28 35 l 1
31 35 m 1
 29 35 l 1
 29 33 l 1
 31 33 l 1
 31 35 l 1
36 37 m 1
 34 37 l 1
 34 35 l 1
 36 35 l 1
 36 37 l 1
41 39 m 1
 39 39 l 1
 39 37 l 1
 41 37 l 1
 41 39 l 1
36 33 m 1
 34 33 l 1
 34 31 l 1
 36 31 l 1
 36 33 l 1
41 35 m 1
 39 35 l 1
 39 33 l 1
 41 33 l 1
 41 35 l 1
27 26 m 1
 26 26 l 1
 26 25 l 1
 28 25 l 1
 28 27 l 1
 27 27 l 1
 27 26 l 1
31 27 m 1
 29 27 l 1
 29 25 l 1
 31 25 l 1
 31 27 l 1
41 27 m 1
 39 27 l 1
 39 25 l 1
 41 25 l 1
 41 27 l 1
44 43 m 1
 42 43 l 1
 42 41 l 1
 43 41 l 1
 43 42 l 1
 44 42 l 1
 44 43 l 1
45 42 m 1
 44 42 l 1
 44 41 l 1
 46 41 l 1
 46 43 l 1
 45 43 l 1
 45 42 l 1
49 43 m 1
 47 43 l 1
 47 41 l 1
 49 41 l 1
 49 43 l 1
55 43 m 1
 53 43 l 1
 53 41 l 1
 55 41 l 1
 55 43 l 1
58 43 m 1
 56 43 l 1
 56 41 l 1
 57 41 l 1
 57 42 l 1
 58 42 l 1
 58 43 l 1
59 42 m 1
 58 42 l 1
 58 41 l 1
 60 41 l 1
 60 43 l 1
 59 43 l 1
 59 42 l 1
63 43 m 1
 61 43 l 1
 61 41 l 1
 63 41 l 1
 63 43 l 1
43 35 m 1
 42 35 l 1
 42 33 l 1
 44 33 l 1
 44 34 l 1
 43 34 l 1
 43 35 l 1
46 35 m 1
 44 35 l 1
 44 34 l 1
 45 34 l 1
 45 33 l 1
 46 33 l 1
 46 35 l 1
49 35 m 1
 47 35 l 1
 47 33 l 1
 49 33 l 1
 49 35 l 1
55 39 m 1
 53 39 l 1
 53 37 l 1
 55 37 l 1
 55 39 l 1
55 35 m 1
 53 35 l 1
 53 33 l 1
 55 33 l 1
 55 35 l 1
57 35 m 1
 56 35 l 1
 56 33 l 1
 58 33 l 1
 58 34 l 1
 57 34 l 1
 57 35 l 1
49 31 m 1
 47 31 l 1
 47 29 l 1
 49 29 l 1
 49 31 l 1
44 27 m 1
 42 27 l 1
 42 25 l 1
 43 25 l 1
 43 26 l 1
 44 26 l 1
 44 27 l 1
45 26 m 1
 44 26 l 1
 44 25 l 1
 46 25 l 1
 46 27 l 1
 45 27 l 1
 45 26 l 1
49 27 m 1
 47 27 l 1
 47 25 l 1
 49 25 l 1
 49 27 l 1
55 31 m 1
 53 31 l 1
 53 29 l 1
 55 29 l 1
 55 31 l 1
55 27 m 1
 53 27 l 1
 53 25 l 1
 55 25 l 1
 55 27 l 1
58 27 m 1
 56 27 l 1
 56 25 l 1
 57 25 l 1
 57 26 l 1
 58 26 l 1
 58 27 l 1
60 35 m 1
 58 35 l 1
 58 34 l 1
 59 34 l 1
 59 33 l 1
 60 33 l 1
 60 35 l 1
63 35 m 1
 61 35 l 1
 61 33 l 1
 63 33 l 1
 63 35 l 1
63 31 m 1
 61 31 l 1
 61 29 l 1
 63 29 l 1
 63 31 l 1
59 26 m 1
 58 26 l 1
 58 25 l 1
 60 25 l 1
 60 27 l 1
 59 27 l 1
 59 26 l 1
63 27 m 1
 61 27 l 1
 61 25 l 1
 63 25 l 1
 63 27 l 1
EndSplineSet
EndChar

StartChar: custom_5_6_0_4_5
Encoding: 36813 36813 16845
Width: 70
Flags: H
LayerCount: 2
Fore
SplineSet
23 43 m 1
 21 43 l 1
 21 41 l 1
 23 41 l 1
 23 43 l 1
26 43 m 1
 24 43 l 1
 24 41 l 1
 25 41 l 1
 25 42 l 1
 26 42 l 1
 26 43 l 1
27 42 m 1
 26 42 l 1
 26 41 l 1
 28 41 l 1
 28 43 l 1
 27 43 l 1
 27 42 l 1
31 43 m 1
 29 43 l 1
 29 41 l 1
 31 41 l 1
 31 43 l 1
41 43 m 1
 39 43 l 1
 39 41 l 1
 41 41 l 1
 41 43 l 1
23 35 m 1
 21 35 l 1
 21 33 l 1
 23 33 l 1
 23 35 l 1
25 35 m 1
 24 35 l 1
 24 33 l 1
 26 33 l 1
 26 34 l 1
 25 34 l 1
 25 35 l 1
23 31 m 1
 21 31 l 1
 21 29 l 1
 23 29 l 1
 23 31 l 1
23 27 m 1
 21 27 l 1
 21 25 l 1
 23 25 l 1
 23 27 l 1
26 27 m 1
 24 27 l 1
 24 25 l 1
 25 25 l 1
 25 26 l 1
 26 26 l 1
 26 27 l 1
31 39 m 1
 29 39 l 1
 29 37 l 1
 31 37 l 1
 31 39 l 1
28 35 m 1
 26 35 l 1
 26 34 l 1
 27 34 l 1
 27 33 l 1
 28 33 l 1
 28 35 l 1
31 35 m 1
 29 35 l 1
 29 33 l 1
 31 33 l 1
 31 35 l 1
36 37 m 1
 34 37 l 1
 34 35 l 1
 36 35 l 1
 36 37 l 1
41 39 m 1
 39 39 l 1
 39 37 l 1
 41 37 l 1
 41 39 l 1
36 33 m 1
 34 33 l 1
 34 31 l 1
 36 31 l 1
 36 33 l 1
41 35 m 1
 39 35 l 1
 39 33 l 1
 41 33 l 1
 41 35 l 1
27 26 m 1
 26 26 l 1
 26 25 l 1
 28 25 l 1
 28 27 l 1
 27 27 l 1
 27 26 l 1
31 27 m 1
 29 27 l 1
 29 25 l 1
 31 25 l 1
 31 27 l 1
41 27 m 1
 39 27 l 1
 39 25 l 1
 41 25 l 1
 41 27 l 1
44 43 m 1
 42 43 l 1
 42 41 l 1
 43 41 l 1
 43 42 l 1
 44 42 l 1
 44 43 l 1
45 42 m 1
 44 42 l 1
 44 41 l 1
 46 41 l 1
 46 43 l 1
 45 43 l 1
 45 42 l 1
49 43 m 1
 47 43 l 1
 47 41 l 1
 49 41 l 1
 49 43 l 1
55 43 m 1
 53 43 l 1
 53 41 l 1
 55 41 l 1
 55 43 l 1
58 43 m 1
 56 43 l 1
 56 41 l 1
 57 41 l 1
 57 42 l 1
 58 42 l 1
 58 43 l 1
59 42 m 1
 58 42 l 1
 58 41 l 1
 60 41 l 1
 60 43 l 1
 59 43 l 1
 59 42 l 1
63 43 m 1
 61 43 l 1
 61 41 l 1
 63 41 l 1
 63 43 l 1
43 35 m 1
 42 35 l 1
 42 33 l 1
 44 33 l 1
 44 34 l 1
 43 34 l 1
 43 35 l 1
46 35 m 1
 44 35 l 1
 44 34 l 1
 45 34 l 1
 45 33 l 1
 46 33 l 1
 46 35 l 1
49 35 m 1
 47 35 l 1
 47 33 l 1
 49 33 l 1
 49 35 l 1
55 39 m 1
 53 39 l 1
 53 37 l 1
 55 37 l 1
 55 39 l 1
55 35 m 1
 53 35 l 1
 53 33 l 1
 55 33 l 1
 55 35 l 1
57 35 m 1
 56 35 l 1
 56 33 l 1
 58 33 l 1
 58 34 l 1
 57 34 l 1
 57 35 l 1
49 31 m 1
 47 31 l 1
 47 29 l 1
 49 29 l 1
 49 31 l 1
44 27 m 1
 42 27 l 1
 42 25 l 1
 43 25 l 1
 43 26 l 1
 44 26 l 1
 44 27 l 1
45 26 m 1
 44 26 l 1
 44 25 l 1
 46 25 l 1
 46 27 l 1
 45 27 l 1
 45 26 l 1
49 27 m 1
 47 27 l 1
 47 25 l 1
 49 25 l 1
 49 27 l 1
55 31 m 1
 53 31 l 1
 53 29 l 1
 55 29 l 1
 55 31 l 1
55 27 m 1
 53 27 l 1
 53 25 l 1
 55 25 l 1
 55 27 l 1
58 27 m 1
 56 27 l 1
 56 25 l 1
 57 25 l 1
 57 26 l 1
 58 26 l 1
 58 27 l 1
60 35 m 1
 58 35 l 1
 58 34 l 1
 59 34 l 1
 59 33 l 1
 60 33 l 1
 60 35 l 1
63 35 m 1
 61 35 l 1
 61 33 l 1
 63 33 l 1
 63 35 l 1
63 31 m 1
 61 31 l 1
 61 29 l 1
 63 29 l 1
 63 31 l 1
59 26 m 1
 58 26 l 1
 58 25 l 1
 60 25 l 1
 60 27 l 1
 59 27 l 1
 59 26 l 1
63 27 m 1
 61 27 l 1
 61 25 l 1
 63 25 l 1
 63 27 l 1
EndSplineSet
EndChar

StartChar: custom_5_6_0_4_6
Encoding: 36814 36814 16846
Width: 70
Flags: H
LayerCount: 2
Fore
SplineSet
23 43 m 1
 21 43 l 1
 21 41 l 1
 23 41 l 1
 23 43 l 1
26 43 m 1
 24 43 l 1
 24 41 l 1
 25 41 l 1
 25 42 l 1
 26 42 l 1
 26 43 l 1
27 42 m 1
 26 42 l 1
 26 41 l 1
 28 41 l 1
 28 43 l 1
 27 43 l 1
 27 42 l 1
31 43 m 1
 29 43 l 1
 29 41 l 1
 31 41 l 1
 31 43 l 1
41 43 m 1
 39 43 l 1
 39 41 l 1
 41 41 l 1
 41 43 l 1
23 35 m 1
 21 35 l 1
 21 33 l 1
 23 33 l 1
 23 35 l 1
25 35 m 1
 24 35 l 1
 24 33 l 1
 26 33 l 1
 26 34 l 1
 25 34 l 1
 25 35 l 1
23 31 m 1
 21 31 l 1
 21 29 l 1
 23 29 l 1
 23 31 l 1
23 27 m 1
 21 27 l 1
 21 25 l 1
 23 25 l 1
 23 27 l 1
26 27 m 1
 24 27 l 1
 24 25 l 1
 25 25 l 1
 25 26 l 1
 26 26 l 1
 26 27 l 1
31 39 m 1
 29 39 l 1
 29 37 l 1
 31 37 l 1
 31 39 l 1
28 35 m 1
 26 35 l 1
 26 34 l 1
 27 34 l 1
 27 33 l 1
 28 33 l 1
 28 35 l 1
31 35 m 1
 29 35 l 1
 29 33 l 1
 31 33 l 1
 31 35 l 1
36 37 m 1
 34 37 l 1
 34 35 l 1
 36 35 l 1
 36 37 l 1
41 39 m 1
 39 39 l 1
 39 37 l 1
 41 37 l 1
 41 39 l 1
36 33 m 1
 34 33 l 1
 34 31 l 1
 36 31 l 1
 36 33 l 1
41 35 m 1
 39 35 l 1
 39 33 l 1
 41 33 l 1
 41 35 l 1
27 26 m 1
 26 26 l 1
 26 25 l 1
 28 25 l 1
 28 27 l 1
 27 27 l 1
 27 26 l 1
31 27 m 1
 29 27 l 1
 29 25 l 1
 31 25 l 1
 31 27 l 1
41 27 m 1
 39 27 l 1
 39 25 l 1
 41 25 l 1
 41 27 l 1
44 43 m 1
 42 43 l 1
 42 41 l 1
 43 41 l 1
 43 42 l 1
 44 42 l 1
 44 43 l 1
45 42 m 1
 44 42 l 1
 44 41 l 1
 46 41 l 1
 46 43 l 1
 45 43 l 1
 45 42 l 1
49 43 m 1
 47 43 l 1
 47 41 l 1
 49 41 l 1
 49 43 l 1
55 43 m 1
 53 43 l 1
 53 41 l 1
 55 41 l 1
 55 43 l 1
58 43 m 1
 56 43 l 1
 56 41 l 1
 57 41 l 1
 57 42 l 1
 58 42 l 1
 58 43 l 1
59 42 m 1
 58 42 l 1
 58 41 l 1
 60 41 l 1
 60 43 l 1
 59 43 l 1
 59 42 l 1
63 43 m 1
 61 43 l 1
 61 41 l 1
 63 41 l 1
 63 43 l 1
43 35 m 1
 42 35 l 1
 42 33 l 1
 44 33 l 1
 44 34 l 1
 43 34 l 1
 43 35 l 1
46 35 m 1
 44 35 l 1
 44 34 l 1
 45 34 l 1
 45 33 l 1
 46 33 l 1
 46 35 l 1
49 35 m 1
 47 35 l 1
 47 33 l 1
 49 33 l 1
 49 35 l 1
55 39 m 1
 53 39 l 1
 53 37 l 1
 55 37 l 1
 55 39 l 1
55 35 m 1
 53 35 l 1
 53 33 l 1
 55 33 l 1
 55 35 l 1
57 35 m 1
 56 35 l 1
 56 33 l 1
 58 33 l 1
 58 34 l 1
 57 34 l 1
 57 35 l 1
49 31 m 1
 47 31 l 1
 47 29 l 1
 49 29 l 1
 49 31 l 1
44 27 m 1
 42 27 l 1
 42 25 l 1
 43 25 l 1
 43 26 l 1
 44 26 l 1
 44 27 l 1
45 26 m 1
 44 26 l 1
 44 25 l 1
 46 25 l 1
 46 27 l 1
 45 27 l 1
 45 26 l 1
49 27 m 1
 47 27 l 1
 47 25 l 1
 49 25 l 1
 49 27 l 1
55 31 m 1
 53 31 l 1
 53 29 l 1
 55 29 l 1
 55 31 l 1
55 27 m 1
 53 27 l 1
 53 25 l 1
 55 25 l 1
 55 27 l 1
58 27 m 1
 56 27 l 1
 56 25 l 1
 57 25 l 1
 57 26 l 1
 58 26 l 1
 58 27 l 1
60 35 m 1
 58 35 l 1
 58 34 l 1
 59 34 l 1
 59 33 l 1
 60 33 l 1
 60 35 l 1
63 35 m 1
 61 35 l 1
 61 33 l 1
 63 33 l 1
 63 35 l 1
63 31 m 1
 61 31 l 1
 61 29 l 1
 63 29 l 1
 63 31 l 1
59 26 m 1
 58 26 l 1
 58 25 l 1
 60 25 l 1
 60 27 l 1
 59 27 l 1
 59 26 l 1
63 27 m 1
 61 27 l 1
 61 25 l 1
 63 25 l 1
 63 27 l 1
EndSplineSet
EndChar

StartChar: custom_5_6_0_4_7
Encoding: 36815 36815 16847
Width: 70
Flags: H
LayerCount: 2
Fore
SplineSet
23 43 m 1
 21 43 l 1
 21 41 l 1
 23 41 l 1
 23 43 l 1
26 43 m 1
 24 43 l 1
 24 41 l 1
 25 41 l 1
 25 42 l 1
 26 42 l 1
 26 43 l 1
27 42 m 1
 26 42 l 1
 26 41 l 1
 28 41 l 1
 28 43 l 1
 27 43 l 1
 27 42 l 1
31 43 m 1
 29 43 l 1
 29 41 l 1
 31 41 l 1
 31 43 l 1
41 43 m 1
 39 43 l 1
 39 41 l 1
 41 41 l 1
 41 43 l 1
23 35 m 1
 21 35 l 1
 21 33 l 1
 23 33 l 1
 23 35 l 1
25 35 m 1
 24 35 l 1
 24 33 l 1
 26 33 l 1
 26 34 l 1
 25 34 l 1
 25 35 l 1
23 31 m 1
 21 31 l 1
 21 29 l 1
 23 29 l 1
 23 31 l 1
23 27 m 1
 21 27 l 1
 21 25 l 1
 23 25 l 1
 23 27 l 1
26 27 m 1
 24 27 l 1
 24 25 l 1
 25 25 l 1
 25 26 l 1
 26 26 l 1
 26 27 l 1
31 39 m 1
 29 39 l 1
 29 37 l 1
 31 37 l 1
 31 39 l 1
28 35 m 1
 26 35 l 1
 26 34 l 1
 27 34 l 1
 27 33 l 1
 28 33 l 1
 28 35 l 1
31 35 m 1
 29 35 l 1
 29 33 l 1
 31 33 l 1
 31 35 l 1
36 37 m 1
 34 37 l 1
 34 35 l 1
 36 35 l 1
 36 37 l 1
41 39 m 1
 39 39 l 1
 39 37 l 1
 41 37 l 1
 41 39 l 1
36 33 m 1
 34 33 l 1
 34 31 l 1
 36 31 l 1
 36 33 l 1
41 35 m 1
 39 35 l 1
 39 33 l 1
 41 33 l 1
 41 35 l 1
27 26 m 1
 26 26 l 1
 26 25 l 1
 28 25 l 1
 28 27 l 1
 27 27 l 1
 27 26 l 1
31 27 m 1
 29 27 l 1
 29 25 l 1
 31 25 l 1
 31 27 l 1
41 27 m 1
 39 27 l 1
 39 25 l 1
 41 25 l 1
 41 27 l 1
44 43 m 1
 42 43 l 1
 42 41 l 1
 43 41 l 1
 43 42 l 1
 44 42 l 1
 44 43 l 1
45 42 m 1
 44 42 l 1
 44 41 l 1
 46 41 l 1
 46 43 l 1
 45 43 l 1
 45 42 l 1
49 43 m 1
 47 43 l 1
 47 41 l 1
 49 41 l 1
 49 43 l 1
55 43 m 1
 53 43 l 1
 53 41 l 1
 55 41 l 1
 55 43 l 1
58 43 m 1
 56 43 l 1
 56 41 l 1
 57 41 l 1
 57 42 l 1
 58 42 l 1
 58 43 l 1
59 42 m 1
 58 42 l 1
 58 41 l 1
 60 41 l 1
 60 43 l 1
 59 43 l 1
 59 42 l 1
63 43 m 1
 61 43 l 1
 61 41 l 1
 63 41 l 1
 63 43 l 1
43 35 m 1
 42 35 l 1
 42 33 l 1
 44 33 l 1
 44 34 l 1
 43 34 l 1
 43 35 l 1
46 35 m 1
 44 35 l 1
 44 34 l 1
 45 34 l 1
 45 33 l 1
 46 33 l 1
 46 35 l 1
49 35 m 1
 47 35 l 1
 47 33 l 1
 49 33 l 1
 49 35 l 1
55 39 m 1
 53 39 l 1
 53 37 l 1
 55 37 l 1
 55 39 l 1
55 35 m 1
 53 35 l 1
 53 33 l 1
 55 33 l 1
 55 35 l 1
57 35 m 1
 56 35 l 1
 56 33 l 1
 58 33 l 1
 58 34 l 1
 57 34 l 1
 57 35 l 1
49 31 m 1
 47 31 l 1
 47 29 l 1
 49 29 l 1
 49 31 l 1
44 27 m 1
 42 27 l 1
 42 25 l 1
 43 25 l 1
 43 26 l 1
 44 26 l 1
 44 27 l 1
45 26 m 1
 44 26 l 1
 44 25 l 1
 46 25 l 1
 46 27 l 1
 45 27 l 1
 45 26 l 1
49 27 m 1
 47 27 l 1
 47 25 l 1
 49 25 l 1
 49 27 l 1
55 31 m 1
 53 31 l 1
 53 29 l 1
 55 29 l 1
 55 31 l 1
55 27 m 1
 53 27 l 1
 53 25 l 1
 55 25 l 1
 55 27 l 1
58 27 m 1
 56 27 l 1
 56 25 l 1
 57 25 l 1
 57 26 l 1
 58 26 l 1
 58 27 l 1
60 35 m 1
 58 35 l 1
 58 34 l 1
 59 34 l 1
 59 33 l 1
 60 33 l 1
 60 35 l 1
63 35 m 1
 61 35 l 1
 61 33 l 1
 63 33 l 1
 63 35 l 1
63 31 m 1
 61 31 l 1
 61 29 l 1
 63 29 l 1
 63 31 l 1
59 26 m 1
 58 26 l 1
 58 25 l 1
 60 25 l 1
 60 27 l 1
 59 27 l 1
 59 26 l 1
63 27 m 1
 61 27 l 1
 61 25 l 1
 63 25 l 1
 63 27 l 1
EndSplineSet
EndChar

StartChar: custom_5_6_0_4_8
Encoding: 36816 36816 16848
Width: 70
Flags: H
LayerCount: 2
Fore
SplineSet
23 43 m 1
 21 43 l 1
 21 41 l 1
 23 41 l 1
 23 43 l 1
26 43 m 1
 24 43 l 1
 24 41 l 1
 25 41 l 1
 25 42 l 1
 26 42 l 1
 26 43 l 1
27 42 m 1
 26 42 l 1
 26 41 l 1
 28 41 l 1
 28 43 l 1
 27 43 l 1
 27 42 l 1
31 43 m 1
 29 43 l 1
 29 41 l 1
 31 41 l 1
 31 43 l 1
41 43 m 1
 39 43 l 1
 39 41 l 1
 41 41 l 1
 41 43 l 1
23 35 m 1
 21 35 l 1
 21 33 l 1
 23 33 l 1
 23 35 l 1
25 35 m 1
 24 35 l 1
 24 33 l 1
 26 33 l 1
 26 34 l 1
 25 34 l 1
 25 35 l 1
23 31 m 1
 21 31 l 1
 21 29 l 1
 23 29 l 1
 23 31 l 1
23 27 m 1
 21 27 l 1
 21 25 l 1
 23 25 l 1
 23 27 l 1
26 27 m 1
 24 27 l 1
 24 25 l 1
 25 25 l 1
 25 26 l 1
 26 26 l 1
 26 27 l 1
31 39 m 1
 29 39 l 1
 29 37 l 1
 31 37 l 1
 31 39 l 1
28 35 m 1
 26 35 l 1
 26 34 l 1
 27 34 l 1
 27 33 l 1
 28 33 l 1
 28 35 l 1
31 35 m 1
 29 35 l 1
 29 33 l 1
 31 33 l 1
 31 35 l 1
36 37 m 1
 34 37 l 1
 34 35 l 1
 36 35 l 1
 36 37 l 1
41 39 m 1
 39 39 l 1
 39 37 l 1
 41 37 l 1
 41 39 l 1
36 33 m 1
 34 33 l 1
 34 31 l 1
 36 31 l 1
 36 33 l 1
41 35 m 1
 39 35 l 1
 39 33 l 1
 41 33 l 1
 41 35 l 1
27 26 m 1
 26 26 l 1
 26 25 l 1
 28 25 l 1
 28 27 l 1
 27 27 l 1
 27 26 l 1
31 27 m 1
 29 27 l 1
 29 25 l 1
 31 25 l 1
 31 27 l 1
41 27 m 1
 39 27 l 1
 39 25 l 1
 41 25 l 1
 41 27 l 1
44 43 m 1
 42 43 l 1
 42 41 l 1
 43 41 l 1
 43 42 l 1
 44 42 l 1
 44 43 l 1
45 42 m 1
 44 42 l 1
 44 41 l 1
 46 41 l 1
 46 43 l 1
 45 43 l 1
 45 42 l 1
49 43 m 1
 47 43 l 1
 47 41 l 1
 49 41 l 1
 49 43 l 1
55 43 m 1
 53 43 l 1
 53 41 l 1
 55 41 l 1
 55 43 l 1
58 43 m 1
 56 43 l 1
 56 41 l 1
 57 41 l 1
 57 42 l 1
 58 42 l 1
 58 43 l 1
59 42 m 1
 58 42 l 1
 58 41 l 1
 60 41 l 1
 60 43 l 1
 59 43 l 1
 59 42 l 1
63 43 m 1
 61 43 l 1
 61 41 l 1
 63 41 l 1
 63 43 l 1
43 35 m 1
 42 35 l 1
 42 33 l 1
 44 33 l 1
 44 34 l 1
 43 34 l 1
 43 35 l 1
46 35 m 1
 44 35 l 1
 44 34 l 1
 45 34 l 1
 45 33 l 1
 46 33 l 1
 46 35 l 1
49 35 m 1
 47 35 l 1
 47 33 l 1
 49 33 l 1
 49 35 l 1
55 39 m 1
 53 39 l 1
 53 37 l 1
 55 37 l 1
 55 39 l 1
55 35 m 1
 53 35 l 1
 53 33 l 1
 55 33 l 1
 55 35 l 1
57 35 m 1
 56 35 l 1
 56 33 l 1
 58 33 l 1
 58 34 l 1
 57 34 l 1
 57 35 l 1
49 31 m 1
 47 31 l 1
 47 29 l 1
 49 29 l 1
 49 31 l 1
44 27 m 1
 42 27 l 1
 42 25 l 1
 43 25 l 1
 43 26 l 1
 44 26 l 1
 44 27 l 1
45 26 m 1
 44 26 l 1
 44 25 l 1
 46 25 l 1
 46 27 l 1
 45 27 l 1
 45 26 l 1
49 27 m 1
 47 27 l 1
 47 25 l 1
 49 25 l 1
 49 27 l 1
55 31 m 1
 53 31 l 1
 53 29 l 1
 55 29 l 1
 55 31 l 1
55 27 m 1
 53 27 l 1
 53 25 l 1
 55 25 l 1
 55 27 l 1
58 27 m 1
 56 27 l 1
 56 25 l 1
 57 25 l 1
 57 26 l 1
 58 26 l 1
 58 27 l 1
60 35 m 1
 58 35 l 1
 58 34 l 1
 59 34 l 1
 59 33 l 1
 60 33 l 1
 60 35 l 1
63 35 m 1
 61 35 l 1
 61 33 l 1
 63 33 l 1
 63 35 l 1
63 31 m 1
 61 31 l 1
 61 29 l 1
 63 29 l 1
 63 31 l 1
59 26 m 1
 58 26 l 1
 58 25 l 1
 60 25 l 1
 60 27 l 1
 59 27 l 1
 59 26 l 1
63 27 m 1
 61 27 l 1
 61 25 l 1
 63 25 l 1
 63 27 l 1
EndSplineSet
EndChar

StartChar: custom_5_6_0_4_9
Encoding: 36817 36817 16849
Width: 70
Flags: H
LayerCount: 2
Fore
SplineSet
23 43 m 1
 21 43 l 1
 21 41 l 1
 23 41 l 1
 23 43 l 1
26 43 m 1
 24 43 l 1
 24 41 l 1
 25 41 l 1
 25 42 l 1
 26 42 l 1
 26 43 l 1
27 42 m 1
 26 42 l 1
 26 41 l 1
 28 41 l 1
 28 43 l 1
 27 43 l 1
 27 42 l 1
31 43 m 1
 29 43 l 1
 29 41 l 1
 31 41 l 1
 31 43 l 1
41 43 m 1
 39 43 l 1
 39 41 l 1
 41 41 l 1
 41 43 l 1
23 35 m 1
 21 35 l 1
 21 33 l 1
 23 33 l 1
 23 35 l 1
25 35 m 1
 24 35 l 1
 24 33 l 1
 26 33 l 1
 26 34 l 1
 25 34 l 1
 25 35 l 1
23 31 m 1
 21 31 l 1
 21 29 l 1
 23 29 l 1
 23 31 l 1
23 27 m 1
 21 27 l 1
 21 25 l 1
 23 25 l 1
 23 27 l 1
26 27 m 1
 24 27 l 1
 24 25 l 1
 25 25 l 1
 25 26 l 1
 26 26 l 1
 26 27 l 1
31 39 m 1
 29 39 l 1
 29 37 l 1
 31 37 l 1
 31 39 l 1
28 35 m 1
 26 35 l 1
 26 34 l 1
 27 34 l 1
 27 33 l 1
 28 33 l 1
 28 35 l 1
31 35 m 1
 29 35 l 1
 29 33 l 1
 31 33 l 1
 31 35 l 1
36 37 m 1
 34 37 l 1
 34 35 l 1
 36 35 l 1
 36 37 l 1
41 39 m 1
 39 39 l 1
 39 37 l 1
 41 37 l 1
 41 39 l 1
36 33 m 1
 34 33 l 1
 34 31 l 1
 36 31 l 1
 36 33 l 1
41 35 m 1
 39 35 l 1
 39 33 l 1
 41 33 l 1
 41 35 l 1
27 26 m 1
 26 26 l 1
 26 25 l 1
 28 25 l 1
 28 27 l 1
 27 27 l 1
 27 26 l 1
31 27 m 1
 29 27 l 1
 29 25 l 1
 31 25 l 1
 31 27 l 1
41 27 m 1
 39 27 l 1
 39 25 l 1
 41 25 l 1
 41 27 l 1
44 43 m 1
 42 43 l 1
 42 41 l 1
 43 41 l 1
 43 42 l 1
 44 42 l 1
 44 43 l 1
45 42 m 1
 44 42 l 1
 44 41 l 1
 46 41 l 1
 46 43 l 1
 45 43 l 1
 45 42 l 1
49 43 m 1
 47 43 l 1
 47 41 l 1
 49 41 l 1
 49 43 l 1
55 43 m 1
 53 43 l 1
 53 41 l 1
 55 41 l 1
 55 43 l 1
58 43 m 1
 56 43 l 1
 56 41 l 1
 57 41 l 1
 57 42 l 1
 58 42 l 1
 58 43 l 1
59 42 m 1
 58 42 l 1
 58 41 l 1
 60 41 l 1
 60 43 l 1
 59 43 l 1
 59 42 l 1
63 43 m 1
 61 43 l 1
 61 41 l 1
 63 41 l 1
 63 43 l 1
43 35 m 1
 42 35 l 1
 42 33 l 1
 44 33 l 1
 44 34 l 1
 43 34 l 1
 43 35 l 1
46 35 m 1
 44 35 l 1
 44 34 l 1
 45 34 l 1
 45 33 l 1
 46 33 l 1
 46 35 l 1
49 35 m 1
 47 35 l 1
 47 33 l 1
 49 33 l 1
 49 35 l 1
55 39 m 1
 53 39 l 1
 53 37 l 1
 55 37 l 1
 55 39 l 1
55 35 m 1
 53 35 l 1
 53 33 l 1
 55 33 l 1
 55 35 l 1
57 35 m 1
 56 35 l 1
 56 33 l 1
 58 33 l 1
 58 34 l 1
 57 34 l 1
 57 35 l 1
49 31 m 1
 47 31 l 1
 47 29 l 1
 49 29 l 1
 49 31 l 1
44 27 m 1
 42 27 l 1
 42 25 l 1
 43 25 l 1
 43 26 l 1
 44 26 l 1
 44 27 l 1
45 26 m 1
 44 26 l 1
 44 25 l 1
 46 25 l 1
 46 27 l 1
 45 27 l 1
 45 26 l 1
49 27 m 1
 47 27 l 1
 47 25 l 1
 49 25 l 1
 49 27 l 1
55 31 m 1
 53 31 l 1
 53 29 l 1
 55 29 l 1
 55 31 l 1
55 27 m 1
 53 27 l 1
 53 25 l 1
 55 25 l 1
 55 27 l 1
58 27 m 1
 56 27 l 1
 56 25 l 1
 57 25 l 1
 57 26 l 1
 58 26 l 1
 58 27 l 1
60 35 m 1
 58 35 l 1
 58 34 l 1
 59 34 l 1
 59 33 l 1
 60 33 l 1
 60 35 l 1
63 35 m 1
 61 35 l 1
 61 33 l 1
 63 33 l 1
 63 35 l 1
63 31 m 1
 61 31 l 1
 61 29 l 1
 63 29 l 1
 63 31 l 1
59 26 m 1
 58 26 l 1
 58 25 l 1
 60 25 l 1
 60 27 l 1
 59 27 l 1
 59 26 l 1
63 27 m 1
 61 27 l 1
 61 25 l 1
 63 25 l 1
 63 27 l 1
EndSplineSet
EndChar

StartChar: custom_5_6_0_5_0
Encoding: 36818 36818 16850
Width: 70
Flags: H
LayerCount: 2
Fore
SplineSet
23 43 m 1
 21 43 l 1
 21 41 l 1
 23 41 l 1
 23 43 l 1
26 43 m 1
 24 43 l 1
 24 41 l 1
 25 41 l 1
 25 42 l 1
 26 42 l 1
 26 43 l 1
27 42 m 1
 26 42 l 1
 26 41 l 1
 28 41 l 1
 28 43 l 1
 27 43 l 1
 27 42 l 1
31 43 m 1
 29 43 l 1
 29 41 l 1
 31 41 l 1
 31 43 l 1
41 43 m 1
 39 43 l 1
 39 41 l 1
 41 41 l 1
 41 43 l 1
23 35 m 1
 21 35 l 1
 21 33 l 1
 23 33 l 1
 23 35 l 1
25 35 m 1
 24 35 l 1
 24 33 l 1
 26 33 l 1
 26 34 l 1
 25 34 l 1
 25 35 l 1
23 31 m 1
 21 31 l 1
 21 29 l 1
 23 29 l 1
 23 31 l 1
23 27 m 1
 21 27 l 1
 21 25 l 1
 23 25 l 1
 23 27 l 1
26 27 m 1
 24 27 l 1
 24 25 l 1
 25 25 l 1
 25 26 l 1
 26 26 l 1
 26 27 l 1
31 39 m 1
 29 39 l 1
 29 37 l 1
 31 37 l 1
 31 39 l 1
28 35 m 1
 26 35 l 1
 26 34 l 1
 27 34 l 1
 27 33 l 1
 28 33 l 1
 28 35 l 1
31 35 m 1
 29 35 l 1
 29 33 l 1
 31 33 l 1
 31 35 l 1
36 37 m 1
 34 37 l 1
 34 35 l 1
 36 35 l 1
 36 37 l 1
41 39 m 1
 39 39 l 1
 39 37 l 1
 41 37 l 1
 41 39 l 1
36 33 m 1
 34 33 l 1
 34 31 l 1
 36 31 l 1
 36 33 l 1
41 35 m 1
 39 35 l 1
 39 33 l 1
 41 33 l 1
 41 35 l 1
27 26 m 1
 26 26 l 1
 26 25 l 1
 28 25 l 1
 28 27 l 1
 27 27 l 1
 27 26 l 1
31 27 m 1
 29 27 l 1
 29 25 l 1
 31 25 l 1
 31 27 l 1
41 27 m 1
 39 27 l 1
 39 25 l 1
 41 25 l 1
 41 27 l 1
44 43 m 1
 42 43 l 1
 42 41 l 1
 43 41 l 1
 43 42 l 1
 44 42 l 1
 44 43 l 1
45 42 m 1
 44 42 l 1
 44 41 l 1
 46 41 l 1
 46 43 l 1
 45 43 l 1
 45 42 l 1
49 43 m 1
 47 43 l 1
 47 41 l 1
 49 41 l 1
 49 43 l 1
55 43 m 1
 53 43 l 1
 53 41 l 1
 55 41 l 1
 55 43 l 1
58 43 m 1
 56 43 l 1
 56 41 l 1
 57 41 l 1
 57 42 l 1
 58 42 l 1
 58 43 l 1
59 42 m 1
 58 42 l 1
 58 41 l 1
 60 41 l 1
 60 43 l 1
 59 43 l 1
 59 42 l 1
63 43 m 1
 61 43 l 1
 61 41 l 1
 63 41 l 1
 63 43 l 1
43 35 m 1
 42 35 l 1
 42 33 l 1
 44 33 l 1
 44 34 l 1
 43 34 l 1
 43 35 l 1
46 35 m 1
 44 35 l 1
 44 34 l 1
 45 34 l 1
 45 33 l 1
 46 33 l 1
 46 35 l 1
49 35 m 1
 47 35 l 1
 47 33 l 1
 49 33 l 1
 49 35 l 1
55 39 m 1
 53 39 l 1
 53 37 l 1
 55 37 l 1
 55 39 l 1
55 35 m 1
 53 35 l 1
 53 33 l 1
 55 33 l 1
 55 35 l 1
57 35 m 1
 56 35 l 1
 56 33 l 1
 58 33 l 1
 58 34 l 1
 57 34 l 1
 57 35 l 1
49 31 m 1
 47 31 l 1
 47 29 l 1
 49 29 l 1
 49 31 l 1
44 27 m 1
 42 27 l 1
 42 25 l 1
 43 25 l 1
 43 26 l 1
 44 26 l 1
 44 27 l 1
45 26 m 1
 44 26 l 1
 44 25 l 1
 46 25 l 1
 46 27 l 1
 45 27 l 1
 45 26 l 1
49 27 m 1
 47 27 l 1
 47 25 l 1
 49 25 l 1
 49 27 l 1
55 31 m 1
 53 31 l 1
 53 29 l 1
 55 29 l 1
 55 31 l 1
55 27 m 1
 53 27 l 1
 53 25 l 1
 55 25 l 1
 55 27 l 1
58 27 m 1
 56 27 l 1
 56 25 l 1
 57 25 l 1
 57 26 l 1
 58 26 l 1
 58 27 l 1
60 35 m 1
 58 35 l 1
 58 34 l 1
 59 34 l 1
 59 33 l 1
 60 33 l 1
 60 35 l 1
63 35 m 1
 61 35 l 1
 61 33 l 1
 63 33 l 1
 63 35 l 1
63 31 m 1
 61 31 l 1
 61 29 l 1
 63 29 l 1
 63 31 l 1
59 26 m 1
 58 26 l 1
 58 25 l 1
 60 25 l 1
 60 27 l 1
 59 27 l 1
 59 26 l 1
63 27 m 1
 61 27 l 1
 61 25 l 1
 63 25 l 1
 63 27 l 1
EndSplineSet
EndChar

StartChar: custom_5_6_0_5_1
Encoding: 36819 36819 16851
Width: 70
Flags: H
LayerCount: 2
Fore
SplineSet
23 43 m 1
 21 43 l 1
 21 41 l 1
 23 41 l 1
 23 43 l 1
26 43 m 1
 24 43 l 1
 24 41 l 1
 25 41 l 1
 25 42 l 1
 26 42 l 1
 26 43 l 1
27 42 m 1
 26 42 l 1
 26 41 l 1
 28 41 l 1
 28 43 l 1
 27 43 l 1
 27 42 l 1
31 43 m 1
 29 43 l 1
 29 41 l 1
 31 41 l 1
 31 43 l 1
41 43 m 1
 39 43 l 1
 39 41 l 1
 41 41 l 1
 41 43 l 1
23 35 m 1
 21 35 l 1
 21 33 l 1
 23 33 l 1
 23 35 l 1
25 35 m 1
 24 35 l 1
 24 33 l 1
 26 33 l 1
 26 34 l 1
 25 34 l 1
 25 35 l 1
23 31 m 1
 21 31 l 1
 21 29 l 1
 23 29 l 1
 23 31 l 1
23 27 m 1
 21 27 l 1
 21 25 l 1
 23 25 l 1
 23 27 l 1
26 27 m 1
 24 27 l 1
 24 25 l 1
 25 25 l 1
 25 26 l 1
 26 26 l 1
 26 27 l 1
31 39 m 1
 29 39 l 1
 29 37 l 1
 31 37 l 1
 31 39 l 1
28 35 m 1
 26 35 l 1
 26 34 l 1
 27 34 l 1
 27 33 l 1
 28 33 l 1
 28 35 l 1
31 35 m 1
 29 35 l 1
 29 33 l 1
 31 33 l 1
 31 35 l 1
36 37 m 1
 34 37 l 1
 34 35 l 1
 36 35 l 1
 36 37 l 1
41 39 m 1
 39 39 l 1
 39 37 l 1
 41 37 l 1
 41 39 l 1
36 33 m 1
 34 33 l 1
 34 31 l 1
 36 31 l 1
 36 33 l 1
41 35 m 1
 39 35 l 1
 39 33 l 1
 41 33 l 1
 41 35 l 1
27 26 m 1
 26 26 l 1
 26 25 l 1
 28 25 l 1
 28 27 l 1
 27 27 l 1
 27 26 l 1
31 27 m 1
 29 27 l 1
 29 25 l 1
 31 25 l 1
 31 27 l 1
41 27 m 1
 39 27 l 1
 39 25 l 1
 41 25 l 1
 41 27 l 1
44 43 m 1
 42 43 l 1
 42 41 l 1
 43 41 l 1
 43 42 l 1
 44 42 l 1
 44 43 l 1
45 42 m 1
 44 42 l 1
 44 41 l 1
 46 41 l 1
 46 43 l 1
 45 43 l 1
 45 42 l 1
49 43 m 1
 47 43 l 1
 47 41 l 1
 49 41 l 1
 49 43 l 1
55 43 m 1
 53 43 l 1
 53 41 l 1
 55 41 l 1
 55 43 l 1
58 43 m 1
 56 43 l 1
 56 41 l 1
 57 41 l 1
 57 42 l 1
 58 42 l 1
 58 43 l 1
59 42 m 1
 58 42 l 1
 58 41 l 1
 60 41 l 1
 60 43 l 1
 59 43 l 1
 59 42 l 1
63 43 m 1
 61 43 l 1
 61 41 l 1
 63 41 l 1
 63 43 l 1
43 35 m 1
 42 35 l 1
 42 33 l 1
 44 33 l 1
 44 34 l 1
 43 34 l 1
 43 35 l 1
46 35 m 1
 44 35 l 1
 44 34 l 1
 45 34 l 1
 45 33 l 1
 46 33 l 1
 46 35 l 1
49 35 m 1
 47 35 l 1
 47 33 l 1
 49 33 l 1
 49 35 l 1
55 39 m 1
 53 39 l 1
 53 37 l 1
 55 37 l 1
 55 39 l 1
55 35 m 1
 53 35 l 1
 53 33 l 1
 55 33 l 1
 55 35 l 1
57 35 m 1
 56 35 l 1
 56 33 l 1
 58 33 l 1
 58 34 l 1
 57 34 l 1
 57 35 l 1
49 31 m 1
 47 31 l 1
 47 29 l 1
 49 29 l 1
 49 31 l 1
44 27 m 1
 42 27 l 1
 42 25 l 1
 43 25 l 1
 43 26 l 1
 44 26 l 1
 44 27 l 1
45 26 m 1
 44 26 l 1
 44 25 l 1
 46 25 l 1
 46 27 l 1
 45 27 l 1
 45 26 l 1
49 27 m 1
 47 27 l 1
 47 25 l 1
 49 25 l 1
 49 27 l 1
55 31 m 1
 53 31 l 1
 53 29 l 1
 55 29 l 1
 55 31 l 1
55 27 m 1
 53 27 l 1
 53 25 l 1
 55 25 l 1
 55 27 l 1
58 27 m 1
 56 27 l 1
 56 25 l 1
 57 25 l 1
 57 26 l 1
 58 26 l 1
 58 27 l 1
60 35 m 1
 58 35 l 1
 58 34 l 1
 59 34 l 1
 59 33 l 1
 60 33 l 1
 60 35 l 1
63 35 m 1
 61 35 l 1
 61 33 l 1
 63 33 l 1
 63 35 l 1
63 31 m 1
 61 31 l 1
 61 29 l 1
 63 29 l 1
 63 31 l 1
59 26 m 1
 58 26 l 1
 58 25 l 1
 60 25 l 1
 60 27 l 1
 59 27 l 1
 59 26 l 1
63 27 m 1
 61 27 l 1
 61 25 l 1
 63 25 l 1
 63 27 l 1
EndSplineSet
EndChar

StartChar: custom_5_6_0_5_2
Encoding: 36820 36820 16852
Width: 70
Flags: H
LayerCount: 2
Fore
SplineSet
23 43 m 1
 21 43 l 1
 21 41 l 1
 23 41 l 1
 23 43 l 1
26 43 m 1
 24 43 l 1
 24 41 l 1
 25 41 l 1
 25 42 l 1
 26 42 l 1
 26 43 l 1
27 42 m 1
 26 42 l 1
 26 41 l 1
 28 41 l 1
 28 43 l 1
 27 43 l 1
 27 42 l 1
31 43 m 1
 29 43 l 1
 29 41 l 1
 31 41 l 1
 31 43 l 1
41 43 m 1
 39 43 l 1
 39 41 l 1
 41 41 l 1
 41 43 l 1
23 35 m 1
 21 35 l 1
 21 33 l 1
 23 33 l 1
 23 35 l 1
25 35 m 1
 24 35 l 1
 24 33 l 1
 26 33 l 1
 26 34 l 1
 25 34 l 1
 25 35 l 1
23 31 m 1
 21 31 l 1
 21 29 l 1
 23 29 l 1
 23 31 l 1
23 27 m 1
 21 27 l 1
 21 25 l 1
 23 25 l 1
 23 27 l 1
26 27 m 1
 24 27 l 1
 24 25 l 1
 25 25 l 1
 25 26 l 1
 26 26 l 1
 26 27 l 1
31 39 m 1
 29 39 l 1
 29 37 l 1
 31 37 l 1
 31 39 l 1
28 35 m 1
 26 35 l 1
 26 34 l 1
 27 34 l 1
 27 33 l 1
 28 33 l 1
 28 35 l 1
31 35 m 1
 29 35 l 1
 29 33 l 1
 31 33 l 1
 31 35 l 1
36 37 m 1
 34 37 l 1
 34 35 l 1
 36 35 l 1
 36 37 l 1
41 39 m 1
 39 39 l 1
 39 37 l 1
 41 37 l 1
 41 39 l 1
36 33 m 1
 34 33 l 1
 34 31 l 1
 36 31 l 1
 36 33 l 1
41 35 m 1
 39 35 l 1
 39 33 l 1
 41 33 l 1
 41 35 l 1
27 26 m 1
 26 26 l 1
 26 25 l 1
 28 25 l 1
 28 27 l 1
 27 27 l 1
 27 26 l 1
31 27 m 1
 29 27 l 1
 29 25 l 1
 31 25 l 1
 31 27 l 1
41 27 m 1
 39 27 l 1
 39 25 l 1
 41 25 l 1
 41 27 l 1
44 43 m 1
 42 43 l 1
 42 41 l 1
 43 41 l 1
 43 42 l 1
 44 42 l 1
 44 43 l 1
45 42 m 1
 44 42 l 1
 44 41 l 1
 46 41 l 1
 46 43 l 1
 45 43 l 1
 45 42 l 1
49 43 m 1
 47 43 l 1
 47 41 l 1
 49 41 l 1
 49 43 l 1
55 43 m 1
 53 43 l 1
 53 41 l 1
 55 41 l 1
 55 43 l 1
58 43 m 1
 56 43 l 1
 56 41 l 1
 57 41 l 1
 57 42 l 1
 58 42 l 1
 58 43 l 1
59 42 m 1
 58 42 l 1
 58 41 l 1
 60 41 l 1
 60 43 l 1
 59 43 l 1
 59 42 l 1
63 43 m 1
 61 43 l 1
 61 41 l 1
 63 41 l 1
 63 43 l 1
43 35 m 1
 42 35 l 1
 42 33 l 1
 44 33 l 1
 44 34 l 1
 43 34 l 1
 43 35 l 1
46 35 m 1
 44 35 l 1
 44 34 l 1
 45 34 l 1
 45 33 l 1
 46 33 l 1
 46 35 l 1
49 35 m 1
 47 35 l 1
 47 33 l 1
 49 33 l 1
 49 35 l 1
55 39 m 1
 53 39 l 1
 53 37 l 1
 55 37 l 1
 55 39 l 1
55 35 m 1
 53 35 l 1
 53 33 l 1
 55 33 l 1
 55 35 l 1
57 35 m 1
 56 35 l 1
 56 33 l 1
 58 33 l 1
 58 34 l 1
 57 34 l 1
 57 35 l 1
49 31 m 1
 47 31 l 1
 47 29 l 1
 49 29 l 1
 49 31 l 1
44 27 m 1
 42 27 l 1
 42 25 l 1
 43 25 l 1
 43 26 l 1
 44 26 l 1
 44 27 l 1
45 26 m 1
 44 26 l 1
 44 25 l 1
 46 25 l 1
 46 27 l 1
 45 27 l 1
 45 26 l 1
49 27 m 1
 47 27 l 1
 47 25 l 1
 49 25 l 1
 49 27 l 1
55 31 m 1
 53 31 l 1
 53 29 l 1
 55 29 l 1
 55 31 l 1
55 27 m 1
 53 27 l 1
 53 25 l 1
 55 25 l 1
 55 27 l 1
58 27 m 1
 56 27 l 1
 56 25 l 1
 57 25 l 1
 57 26 l 1
 58 26 l 1
 58 27 l 1
60 35 m 1
 58 35 l 1
 58 34 l 1
 59 34 l 1
 59 33 l 1
 60 33 l 1
 60 35 l 1
63 35 m 1
 61 35 l 1
 61 33 l 1
 63 33 l 1
 63 35 l 1
63 31 m 1
 61 31 l 1
 61 29 l 1
 63 29 l 1
 63 31 l 1
59 26 m 1
 58 26 l 1
 58 25 l 1
 60 25 l 1
 60 27 l 1
 59 27 l 1
 59 26 l 1
63 27 m 1
 61 27 l 1
 61 25 l 1
 63 25 l 1
 63 27 l 1
EndSplineSet
EndChar

StartChar: custom_5_6_0_5_3
Encoding: 36821 36821 16853
Width: 70
Flags: H
LayerCount: 2
Fore
SplineSet
23 43 m 1
 21 43 l 1
 21 41 l 1
 23 41 l 1
 23 43 l 1
26 43 m 1
 24 43 l 1
 24 41 l 1
 25 41 l 1
 25 42 l 1
 26 42 l 1
 26 43 l 1
27 42 m 1
 26 42 l 1
 26 41 l 1
 28 41 l 1
 28 43 l 1
 27 43 l 1
 27 42 l 1
31 43 m 1
 29 43 l 1
 29 41 l 1
 31 41 l 1
 31 43 l 1
41 43 m 1
 39 43 l 1
 39 41 l 1
 41 41 l 1
 41 43 l 1
23 35 m 1
 21 35 l 1
 21 33 l 1
 23 33 l 1
 23 35 l 1
25 35 m 1
 24 35 l 1
 24 33 l 1
 26 33 l 1
 26 34 l 1
 25 34 l 1
 25 35 l 1
23 31 m 1
 21 31 l 1
 21 29 l 1
 23 29 l 1
 23 31 l 1
23 27 m 1
 21 27 l 1
 21 25 l 1
 23 25 l 1
 23 27 l 1
26 27 m 1
 24 27 l 1
 24 25 l 1
 25 25 l 1
 25 26 l 1
 26 26 l 1
 26 27 l 1
31 39 m 1
 29 39 l 1
 29 37 l 1
 31 37 l 1
 31 39 l 1
28 35 m 1
 26 35 l 1
 26 34 l 1
 27 34 l 1
 27 33 l 1
 28 33 l 1
 28 35 l 1
31 35 m 1
 29 35 l 1
 29 33 l 1
 31 33 l 1
 31 35 l 1
36 37 m 1
 34 37 l 1
 34 35 l 1
 36 35 l 1
 36 37 l 1
41 39 m 1
 39 39 l 1
 39 37 l 1
 41 37 l 1
 41 39 l 1
36 33 m 1
 34 33 l 1
 34 31 l 1
 36 31 l 1
 36 33 l 1
41 35 m 1
 39 35 l 1
 39 33 l 1
 41 33 l 1
 41 35 l 1
27 26 m 1
 26 26 l 1
 26 25 l 1
 28 25 l 1
 28 27 l 1
 27 27 l 1
 27 26 l 1
31 27 m 1
 29 27 l 1
 29 25 l 1
 31 25 l 1
 31 27 l 1
41 27 m 1
 39 27 l 1
 39 25 l 1
 41 25 l 1
 41 27 l 1
44 43 m 1
 42 43 l 1
 42 41 l 1
 43 41 l 1
 43 42 l 1
 44 42 l 1
 44 43 l 1
45 42 m 1
 44 42 l 1
 44 41 l 1
 46 41 l 1
 46 43 l 1
 45 43 l 1
 45 42 l 1
49 43 m 1
 47 43 l 1
 47 41 l 1
 49 41 l 1
 49 43 l 1
55 43 m 1
 53 43 l 1
 53 41 l 1
 55 41 l 1
 55 43 l 1
58 43 m 1
 56 43 l 1
 56 41 l 1
 57 41 l 1
 57 42 l 1
 58 42 l 1
 58 43 l 1
59 42 m 1
 58 42 l 1
 58 41 l 1
 60 41 l 1
 60 43 l 1
 59 43 l 1
 59 42 l 1
63 43 m 1
 61 43 l 1
 61 41 l 1
 63 41 l 1
 63 43 l 1
43 35 m 1
 42 35 l 1
 42 33 l 1
 44 33 l 1
 44 34 l 1
 43 34 l 1
 43 35 l 1
46 35 m 1
 44 35 l 1
 44 34 l 1
 45 34 l 1
 45 33 l 1
 46 33 l 1
 46 35 l 1
49 35 m 1
 47 35 l 1
 47 33 l 1
 49 33 l 1
 49 35 l 1
55 39 m 1
 53 39 l 1
 53 37 l 1
 55 37 l 1
 55 39 l 1
55 35 m 1
 53 35 l 1
 53 33 l 1
 55 33 l 1
 55 35 l 1
57 35 m 1
 56 35 l 1
 56 33 l 1
 58 33 l 1
 58 34 l 1
 57 34 l 1
 57 35 l 1
49 31 m 1
 47 31 l 1
 47 29 l 1
 49 29 l 1
 49 31 l 1
44 27 m 1
 42 27 l 1
 42 25 l 1
 43 25 l 1
 43 26 l 1
 44 26 l 1
 44 27 l 1
45 26 m 1
 44 26 l 1
 44 25 l 1
 46 25 l 1
 46 27 l 1
 45 27 l 1
 45 26 l 1
49 27 m 1
 47 27 l 1
 47 25 l 1
 49 25 l 1
 49 27 l 1
55 31 m 1
 53 31 l 1
 53 29 l 1
 55 29 l 1
 55 31 l 1
55 27 m 1
 53 27 l 1
 53 25 l 1
 55 25 l 1
 55 27 l 1
58 27 m 1
 56 27 l 1
 56 25 l 1
 57 25 l 1
 57 26 l 1
 58 26 l 1
 58 27 l 1
60 35 m 1
 58 35 l 1
 58 34 l 1
 59 34 l 1
 59 33 l 1
 60 33 l 1
 60 35 l 1
63 35 m 1
 61 35 l 1
 61 33 l 1
 63 33 l 1
 63 35 l 1
63 31 m 1
 61 31 l 1
 61 29 l 1
 63 29 l 1
 63 31 l 1
59 26 m 1
 58 26 l 1
 58 25 l 1
 60 25 l 1
 60 27 l 1
 59 27 l 1
 59 26 l 1
63 27 m 1
 61 27 l 1
 61 25 l 1
 63 25 l 1
 63 27 l 1
EndSplineSet
EndChar

StartChar: custom_5_6_0_5_4
Encoding: 36822 36822 16854
Width: 70
Flags: H
LayerCount: 2
Fore
SplineSet
23 43 m 1
 21 43 l 1
 21 41 l 1
 23 41 l 1
 23 43 l 1
26 43 m 1
 24 43 l 1
 24 41 l 1
 25 41 l 1
 25 42 l 1
 26 42 l 1
 26 43 l 1
27 42 m 1
 26 42 l 1
 26 41 l 1
 28 41 l 1
 28 43 l 1
 27 43 l 1
 27 42 l 1
31 43 m 1
 29 43 l 1
 29 41 l 1
 31 41 l 1
 31 43 l 1
41 43 m 1
 39 43 l 1
 39 41 l 1
 41 41 l 1
 41 43 l 1
23 35 m 1
 21 35 l 1
 21 33 l 1
 23 33 l 1
 23 35 l 1
25 35 m 1
 24 35 l 1
 24 33 l 1
 26 33 l 1
 26 34 l 1
 25 34 l 1
 25 35 l 1
23 31 m 1
 21 31 l 1
 21 29 l 1
 23 29 l 1
 23 31 l 1
23 27 m 1
 21 27 l 1
 21 25 l 1
 23 25 l 1
 23 27 l 1
26 27 m 1
 24 27 l 1
 24 25 l 1
 25 25 l 1
 25 26 l 1
 26 26 l 1
 26 27 l 1
31 39 m 1
 29 39 l 1
 29 37 l 1
 31 37 l 1
 31 39 l 1
28 35 m 1
 26 35 l 1
 26 34 l 1
 27 34 l 1
 27 33 l 1
 28 33 l 1
 28 35 l 1
31 35 m 1
 29 35 l 1
 29 33 l 1
 31 33 l 1
 31 35 l 1
36 37 m 1
 34 37 l 1
 34 35 l 1
 36 35 l 1
 36 37 l 1
41 39 m 1
 39 39 l 1
 39 37 l 1
 41 37 l 1
 41 39 l 1
36 33 m 1
 34 33 l 1
 34 31 l 1
 36 31 l 1
 36 33 l 1
41 35 m 1
 39 35 l 1
 39 33 l 1
 41 33 l 1
 41 35 l 1
27 26 m 1
 26 26 l 1
 26 25 l 1
 28 25 l 1
 28 27 l 1
 27 27 l 1
 27 26 l 1
31 27 m 1
 29 27 l 1
 29 25 l 1
 31 25 l 1
 31 27 l 1
41 27 m 1
 39 27 l 1
 39 25 l 1
 41 25 l 1
 41 27 l 1
44 43 m 1
 42 43 l 1
 42 41 l 1
 43 41 l 1
 43 42 l 1
 44 42 l 1
 44 43 l 1
45 42 m 1
 44 42 l 1
 44 41 l 1
 46 41 l 1
 46 43 l 1
 45 43 l 1
 45 42 l 1
49 43 m 1
 47 43 l 1
 47 41 l 1
 49 41 l 1
 49 43 l 1
55 43 m 1
 53 43 l 1
 53 41 l 1
 55 41 l 1
 55 43 l 1
58 43 m 1
 56 43 l 1
 56 41 l 1
 57 41 l 1
 57 42 l 1
 58 42 l 1
 58 43 l 1
59 42 m 1
 58 42 l 1
 58 41 l 1
 60 41 l 1
 60 43 l 1
 59 43 l 1
 59 42 l 1
63 43 m 1
 61 43 l 1
 61 41 l 1
 63 41 l 1
 63 43 l 1
43 35 m 1
 42 35 l 1
 42 33 l 1
 44 33 l 1
 44 34 l 1
 43 34 l 1
 43 35 l 1
46 35 m 1
 44 35 l 1
 44 34 l 1
 45 34 l 1
 45 33 l 1
 46 33 l 1
 46 35 l 1
49 35 m 1
 47 35 l 1
 47 33 l 1
 49 33 l 1
 49 35 l 1
55 39 m 1
 53 39 l 1
 53 37 l 1
 55 37 l 1
 55 39 l 1
55 35 m 1
 53 35 l 1
 53 33 l 1
 55 33 l 1
 55 35 l 1
57 35 m 1
 56 35 l 1
 56 33 l 1
 58 33 l 1
 58 34 l 1
 57 34 l 1
 57 35 l 1
49 31 m 1
 47 31 l 1
 47 29 l 1
 49 29 l 1
 49 31 l 1
44 27 m 1
 42 27 l 1
 42 25 l 1
 43 25 l 1
 43 26 l 1
 44 26 l 1
 44 27 l 1
45 26 m 1
 44 26 l 1
 44 25 l 1
 46 25 l 1
 46 27 l 1
 45 27 l 1
 45 26 l 1
49 27 m 1
 47 27 l 1
 47 25 l 1
 49 25 l 1
 49 27 l 1
55 31 m 1
 53 31 l 1
 53 29 l 1
 55 29 l 1
 55 31 l 1
55 27 m 1
 53 27 l 1
 53 25 l 1
 55 25 l 1
 55 27 l 1
58 27 m 1
 56 27 l 1
 56 25 l 1
 57 25 l 1
 57 26 l 1
 58 26 l 1
 58 27 l 1
60 35 m 1
 58 35 l 1
 58 34 l 1
 59 34 l 1
 59 33 l 1
 60 33 l 1
 60 35 l 1
63 35 m 1
 61 35 l 1
 61 33 l 1
 63 33 l 1
 63 35 l 1
63 31 m 1
 61 31 l 1
 61 29 l 1
 63 29 l 1
 63 31 l 1
59 26 m 1
 58 26 l 1
 58 25 l 1
 60 25 l 1
 60 27 l 1
 59 27 l 1
 59 26 l 1
63 27 m 1
 61 27 l 1
 61 25 l 1
 63 25 l 1
 63 27 l 1
EndSplineSet
EndChar

StartChar: custom_5_6_0_5_5
Encoding: 36823 36823 16855
Width: 70
Flags: H
LayerCount: 2
Fore
SplineSet
23 43 m 1
 21 43 l 1
 21 41 l 1
 23 41 l 1
 23 43 l 1
26 43 m 1
 24 43 l 1
 24 41 l 1
 25 41 l 1
 25 42 l 1
 26 42 l 1
 26 43 l 1
27 42 m 1
 26 42 l 1
 26 41 l 1
 28 41 l 1
 28 43 l 1
 27 43 l 1
 27 42 l 1
31 43 m 1
 29 43 l 1
 29 41 l 1
 31 41 l 1
 31 43 l 1
41 43 m 1
 39 43 l 1
 39 41 l 1
 41 41 l 1
 41 43 l 1
23 35 m 1
 21 35 l 1
 21 33 l 1
 23 33 l 1
 23 35 l 1
25 35 m 1
 24 35 l 1
 24 33 l 1
 26 33 l 1
 26 34 l 1
 25 34 l 1
 25 35 l 1
23 31 m 1
 21 31 l 1
 21 29 l 1
 23 29 l 1
 23 31 l 1
23 27 m 1
 21 27 l 1
 21 25 l 1
 23 25 l 1
 23 27 l 1
26 27 m 1
 24 27 l 1
 24 25 l 1
 25 25 l 1
 25 26 l 1
 26 26 l 1
 26 27 l 1
31 39 m 1
 29 39 l 1
 29 37 l 1
 31 37 l 1
 31 39 l 1
28 35 m 1
 26 35 l 1
 26 34 l 1
 27 34 l 1
 27 33 l 1
 28 33 l 1
 28 35 l 1
31 35 m 1
 29 35 l 1
 29 33 l 1
 31 33 l 1
 31 35 l 1
36 37 m 1
 34 37 l 1
 34 35 l 1
 36 35 l 1
 36 37 l 1
41 39 m 1
 39 39 l 1
 39 37 l 1
 41 37 l 1
 41 39 l 1
36 33 m 1
 34 33 l 1
 34 31 l 1
 36 31 l 1
 36 33 l 1
41 35 m 1
 39 35 l 1
 39 33 l 1
 41 33 l 1
 41 35 l 1
27 26 m 1
 26 26 l 1
 26 25 l 1
 28 25 l 1
 28 27 l 1
 27 27 l 1
 27 26 l 1
31 27 m 1
 29 27 l 1
 29 25 l 1
 31 25 l 1
 31 27 l 1
41 27 m 1
 39 27 l 1
 39 25 l 1
 41 25 l 1
 41 27 l 1
44 43 m 1
 42 43 l 1
 42 41 l 1
 43 41 l 1
 43 42 l 1
 44 42 l 1
 44 43 l 1
45 42 m 1
 44 42 l 1
 44 41 l 1
 46 41 l 1
 46 43 l 1
 45 43 l 1
 45 42 l 1
49 43 m 1
 47 43 l 1
 47 41 l 1
 49 41 l 1
 49 43 l 1
55 43 m 1
 53 43 l 1
 53 41 l 1
 55 41 l 1
 55 43 l 1
58 43 m 1
 56 43 l 1
 56 41 l 1
 57 41 l 1
 57 42 l 1
 58 42 l 1
 58 43 l 1
59 42 m 1
 58 42 l 1
 58 41 l 1
 60 41 l 1
 60 43 l 1
 59 43 l 1
 59 42 l 1
63 43 m 1
 61 43 l 1
 61 41 l 1
 63 41 l 1
 63 43 l 1
43 35 m 1
 42 35 l 1
 42 33 l 1
 44 33 l 1
 44 34 l 1
 43 34 l 1
 43 35 l 1
46 35 m 1
 44 35 l 1
 44 34 l 1
 45 34 l 1
 45 33 l 1
 46 33 l 1
 46 35 l 1
49 35 m 1
 47 35 l 1
 47 33 l 1
 49 33 l 1
 49 35 l 1
55 39 m 1
 53 39 l 1
 53 37 l 1
 55 37 l 1
 55 39 l 1
55 35 m 1
 53 35 l 1
 53 33 l 1
 55 33 l 1
 55 35 l 1
57 35 m 1
 56 35 l 1
 56 33 l 1
 58 33 l 1
 58 34 l 1
 57 34 l 1
 57 35 l 1
49 31 m 1
 47 31 l 1
 47 29 l 1
 49 29 l 1
 49 31 l 1
44 27 m 1
 42 27 l 1
 42 25 l 1
 43 25 l 1
 43 26 l 1
 44 26 l 1
 44 27 l 1
45 26 m 1
 44 26 l 1
 44 25 l 1
 46 25 l 1
 46 27 l 1
 45 27 l 1
 45 26 l 1
49 27 m 1
 47 27 l 1
 47 25 l 1
 49 25 l 1
 49 27 l 1
55 31 m 1
 53 31 l 1
 53 29 l 1
 55 29 l 1
 55 31 l 1
55 27 m 1
 53 27 l 1
 53 25 l 1
 55 25 l 1
 55 27 l 1
58 27 m 1
 56 27 l 1
 56 25 l 1
 57 25 l 1
 57 26 l 1
 58 26 l 1
 58 27 l 1
60 35 m 1
 58 35 l 1
 58 34 l 1
 59 34 l 1
 59 33 l 1
 60 33 l 1
 60 35 l 1
63 35 m 1
 61 35 l 1
 61 33 l 1
 63 33 l 1
 63 35 l 1
63 31 m 1
 61 31 l 1
 61 29 l 1
 63 29 l 1
 63 31 l 1
59 26 m 1
 58 26 l 1
 58 25 l 1
 60 25 l 1
 60 27 l 1
 59 27 l 1
 59 26 l 1
63 27 m 1
 61 27 l 1
 61 25 l 1
 63 25 l 1
 63 27 l 1
EndSplineSet
EndChar

StartChar: custom_5_6_0_5_6
Encoding: 36824 36824 16856
Width: 70
Flags: H
LayerCount: 2
Fore
SplineSet
23 43 m 1
 21 43 l 1
 21 41 l 1
 23 41 l 1
 23 43 l 1
26 43 m 1
 24 43 l 1
 24 41 l 1
 25 41 l 1
 25 42 l 1
 26 42 l 1
 26 43 l 1
27 42 m 1
 26 42 l 1
 26 41 l 1
 28 41 l 1
 28 43 l 1
 27 43 l 1
 27 42 l 1
31 43 m 1
 29 43 l 1
 29 41 l 1
 31 41 l 1
 31 43 l 1
41 43 m 1
 39 43 l 1
 39 41 l 1
 41 41 l 1
 41 43 l 1
23 35 m 1
 21 35 l 1
 21 33 l 1
 23 33 l 1
 23 35 l 1
25 35 m 1
 24 35 l 1
 24 33 l 1
 26 33 l 1
 26 34 l 1
 25 34 l 1
 25 35 l 1
23 31 m 1
 21 31 l 1
 21 29 l 1
 23 29 l 1
 23 31 l 1
23 27 m 1
 21 27 l 1
 21 25 l 1
 23 25 l 1
 23 27 l 1
26 27 m 1
 24 27 l 1
 24 25 l 1
 25 25 l 1
 25 26 l 1
 26 26 l 1
 26 27 l 1
31 39 m 1
 29 39 l 1
 29 37 l 1
 31 37 l 1
 31 39 l 1
28 35 m 1
 26 35 l 1
 26 34 l 1
 27 34 l 1
 27 33 l 1
 28 33 l 1
 28 35 l 1
31 35 m 1
 29 35 l 1
 29 33 l 1
 31 33 l 1
 31 35 l 1
36 37 m 1
 34 37 l 1
 34 35 l 1
 36 35 l 1
 36 37 l 1
41 39 m 1
 39 39 l 1
 39 37 l 1
 41 37 l 1
 41 39 l 1
36 33 m 1
 34 33 l 1
 34 31 l 1
 36 31 l 1
 36 33 l 1
41 35 m 1
 39 35 l 1
 39 33 l 1
 41 33 l 1
 41 35 l 1
27 26 m 1
 26 26 l 1
 26 25 l 1
 28 25 l 1
 28 27 l 1
 27 27 l 1
 27 26 l 1
31 27 m 1
 29 27 l 1
 29 25 l 1
 31 25 l 1
 31 27 l 1
41 27 m 1
 39 27 l 1
 39 25 l 1
 41 25 l 1
 41 27 l 1
44 43 m 1
 42 43 l 1
 42 41 l 1
 43 41 l 1
 43 42 l 1
 44 42 l 1
 44 43 l 1
45 42 m 1
 44 42 l 1
 44 41 l 1
 46 41 l 1
 46 43 l 1
 45 43 l 1
 45 42 l 1
49 43 m 1
 47 43 l 1
 47 41 l 1
 49 41 l 1
 49 43 l 1
55 43 m 1
 53 43 l 1
 53 41 l 1
 55 41 l 1
 55 43 l 1
58 43 m 1
 56 43 l 1
 56 41 l 1
 57 41 l 1
 57 42 l 1
 58 42 l 1
 58 43 l 1
59 42 m 1
 58 42 l 1
 58 41 l 1
 60 41 l 1
 60 43 l 1
 59 43 l 1
 59 42 l 1
63 43 m 1
 61 43 l 1
 61 41 l 1
 63 41 l 1
 63 43 l 1
43 35 m 1
 42 35 l 1
 42 33 l 1
 44 33 l 1
 44 34 l 1
 43 34 l 1
 43 35 l 1
46 35 m 1
 44 35 l 1
 44 34 l 1
 45 34 l 1
 45 33 l 1
 46 33 l 1
 46 35 l 1
49 35 m 1
 47 35 l 1
 47 33 l 1
 49 33 l 1
 49 35 l 1
55 39 m 1
 53 39 l 1
 53 37 l 1
 55 37 l 1
 55 39 l 1
55 35 m 1
 53 35 l 1
 53 33 l 1
 55 33 l 1
 55 35 l 1
57 35 m 1
 56 35 l 1
 56 33 l 1
 58 33 l 1
 58 34 l 1
 57 34 l 1
 57 35 l 1
49 31 m 1
 47 31 l 1
 47 29 l 1
 49 29 l 1
 49 31 l 1
44 27 m 1
 42 27 l 1
 42 25 l 1
 43 25 l 1
 43 26 l 1
 44 26 l 1
 44 27 l 1
45 26 m 1
 44 26 l 1
 44 25 l 1
 46 25 l 1
 46 27 l 1
 45 27 l 1
 45 26 l 1
49 27 m 1
 47 27 l 1
 47 25 l 1
 49 25 l 1
 49 27 l 1
55 31 m 1
 53 31 l 1
 53 29 l 1
 55 29 l 1
 55 31 l 1
55 27 m 1
 53 27 l 1
 53 25 l 1
 55 25 l 1
 55 27 l 1
58 27 m 1
 56 27 l 1
 56 25 l 1
 57 25 l 1
 57 26 l 1
 58 26 l 1
 58 27 l 1
60 35 m 1
 58 35 l 1
 58 34 l 1
 59 34 l 1
 59 33 l 1
 60 33 l 1
 60 35 l 1
63 35 m 1
 61 35 l 1
 61 33 l 1
 63 33 l 1
 63 35 l 1
63 31 m 1
 61 31 l 1
 61 29 l 1
 63 29 l 1
 63 31 l 1
59 26 m 1
 58 26 l 1
 58 25 l 1
 60 25 l 1
 60 27 l 1
 59 27 l 1
 59 26 l 1
63 27 m 1
 61 27 l 1
 61 25 l 1
 63 25 l 1
 63 27 l 1
EndSplineSet
EndChar

StartChar: custom_5_6_0_5_7
Encoding: 36825 36825 16857
Width: 70
Flags: H
LayerCount: 2
Fore
SplineSet
23 43 m 1
 21 43 l 1
 21 41 l 1
 23 41 l 1
 23 43 l 1
26 43 m 1
 24 43 l 1
 24 41 l 1
 25 41 l 1
 25 42 l 1
 26 42 l 1
 26 43 l 1
27 42 m 1
 26 42 l 1
 26 41 l 1
 28 41 l 1
 28 43 l 1
 27 43 l 1
 27 42 l 1
31 43 m 1
 29 43 l 1
 29 41 l 1
 31 41 l 1
 31 43 l 1
41 43 m 1
 39 43 l 1
 39 41 l 1
 41 41 l 1
 41 43 l 1
23 35 m 1
 21 35 l 1
 21 33 l 1
 23 33 l 1
 23 35 l 1
25 35 m 1
 24 35 l 1
 24 33 l 1
 26 33 l 1
 26 34 l 1
 25 34 l 1
 25 35 l 1
23 31 m 1
 21 31 l 1
 21 29 l 1
 23 29 l 1
 23 31 l 1
23 27 m 1
 21 27 l 1
 21 25 l 1
 23 25 l 1
 23 27 l 1
26 27 m 1
 24 27 l 1
 24 25 l 1
 25 25 l 1
 25 26 l 1
 26 26 l 1
 26 27 l 1
31 39 m 1
 29 39 l 1
 29 37 l 1
 31 37 l 1
 31 39 l 1
28 35 m 1
 26 35 l 1
 26 34 l 1
 27 34 l 1
 27 33 l 1
 28 33 l 1
 28 35 l 1
31 35 m 1
 29 35 l 1
 29 33 l 1
 31 33 l 1
 31 35 l 1
36 37 m 1
 34 37 l 1
 34 35 l 1
 36 35 l 1
 36 37 l 1
41 39 m 1
 39 39 l 1
 39 37 l 1
 41 37 l 1
 41 39 l 1
36 33 m 1
 34 33 l 1
 34 31 l 1
 36 31 l 1
 36 33 l 1
41 35 m 1
 39 35 l 1
 39 33 l 1
 41 33 l 1
 41 35 l 1
27 26 m 1
 26 26 l 1
 26 25 l 1
 28 25 l 1
 28 27 l 1
 27 27 l 1
 27 26 l 1
31 27 m 1
 29 27 l 1
 29 25 l 1
 31 25 l 1
 31 27 l 1
41 27 m 1
 39 27 l 1
 39 25 l 1
 41 25 l 1
 41 27 l 1
44 43 m 1
 42 43 l 1
 42 41 l 1
 43 41 l 1
 43 42 l 1
 44 42 l 1
 44 43 l 1
45 42 m 1
 44 42 l 1
 44 41 l 1
 46 41 l 1
 46 43 l 1
 45 43 l 1
 45 42 l 1
49 43 m 1
 47 43 l 1
 47 41 l 1
 49 41 l 1
 49 43 l 1
55 43 m 1
 53 43 l 1
 53 41 l 1
 55 41 l 1
 55 43 l 1
58 43 m 1
 56 43 l 1
 56 41 l 1
 57 41 l 1
 57 42 l 1
 58 42 l 1
 58 43 l 1
59 42 m 1
 58 42 l 1
 58 41 l 1
 60 41 l 1
 60 43 l 1
 59 43 l 1
 59 42 l 1
63 43 m 1
 61 43 l 1
 61 41 l 1
 63 41 l 1
 63 43 l 1
43 35 m 1
 42 35 l 1
 42 33 l 1
 44 33 l 1
 44 34 l 1
 43 34 l 1
 43 35 l 1
46 35 m 1
 44 35 l 1
 44 34 l 1
 45 34 l 1
 45 33 l 1
 46 33 l 1
 46 35 l 1
49 35 m 1
 47 35 l 1
 47 33 l 1
 49 33 l 1
 49 35 l 1
55 39 m 1
 53 39 l 1
 53 37 l 1
 55 37 l 1
 55 39 l 1
55 35 m 1
 53 35 l 1
 53 33 l 1
 55 33 l 1
 55 35 l 1
57 35 m 1
 56 35 l 1
 56 33 l 1
 58 33 l 1
 58 34 l 1
 57 34 l 1
 57 35 l 1
49 31 m 1
 47 31 l 1
 47 29 l 1
 49 29 l 1
 49 31 l 1
44 27 m 1
 42 27 l 1
 42 25 l 1
 43 25 l 1
 43 26 l 1
 44 26 l 1
 44 27 l 1
45 26 m 1
 44 26 l 1
 44 25 l 1
 46 25 l 1
 46 27 l 1
 45 27 l 1
 45 26 l 1
49 27 m 1
 47 27 l 1
 47 25 l 1
 49 25 l 1
 49 27 l 1
55 31 m 1
 53 31 l 1
 53 29 l 1
 55 29 l 1
 55 31 l 1
55 27 m 1
 53 27 l 1
 53 25 l 1
 55 25 l 1
 55 27 l 1
58 27 m 1
 56 27 l 1
 56 25 l 1
 57 25 l 1
 57 26 l 1
 58 26 l 1
 58 27 l 1
60 35 m 1
 58 35 l 1
 58 34 l 1
 59 34 l 1
 59 33 l 1
 60 33 l 1
 60 35 l 1
63 35 m 1
 61 35 l 1
 61 33 l 1
 63 33 l 1
 63 35 l 1
63 31 m 1
 61 31 l 1
 61 29 l 1
 63 29 l 1
 63 31 l 1
59 26 m 1
 58 26 l 1
 58 25 l 1
 60 25 l 1
 60 27 l 1
 59 27 l 1
 59 26 l 1
63 27 m 1
 61 27 l 1
 61 25 l 1
 63 25 l 1
 63 27 l 1
EndSplineSet
EndChar

StartChar: custom_5_6_0_5_8
Encoding: 36826 36826 16858
Width: 70
Flags: H
LayerCount: 2
Fore
SplineSet
23 43 m 1
 21 43 l 1
 21 41 l 1
 23 41 l 1
 23 43 l 1
26 43 m 1
 24 43 l 1
 24 41 l 1
 25 41 l 1
 25 42 l 1
 26 42 l 1
 26 43 l 1
27 42 m 1
 26 42 l 1
 26 41 l 1
 28 41 l 1
 28 43 l 1
 27 43 l 1
 27 42 l 1
31 43 m 1
 29 43 l 1
 29 41 l 1
 31 41 l 1
 31 43 l 1
41 43 m 1
 39 43 l 1
 39 41 l 1
 41 41 l 1
 41 43 l 1
23 35 m 1
 21 35 l 1
 21 33 l 1
 23 33 l 1
 23 35 l 1
25 35 m 1
 24 35 l 1
 24 33 l 1
 26 33 l 1
 26 34 l 1
 25 34 l 1
 25 35 l 1
23 31 m 1
 21 31 l 1
 21 29 l 1
 23 29 l 1
 23 31 l 1
23 27 m 1
 21 27 l 1
 21 25 l 1
 23 25 l 1
 23 27 l 1
26 27 m 1
 24 27 l 1
 24 25 l 1
 25 25 l 1
 25 26 l 1
 26 26 l 1
 26 27 l 1
31 39 m 1
 29 39 l 1
 29 37 l 1
 31 37 l 1
 31 39 l 1
28 35 m 1
 26 35 l 1
 26 34 l 1
 27 34 l 1
 27 33 l 1
 28 33 l 1
 28 35 l 1
31 35 m 1
 29 35 l 1
 29 33 l 1
 31 33 l 1
 31 35 l 1
36 37 m 1
 34 37 l 1
 34 35 l 1
 36 35 l 1
 36 37 l 1
41 39 m 1
 39 39 l 1
 39 37 l 1
 41 37 l 1
 41 39 l 1
36 33 m 1
 34 33 l 1
 34 31 l 1
 36 31 l 1
 36 33 l 1
41 35 m 1
 39 35 l 1
 39 33 l 1
 41 33 l 1
 41 35 l 1
27 26 m 1
 26 26 l 1
 26 25 l 1
 28 25 l 1
 28 27 l 1
 27 27 l 1
 27 26 l 1
31 27 m 1
 29 27 l 1
 29 25 l 1
 31 25 l 1
 31 27 l 1
41 27 m 1
 39 27 l 1
 39 25 l 1
 41 25 l 1
 41 27 l 1
44 43 m 1
 42 43 l 1
 42 41 l 1
 43 41 l 1
 43 42 l 1
 44 42 l 1
 44 43 l 1
45 42 m 1
 44 42 l 1
 44 41 l 1
 46 41 l 1
 46 43 l 1
 45 43 l 1
 45 42 l 1
49 43 m 1
 47 43 l 1
 47 41 l 1
 49 41 l 1
 49 43 l 1
55 43 m 1
 53 43 l 1
 53 41 l 1
 55 41 l 1
 55 43 l 1
58 43 m 1
 56 43 l 1
 56 41 l 1
 57 41 l 1
 57 42 l 1
 58 42 l 1
 58 43 l 1
59 42 m 1
 58 42 l 1
 58 41 l 1
 60 41 l 1
 60 43 l 1
 59 43 l 1
 59 42 l 1
63 43 m 1
 61 43 l 1
 61 41 l 1
 63 41 l 1
 63 43 l 1
43 35 m 1
 42 35 l 1
 42 33 l 1
 44 33 l 1
 44 34 l 1
 43 34 l 1
 43 35 l 1
46 35 m 1
 44 35 l 1
 44 34 l 1
 45 34 l 1
 45 33 l 1
 46 33 l 1
 46 35 l 1
49 35 m 1
 47 35 l 1
 47 33 l 1
 49 33 l 1
 49 35 l 1
55 39 m 1
 53 39 l 1
 53 37 l 1
 55 37 l 1
 55 39 l 1
55 35 m 1
 53 35 l 1
 53 33 l 1
 55 33 l 1
 55 35 l 1
57 35 m 1
 56 35 l 1
 56 33 l 1
 58 33 l 1
 58 34 l 1
 57 34 l 1
 57 35 l 1
49 31 m 1
 47 31 l 1
 47 29 l 1
 49 29 l 1
 49 31 l 1
44 27 m 1
 42 27 l 1
 42 25 l 1
 43 25 l 1
 43 26 l 1
 44 26 l 1
 44 27 l 1
45 26 m 1
 44 26 l 1
 44 25 l 1
 46 25 l 1
 46 27 l 1
 45 27 l 1
 45 26 l 1
49 27 m 1
 47 27 l 1
 47 25 l 1
 49 25 l 1
 49 27 l 1
55 31 m 1
 53 31 l 1
 53 29 l 1
 55 29 l 1
 55 31 l 1
55 27 m 1
 53 27 l 1
 53 25 l 1
 55 25 l 1
 55 27 l 1
58 27 m 1
 56 27 l 1
 56 25 l 1
 57 25 l 1
 57 26 l 1
 58 26 l 1
 58 27 l 1
60 35 m 1
 58 35 l 1
 58 34 l 1
 59 34 l 1
 59 33 l 1
 60 33 l 1
 60 35 l 1
63 35 m 1
 61 35 l 1
 61 33 l 1
 63 33 l 1
 63 35 l 1
63 31 m 1
 61 31 l 1
 61 29 l 1
 63 29 l 1
 63 31 l 1
59 26 m 1
 58 26 l 1
 58 25 l 1
 60 25 l 1
 60 27 l 1
 59 27 l 1
 59 26 l 1
63 27 m 1
 61 27 l 1
 61 25 l 1
 63 25 l 1
 63 27 l 1
EndSplineSet
EndChar

StartChar: custom_5_6_0_5_9
Encoding: 36827 36827 16859
Width: 70
Flags: H
LayerCount: 2
Fore
SplineSet
23 43 m 1
 21 43 l 1
 21 41 l 1
 23 41 l 1
 23 43 l 1
26 43 m 1
 24 43 l 1
 24 41 l 1
 25 41 l 1
 25 42 l 1
 26 42 l 1
 26 43 l 1
27 42 m 1
 26 42 l 1
 26 41 l 1
 28 41 l 1
 28 43 l 1
 27 43 l 1
 27 42 l 1
31 43 m 1
 29 43 l 1
 29 41 l 1
 31 41 l 1
 31 43 l 1
41 43 m 1
 39 43 l 1
 39 41 l 1
 41 41 l 1
 41 43 l 1
23 35 m 1
 21 35 l 1
 21 33 l 1
 23 33 l 1
 23 35 l 1
25 35 m 1
 24 35 l 1
 24 33 l 1
 26 33 l 1
 26 34 l 1
 25 34 l 1
 25 35 l 1
23 31 m 1
 21 31 l 1
 21 29 l 1
 23 29 l 1
 23 31 l 1
23 27 m 1
 21 27 l 1
 21 25 l 1
 23 25 l 1
 23 27 l 1
26 27 m 1
 24 27 l 1
 24 25 l 1
 25 25 l 1
 25 26 l 1
 26 26 l 1
 26 27 l 1
31 39 m 1
 29 39 l 1
 29 37 l 1
 31 37 l 1
 31 39 l 1
28 35 m 1
 26 35 l 1
 26 34 l 1
 27 34 l 1
 27 33 l 1
 28 33 l 1
 28 35 l 1
31 35 m 1
 29 35 l 1
 29 33 l 1
 31 33 l 1
 31 35 l 1
36 37 m 1
 34 37 l 1
 34 35 l 1
 36 35 l 1
 36 37 l 1
41 39 m 1
 39 39 l 1
 39 37 l 1
 41 37 l 1
 41 39 l 1
36 33 m 1
 34 33 l 1
 34 31 l 1
 36 31 l 1
 36 33 l 1
41 35 m 1
 39 35 l 1
 39 33 l 1
 41 33 l 1
 41 35 l 1
27 26 m 1
 26 26 l 1
 26 25 l 1
 28 25 l 1
 28 27 l 1
 27 27 l 1
 27 26 l 1
31 27 m 1
 29 27 l 1
 29 25 l 1
 31 25 l 1
 31 27 l 1
41 27 m 1
 39 27 l 1
 39 25 l 1
 41 25 l 1
 41 27 l 1
44 43 m 1
 42 43 l 1
 42 41 l 1
 43 41 l 1
 43 42 l 1
 44 42 l 1
 44 43 l 1
45 42 m 1
 44 42 l 1
 44 41 l 1
 46 41 l 1
 46 43 l 1
 45 43 l 1
 45 42 l 1
49 43 m 1
 47 43 l 1
 47 41 l 1
 49 41 l 1
 49 43 l 1
55 43 m 1
 53 43 l 1
 53 41 l 1
 55 41 l 1
 55 43 l 1
58 43 m 1
 56 43 l 1
 56 41 l 1
 57 41 l 1
 57 42 l 1
 58 42 l 1
 58 43 l 1
59 42 m 1
 58 42 l 1
 58 41 l 1
 60 41 l 1
 60 43 l 1
 59 43 l 1
 59 42 l 1
63 43 m 1
 61 43 l 1
 61 41 l 1
 63 41 l 1
 63 43 l 1
43 35 m 1
 42 35 l 1
 42 33 l 1
 44 33 l 1
 44 34 l 1
 43 34 l 1
 43 35 l 1
46 35 m 1
 44 35 l 1
 44 34 l 1
 45 34 l 1
 45 33 l 1
 46 33 l 1
 46 35 l 1
49 35 m 1
 47 35 l 1
 47 33 l 1
 49 33 l 1
 49 35 l 1
55 39 m 1
 53 39 l 1
 53 37 l 1
 55 37 l 1
 55 39 l 1
55 35 m 1
 53 35 l 1
 53 33 l 1
 55 33 l 1
 55 35 l 1
57 35 m 1
 56 35 l 1
 56 33 l 1
 58 33 l 1
 58 34 l 1
 57 34 l 1
 57 35 l 1
49 31 m 1
 47 31 l 1
 47 29 l 1
 49 29 l 1
 49 31 l 1
44 27 m 1
 42 27 l 1
 42 25 l 1
 43 25 l 1
 43 26 l 1
 44 26 l 1
 44 27 l 1
45 26 m 1
 44 26 l 1
 44 25 l 1
 46 25 l 1
 46 27 l 1
 45 27 l 1
 45 26 l 1
49 27 m 1
 47 27 l 1
 47 25 l 1
 49 25 l 1
 49 27 l 1
55 31 m 1
 53 31 l 1
 53 29 l 1
 55 29 l 1
 55 31 l 1
55 27 m 1
 53 27 l 1
 53 25 l 1
 55 25 l 1
 55 27 l 1
58 27 m 1
 56 27 l 1
 56 25 l 1
 57 25 l 1
 57 26 l 1
 58 26 l 1
 58 27 l 1
60 35 m 1
 58 35 l 1
 58 34 l 1
 59 34 l 1
 59 33 l 1
 60 33 l 1
 60 35 l 1
63 35 m 1
 61 35 l 1
 61 33 l 1
 63 33 l 1
 63 35 l 1
63 31 m 1
 61 31 l 1
 61 29 l 1
 63 29 l 1
 63 31 l 1
59 26 m 1
 58 26 l 1
 58 25 l 1
 60 25 l 1
 60 27 l 1
 59 27 l 1
 59 26 l 1
63 27 m 1
 61 27 l 1
 61 25 l 1
 63 25 l 1
 63 27 l 1
EndSplineSet
EndChar

StartChar: custom_5_6_0_6_0
Encoding: 36828 36828 16860
Width: 70
Flags: H
LayerCount: 2
Fore
SplineSet
23 43 m 1
 21 43 l 1
 21 41 l 1
 23 41 l 1
 23 43 l 1
26 43 m 1
 24 43 l 1
 24 41 l 1
 25 41 l 1
 25 42 l 1
 26 42 l 1
 26 43 l 1
27 42 m 1
 26 42 l 1
 26 41 l 1
 28 41 l 1
 28 43 l 1
 27 43 l 1
 27 42 l 1
31 43 m 1
 29 43 l 1
 29 41 l 1
 31 41 l 1
 31 43 l 1
41 43 m 1
 39 43 l 1
 39 41 l 1
 41 41 l 1
 41 43 l 1
23 35 m 1
 21 35 l 1
 21 33 l 1
 23 33 l 1
 23 35 l 1
25 35 m 1
 24 35 l 1
 24 33 l 1
 26 33 l 1
 26 34 l 1
 25 34 l 1
 25 35 l 1
23 31 m 1
 21 31 l 1
 21 29 l 1
 23 29 l 1
 23 31 l 1
23 27 m 1
 21 27 l 1
 21 25 l 1
 23 25 l 1
 23 27 l 1
26 27 m 1
 24 27 l 1
 24 25 l 1
 25 25 l 1
 25 26 l 1
 26 26 l 1
 26 27 l 1
31 39 m 1
 29 39 l 1
 29 37 l 1
 31 37 l 1
 31 39 l 1
28 35 m 1
 26 35 l 1
 26 34 l 1
 27 34 l 1
 27 33 l 1
 28 33 l 1
 28 35 l 1
31 35 m 1
 29 35 l 1
 29 33 l 1
 31 33 l 1
 31 35 l 1
36 37 m 1
 34 37 l 1
 34 35 l 1
 36 35 l 1
 36 37 l 1
41 39 m 1
 39 39 l 1
 39 37 l 1
 41 37 l 1
 41 39 l 1
36 33 m 1
 34 33 l 1
 34 31 l 1
 36 31 l 1
 36 33 l 1
41 35 m 1
 39 35 l 1
 39 33 l 1
 41 33 l 1
 41 35 l 1
27 26 m 1
 26 26 l 1
 26 25 l 1
 28 25 l 1
 28 27 l 1
 27 27 l 1
 27 26 l 1
31 27 m 1
 29 27 l 1
 29 25 l 1
 31 25 l 1
 31 27 l 1
41 27 m 1
 39 27 l 1
 39 25 l 1
 41 25 l 1
 41 27 l 1
44 43 m 1
 42 43 l 1
 42 41 l 1
 43 41 l 1
 43 42 l 1
 44 42 l 1
 44 43 l 1
45 42 m 1
 44 42 l 1
 44 41 l 1
 46 41 l 1
 46 43 l 1
 45 43 l 1
 45 42 l 1
49 43 m 1
 47 43 l 1
 47 41 l 1
 49 41 l 1
 49 43 l 1
55 43 m 1
 53 43 l 1
 53 41 l 1
 55 41 l 1
 55 43 l 1
58 43 m 1
 56 43 l 1
 56 41 l 1
 57 41 l 1
 57 42 l 1
 58 42 l 1
 58 43 l 1
59 42 m 1
 58 42 l 1
 58 41 l 1
 60 41 l 1
 60 43 l 1
 59 43 l 1
 59 42 l 1
63 43 m 1
 61 43 l 1
 61 41 l 1
 63 41 l 1
 63 43 l 1
43 35 m 1
 42 35 l 1
 42 33 l 1
 44 33 l 1
 44 34 l 1
 43 34 l 1
 43 35 l 1
46 35 m 1
 44 35 l 1
 44 34 l 1
 45 34 l 1
 45 33 l 1
 46 33 l 1
 46 35 l 1
49 35 m 1
 47 35 l 1
 47 33 l 1
 49 33 l 1
 49 35 l 1
55 39 m 1
 53 39 l 1
 53 37 l 1
 55 37 l 1
 55 39 l 1
55 35 m 1
 53 35 l 1
 53 33 l 1
 55 33 l 1
 55 35 l 1
57 35 m 1
 56 35 l 1
 56 33 l 1
 58 33 l 1
 58 34 l 1
 57 34 l 1
 57 35 l 1
49 31 m 1
 47 31 l 1
 47 29 l 1
 49 29 l 1
 49 31 l 1
44 27 m 1
 42 27 l 1
 42 25 l 1
 43 25 l 1
 43 26 l 1
 44 26 l 1
 44 27 l 1
45 26 m 1
 44 26 l 1
 44 25 l 1
 46 25 l 1
 46 27 l 1
 45 27 l 1
 45 26 l 1
49 27 m 1
 47 27 l 1
 47 25 l 1
 49 25 l 1
 49 27 l 1
55 31 m 1
 53 31 l 1
 53 29 l 1
 55 29 l 1
 55 31 l 1
55 27 m 1
 53 27 l 1
 53 25 l 1
 55 25 l 1
 55 27 l 1
58 27 m 1
 56 27 l 1
 56 25 l 1
 57 25 l 1
 57 26 l 1
 58 26 l 1
 58 27 l 1
60 35 m 1
 58 35 l 1
 58 34 l 1
 59 34 l 1
 59 33 l 1
 60 33 l 1
 60 35 l 1
63 35 m 1
 61 35 l 1
 61 33 l 1
 63 33 l 1
 63 35 l 1
63 31 m 1
 61 31 l 1
 61 29 l 1
 63 29 l 1
 63 31 l 1
59 26 m 1
 58 26 l 1
 58 25 l 1
 60 25 l 1
 60 27 l 1
 59 27 l 1
 59 26 l 1
63 27 m 1
 61 27 l 1
 61 25 l 1
 63 25 l 1
 63 27 l 1
EndSplineSet
EndChar

StartChar: custom_5_6_0_6_1
Encoding: 36829 36829 16861
Width: 70
Flags: H
LayerCount: 2
Fore
SplineSet
23 43 m 1
 21 43 l 1
 21 41 l 1
 23 41 l 1
 23 43 l 1
26 43 m 1
 24 43 l 1
 24 41 l 1
 25 41 l 1
 25 42 l 1
 26 42 l 1
 26 43 l 1
27 42 m 1
 26 42 l 1
 26 41 l 1
 28 41 l 1
 28 43 l 1
 27 43 l 1
 27 42 l 1
31 43 m 1
 29 43 l 1
 29 41 l 1
 31 41 l 1
 31 43 l 1
41 43 m 1
 39 43 l 1
 39 41 l 1
 41 41 l 1
 41 43 l 1
23 35 m 1
 21 35 l 1
 21 33 l 1
 23 33 l 1
 23 35 l 1
25 35 m 1
 24 35 l 1
 24 33 l 1
 26 33 l 1
 26 34 l 1
 25 34 l 1
 25 35 l 1
23 31 m 1
 21 31 l 1
 21 29 l 1
 23 29 l 1
 23 31 l 1
23 27 m 1
 21 27 l 1
 21 25 l 1
 23 25 l 1
 23 27 l 1
26 27 m 1
 24 27 l 1
 24 25 l 1
 25 25 l 1
 25 26 l 1
 26 26 l 1
 26 27 l 1
31 39 m 1
 29 39 l 1
 29 37 l 1
 31 37 l 1
 31 39 l 1
28 35 m 1
 26 35 l 1
 26 34 l 1
 27 34 l 1
 27 33 l 1
 28 33 l 1
 28 35 l 1
31 35 m 1
 29 35 l 1
 29 33 l 1
 31 33 l 1
 31 35 l 1
36 37 m 1
 34 37 l 1
 34 35 l 1
 36 35 l 1
 36 37 l 1
41 39 m 1
 39 39 l 1
 39 37 l 1
 41 37 l 1
 41 39 l 1
36 33 m 1
 34 33 l 1
 34 31 l 1
 36 31 l 1
 36 33 l 1
41 35 m 1
 39 35 l 1
 39 33 l 1
 41 33 l 1
 41 35 l 1
27 26 m 1
 26 26 l 1
 26 25 l 1
 28 25 l 1
 28 27 l 1
 27 27 l 1
 27 26 l 1
31 27 m 1
 29 27 l 1
 29 25 l 1
 31 25 l 1
 31 27 l 1
41 27 m 1
 39 27 l 1
 39 25 l 1
 41 25 l 1
 41 27 l 1
44 43 m 1
 42 43 l 1
 42 41 l 1
 43 41 l 1
 43 42 l 1
 44 42 l 1
 44 43 l 1
45 42 m 1
 44 42 l 1
 44 41 l 1
 46 41 l 1
 46 43 l 1
 45 43 l 1
 45 42 l 1
49 43 m 1
 47 43 l 1
 47 41 l 1
 49 41 l 1
 49 43 l 1
55 43 m 1
 53 43 l 1
 53 41 l 1
 55 41 l 1
 55 43 l 1
58 43 m 1
 56 43 l 1
 56 41 l 1
 57 41 l 1
 57 42 l 1
 58 42 l 1
 58 43 l 1
59 42 m 1
 58 42 l 1
 58 41 l 1
 60 41 l 1
 60 43 l 1
 59 43 l 1
 59 42 l 1
63 43 m 1
 61 43 l 1
 61 41 l 1
 63 41 l 1
 63 43 l 1
43 35 m 1
 42 35 l 1
 42 33 l 1
 44 33 l 1
 44 34 l 1
 43 34 l 1
 43 35 l 1
46 35 m 1
 44 35 l 1
 44 34 l 1
 45 34 l 1
 45 33 l 1
 46 33 l 1
 46 35 l 1
49 35 m 1
 47 35 l 1
 47 33 l 1
 49 33 l 1
 49 35 l 1
55 39 m 1
 53 39 l 1
 53 37 l 1
 55 37 l 1
 55 39 l 1
55 35 m 1
 53 35 l 1
 53 33 l 1
 55 33 l 1
 55 35 l 1
57 35 m 1
 56 35 l 1
 56 33 l 1
 58 33 l 1
 58 34 l 1
 57 34 l 1
 57 35 l 1
49 31 m 1
 47 31 l 1
 47 29 l 1
 49 29 l 1
 49 31 l 1
44 27 m 1
 42 27 l 1
 42 25 l 1
 43 25 l 1
 43 26 l 1
 44 26 l 1
 44 27 l 1
45 26 m 1
 44 26 l 1
 44 25 l 1
 46 25 l 1
 46 27 l 1
 45 27 l 1
 45 26 l 1
49 27 m 1
 47 27 l 1
 47 25 l 1
 49 25 l 1
 49 27 l 1
55 31 m 1
 53 31 l 1
 53 29 l 1
 55 29 l 1
 55 31 l 1
55 27 m 1
 53 27 l 1
 53 25 l 1
 55 25 l 1
 55 27 l 1
58 27 m 1
 56 27 l 1
 56 25 l 1
 57 25 l 1
 57 26 l 1
 58 26 l 1
 58 27 l 1
60 35 m 1
 58 35 l 1
 58 34 l 1
 59 34 l 1
 59 33 l 1
 60 33 l 1
 60 35 l 1
63 35 m 1
 61 35 l 1
 61 33 l 1
 63 33 l 1
 63 35 l 1
63 31 m 1
 61 31 l 1
 61 29 l 1
 63 29 l 1
 63 31 l 1
59 26 m 1
 58 26 l 1
 58 25 l 1
 60 25 l 1
 60 27 l 1
 59 27 l 1
 59 26 l 1
63 27 m 1
 61 27 l 1
 61 25 l 1
 63 25 l 1
 63 27 l 1
EndSplineSet
EndChar

StartChar: custom_5_6_0_6_2
Encoding: 36830 36830 16862
Width: 70
Flags: H
LayerCount: 2
Fore
SplineSet
23 43 m 1
 21 43 l 1
 21 41 l 1
 23 41 l 1
 23 43 l 1
26 43 m 1
 24 43 l 1
 24 41 l 1
 25 41 l 1
 25 42 l 1
 26 42 l 1
 26 43 l 1
27 42 m 1
 26 42 l 1
 26 41 l 1
 28 41 l 1
 28 43 l 1
 27 43 l 1
 27 42 l 1
31 43 m 1
 29 43 l 1
 29 41 l 1
 31 41 l 1
 31 43 l 1
41 43 m 1
 39 43 l 1
 39 41 l 1
 41 41 l 1
 41 43 l 1
23 35 m 1
 21 35 l 1
 21 33 l 1
 23 33 l 1
 23 35 l 1
25 35 m 1
 24 35 l 1
 24 33 l 1
 26 33 l 1
 26 34 l 1
 25 34 l 1
 25 35 l 1
23 31 m 1
 21 31 l 1
 21 29 l 1
 23 29 l 1
 23 31 l 1
23 27 m 1
 21 27 l 1
 21 25 l 1
 23 25 l 1
 23 27 l 1
26 27 m 1
 24 27 l 1
 24 25 l 1
 25 25 l 1
 25 26 l 1
 26 26 l 1
 26 27 l 1
31 39 m 1
 29 39 l 1
 29 37 l 1
 31 37 l 1
 31 39 l 1
28 35 m 1
 26 35 l 1
 26 34 l 1
 27 34 l 1
 27 33 l 1
 28 33 l 1
 28 35 l 1
31 35 m 1
 29 35 l 1
 29 33 l 1
 31 33 l 1
 31 35 l 1
36 37 m 1
 34 37 l 1
 34 35 l 1
 36 35 l 1
 36 37 l 1
41 39 m 1
 39 39 l 1
 39 37 l 1
 41 37 l 1
 41 39 l 1
36 33 m 1
 34 33 l 1
 34 31 l 1
 36 31 l 1
 36 33 l 1
41 35 m 1
 39 35 l 1
 39 33 l 1
 41 33 l 1
 41 35 l 1
27 26 m 1
 26 26 l 1
 26 25 l 1
 28 25 l 1
 28 27 l 1
 27 27 l 1
 27 26 l 1
31 27 m 1
 29 27 l 1
 29 25 l 1
 31 25 l 1
 31 27 l 1
41 27 m 1
 39 27 l 1
 39 25 l 1
 41 25 l 1
 41 27 l 1
44 43 m 1
 42 43 l 1
 42 41 l 1
 43 41 l 1
 43 42 l 1
 44 42 l 1
 44 43 l 1
45 42 m 1
 44 42 l 1
 44 41 l 1
 46 41 l 1
 46 43 l 1
 45 43 l 1
 45 42 l 1
49 43 m 1
 47 43 l 1
 47 41 l 1
 49 41 l 1
 49 43 l 1
55 43 m 1
 53 43 l 1
 53 41 l 1
 55 41 l 1
 55 43 l 1
58 43 m 1
 56 43 l 1
 56 41 l 1
 57 41 l 1
 57 42 l 1
 58 42 l 1
 58 43 l 1
59 42 m 1
 58 42 l 1
 58 41 l 1
 60 41 l 1
 60 43 l 1
 59 43 l 1
 59 42 l 1
63 43 m 1
 61 43 l 1
 61 41 l 1
 63 41 l 1
 63 43 l 1
43 35 m 1
 42 35 l 1
 42 33 l 1
 44 33 l 1
 44 34 l 1
 43 34 l 1
 43 35 l 1
46 35 m 1
 44 35 l 1
 44 34 l 1
 45 34 l 1
 45 33 l 1
 46 33 l 1
 46 35 l 1
49 35 m 1
 47 35 l 1
 47 33 l 1
 49 33 l 1
 49 35 l 1
55 39 m 1
 53 39 l 1
 53 37 l 1
 55 37 l 1
 55 39 l 1
55 35 m 1
 53 35 l 1
 53 33 l 1
 55 33 l 1
 55 35 l 1
57 35 m 1
 56 35 l 1
 56 33 l 1
 58 33 l 1
 58 34 l 1
 57 34 l 1
 57 35 l 1
49 31 m 1
 47 31 l 1
 47 29 l 1
 49 29 l 1
 49 31 l 1
44 27 m 1
 42 27 l 1
 42 25 l 1
 43 25 l 1
 43 26 l 1
 44 26 l 1
 44 27 l 1
45 26 m 1
 44 26 l 1
 44 25 l 1
 46 25 l 1
 46 27 l 1
 45 27 l 1
 45 26 l 1
49 27 m 1
 47 27 l 1
 47 25 l 1
 49 25 l 1
 49 27 l 1
55 31 m 1
 53 31 l 1
 53 29 l 1
 55 29 l 1
 55 31 l 1
55 27 m 1
 53 27 l 1
 53 25 l 1
 55 25 l 1
 55 27 l 1
58 27 m 1
 56 27 l 1
 56 25 l 1
 57 25 l 1
 57 26 l 1
 58 26 l 1
 58 27 l 1
60 35 m 1
 58 35 l 1
 58 34 l 1
 59 34 l 1
 59 33 l 1
 60 33 l 1
 60 35 l 1
63 35 m 1
 61 35 l 1
 61 33 l 1
 63 33 l 1
 63 35 l 1
63 31 m 1
 61 31 l 1
 61 29 l 1
 63 29 l 1
 63 31 l 1
59 26 m 1
 58 26 l 1
 58 25 l 1
 60 25 l 1
 60 27 l 1
 59 27 l 1
 59 26 l 1
63 27 m 1
 61 27 l 1
 61 25 l 1
 63 25 l 1
 63 27 l 1
EndSplineSet
EndChar

StartChar: custom_5_6_0_6_3
Encoding: 36831 36831 16863
Width: 70
Flags: H
LayerCount: 2
Fore
SplineSet
23 43 m 1
 21 43 l 1
 21 41 l 1
 23 41 l 1
 23 43 l 1
26 43 m 1
 24 43 l 1
 24 41 l 1
 25 41 l 1
 25 42 l 1
 26 42 l 1
 26 43 l 1
27 42 m 1
 26 42 l 1
 26 41 l 1
 28 41 l 1
 28 43 l 1
 27 43 l 1
 27 42 l 1
31 43 m 1
 29 43 l 1
 29 41 l 1
 31 41 l 1
 31 43 l 1
41 43 m 1
 39 43 l 1
 39 41 l 1
 41 41 l 1
 41 43 l 1
23 35 m 1
 21 35 l 1
 21 33 l 1
 23 33 l 1
 23 35 l 1
25 35 m 1
 24 35 l 1
 24 33 l 1
 26 33 l 1
 26 34 l 1
 25 34 l 1
 25 35 l 1
23 31 m 1
 21 31 l 1
 21 29 l 1
 23 29 l 1
 23 31 l 1
23 27 m 1
 21 27 l 1
 21 25 l 1
 23 25 l 1
 23 27 l 1
26 27 m 1
 24 27 l 1
 24 25 l 1
 25 25 l 1
 25 26 l 1
 26 26 l 1
 26 27 l 1
31 39 m 1
 29 39 l 1
 29 37 l 1
 31 37 l 1
 31 39 l 1
28 35 m 1
 26 35 l 1
 26 34 l 1
 27 34 l 1
 27 33 l 1
 28 33 l 1
 28 35 l 1
31 35 m 1
 29 35 l 1
 29 33 l 1
 31 33 l 1
 31 35 l 1
36 37 m 1
 34 37 l 1
 34 35 l 1
 36 35 l 1
 36 37 l 1
41 39 m 1
 39 39 l 1
 39 37 l 1
 41 37 l 1
 41 39 l 1
36 33 m 1
 34 33 l 1
 34 31 l 1
 36 31 l 1
 36 33 l 1
41 35 m 1
 39 35 l 1
 39 33 l 1
 41 33 l 1
 41 35 l 1
27 26 m 1
 26 26 l 1
 26 25 l 1
 28 25 l 1
 28 27 l 1
 27 27 l 1
 27 26 l 1
31 27 m 1
 29 27 l 1
 29 25 l 1
 31 25 l 1
 31 27 l 1
41 27 m 1
 39 27 l 1
 39 25 l 1
 41 25 l 1
 41 27 l 1
44 43 m 1
 42 43 l 1
 42 41 l 1
 43 41 l 1
 43 42 l 1
 44 42 l 1
 44 43 l 1
45 42 m 1
 44 42 l 1
 44 41 l 1
 46 41 l 1
 46 43 l 1
 45 43 l 1
 45 42 l 1
49 43 m 1
 47 43 l 1
 47 41 l 1
 49 41 l 1
 49 43 l 1
55 43 m 1
 53 43 l 1
 53 41 l 1
 55 41 l 1
 55 43 l 1
58 43 m 1
 56 43 l 1
 56 41 l 1
 57 41 l 1
 57 42 l 1
 58 42 l 1
 58 43 l 1
59 42 m 1
 58 42 l 1
 58 41 l 1
 60 41 l 1
 60 43 l 1
 59 43 l 1
 59 42 l 1
63 43 m 1
 61 43 l 1
 61 41 l 1
 63 41 l 1
 63 43 l 1
43 35 m 1
 42 35 l 1
 42 33 l 1
 44 33 l 1
 44 34 l 1
 43 34 l 1
 43 35 l 1
46 35 m 1
 44 35 l 1
 44 34 l 1
 45 34 l 1
 45 33 l 1
 46 33 l 1
 46 35 l 1
49 35 m 1
 47 35 l 1
 47 33 l 1
 49 33 l 1
 49 35 l 1
55 39 m 1
 53 39 l 1
 53 37 l 1
 55 37 l 1
 55 39 l 1
55 35 m 1
 53 35 l 1
 53 33 l 1
 55 33 l 1
 55 35 l 1
57 35 m 1
 56 35 l 1
 56 33 l 1
 58 33 l 1
 58 34 l 1
 57 34 l 1
 57 35 l 1
49 31 m 1
 47 31 l 1
 47 29 l 1
 49 29 l 1
 49 31 l 1
44 27 m 1
 42 27 l 1
 42 25 l 1
 43 25 l 1
 43 26 l 1
 44 26 l 1
 44 27 l 1
45 26 m 1
 44 26 l 1
 44 25 l 1
 46 25 l 1
 46 27 l 1
 45 27 l 1
 45 26 l 1
49 27 m 1
 47 27 l 1
 47 25 l 1
 49 25 l 1
 49 27 l 1
55 31 m 1
 53 31 l 1
 53 29 l 1
 55 29 l 1
 55 31 l 1
55 27 m 1
 53 27 l 1
 53 25 l 1
 55 25 l 1
 55 27 l 1
58 27 m 1
 56 27 l 1
 56 25 l 1
 57 25 l 1
 57 26 l 1
 58 26 l 1
 58 27 l 1
60 35 m 1
 58 35 l 1
 58 34 l 1
 59 34 l 1
 59 33 l 1
 60 33 l 1
 60 35 l 1
63 35 m 1
 61 35 l 1
 61 33 l 1
 63 33 l 1
 63 35 l 1
63 31 m 1
 61 31 l 1
 61 29 l 1
 63 29 l 1
 63 31 l 1
59 26 m 1
 58 26 l 1
 58 25 l 1
 60 25 l 1
 60 27 l 1
 59 27 l 1
 59 26 l 1
63 27 m 1
 61 27 l 1
 61 25 l 1
 63 25 l 1
 63 27 l 1
EndSplineSet
EndChar

StartChar: custom_5_6_0_6_4
Encoding: 36832 36832 16864
Width: 70
Flags: H
LayerCount: 2
Fore
SplineSet
23 43 m 1
 21 43 l 1
 21 41 l 1
 23 41 l 1
 23 43 l 1
26 43 m 1
 24 43 l 1
 24 41 l 1
 25 41 l 1
 25 42 l 1
 26 42 l 1
 26 43 l 1
27 42 m 1
 26 42 l 1
 26 41 l 1
 28 41 l 1
 28 43 l 1
 27 43 l 1
 27 42 l 1
31 43 m 1
 29 43 l 1
 29 41 l 1
 31 41 l 1
 31 43 l 1
41 43 m 1
 39 43 l 1
 39 41 l 1
 41 41 l 1
 41 43 l 1
23 35 m 1
 21 35 l 1
 21 33 l 1
 23 33 l 1
 23 35 l 1
25 35 m 1
 24 35 l 1
 24 33 l 1
 26 33 l 1
 26 34 l 1
 25 34 l 1
 25 35 l 1
23 31 m 1
 21 31 l 1
 21 29 l 1
 23 29 l 1
 23 31 l 1
23 27 m 1
 21 27 l 1
 21 25 l 1
 23 25 l 1
 23 27 l 1
26 27 m 1
 24 27 l 1
 24 25 l 1
 25 25 l 1
 25 26 l 1
 26 26 l 1
 26 27 l 1
31 39 m 1
 29 39 l 1
 29 37 l 1
 31 37 l 1
 31 39 l 1
28 35 m 1
 26 35 l 1
 26 34 l 1
 27 34 l 1
 27 33 l 1
 28 33 l 1
 28 35 l 1
31 35 m 1
 29 35 l 1
 29 33 l 1
 31 33 l 1
 31 35 l 1
36 37 m 1
 34 37 l 1
 34 35 l 1
 36 35 l 1
 36 37 l 1
41 39 m 1
 39 39 l 1
 39 37 l 1
 41 37 l 1
 41 39 l 1
36 33 m 1
 34 33 l 1
 34 31 l 1
 36 31 l 1
 36 33 l 1
41 35 m 1
 39 35 l 1
 39 33 l 1
 41 33 l 1
 41 35 l 1
27 26 m 1
 26 26 l 1
 26 25 l 1
 28 25 l 1
 28 27 l 1
 27 27 l 1
 27 26 l 1
31 27 m 1
 29 27 l 1
 29 25 l 1
 31 25 l 1
 31 27 l 1
41 27 m 1
 39 27 l 1
 39 25 l 1
 41 25 l 1
 41 27 l 1
44 43 m 1
 42 43 l 1
 42 41 l 1
 43 41 l 1
 43 42 l 1
 44 42 l 1
 44 43 l 1
45 42 m 1
 44 42 l 1
 44 41 l 1
 46 41 l 1
 46 43 l 1
 45 43 l 1
 45 42 l 1
49 43 m 1
 47 43 l 1
 47 41 l 1
 49 41 l 1
 49 43 l 1
55 43 m 1
 53 43 l 1
 53 41 l 1
 55 41 l 1
 55 43 l 1
58 43 m 1
 56 43 l 1
 56 41 l 1
 57 41 l 1
 57 42 l 1
 58 42 l 1
 58 43 l 1
59 42 m 1
 58 42 l 1
 58 41 l 1
 60 41 l 1
 60 43 l 1
 59 43 l 1
 59 42 l 1
63 43 m 1
 61 43 l 1
 61 41 l 1
 63 41 l 1
 63 43 l 1
43 35 m 1
 42 35 l 1
 42 33 l 1
 44 33 l 1
 44 34 l 1
 43 34 l 1
 43 35 l 1
46 35 m 1
 44 35 l 1
 44 34 l 1
 45 34 l 1
 45 33 l 1
 46 33 l 1
 46 35 l 1
49 35 m 1
 47 35 l 1
 47 33 l 1
 49 33 l 1
 49 35 l 1
55 39 m 1
 53 39 l 1
 53 37 l 1
 55 37 l 1
 55 39 l 1
55 35 m 1
 53 35 l 1
 53 33 l 1
 55 33 l 1
 55 35 l 1
57 35 m 1
 56 35 l 1
 56 33 l 1
 58 33 l 1
 58 34 l 1
 57 34 l 1
 57 35 l 1
49 31 m 1
 47 31 l 1
 47 29 l 1
 49 29 l 1
 49 31 l 1
44 27 m 1
 42 27 l 1
 42 25 l 1
 43 25 l 1
 43 26 l 1
 44 26 l 1
 44 27 l 1
45 26 m 1
 44 26 l 1
 44 25 l 1
 46 25 l 1
 46 27 l 1
 45 27 l 1
 45 26 l 1
49 27 m 1
 47 27 l 1
 47 25 l 1
 49 25 l 1
 49 27 l 1
55 31 m 1
 53 31 l 1
 53 29 l 1
 55 29 l 1
 55 31 l 1
55 27 m 1
 53 27 l 1
 53 25 l 1
 55 25 l 1
 55 27 l 1
58 27 m 1
 56 27 l 1
 56 25 l 1
 57 25 l 1
 57 26 l 1
 58 26 l 1
 58 27 l 1
60 35 m 1
 58 35 l 1
 58 34 l 1
 59 34 l 1
 59 33 l 1
 60 33 l 1
 60 35 l 1
63 35 m 1
 61 35 l 1
 61 33 l 1
 63 33 l 1
 63 35 l 1
63 31 m 1
 61 31 l 1
 61 29 l 1
 63 29 l 1
 63 31 l 1
59 26 m 1
 58 26 l 1
 58 25 l 1
 60 25 l 1
 60 27 l 1
 59 27 l 1
 59 26 l 1
63 27 m 1
 61 27 l 1
 61 25 l 1
 63 25 l 1
 63 27 l 1
EndSplineSet
EndChar

StartChar: custom_5_6_0_6_5
Encoding: 36833 36833 16865
Width: 70
Flags: H
LayerCount: 2
Fore
SplineSet
23 43 m 1
 21 43 l 1
 21 41 l 1
 23 41 l 1
 23 43 l 1
26 43 m 1
 24 43 l 1
 24 41 l 1
 25 41 l 1
 25 42 l 1
 26 42 l 1
 26 43 l 1
27 42 m 1
 26 42 l 1
 26 41 l 1
 28 41 l 1
 28 43 l 1
 27 43 l 1
 27 42 l 1
31 43 m 1
 29 43 l 1
 29 41 l 1
 31 41 l 1
 31 43 l 1
41 43 m 1
 39 43 l 1
 39 41 l 1
 41 41 l 1
 41 43 l 1
23 35 m 1
 21 35 l 1
 21 33 l 1
 23 33 l 1
 23 35 l 1
25 35 m 1
 24 35 l 1
 24 33 l 1
 26 33 l 1
 26 34 l 1
 25 34 l 1
 25 35 l 1
23 31 m 1
 21 31 l 1
 21 29 l 1
 23 29 l 1
 23 31 l 1
23 27 m 1
 21 27 l 1
 21 25 l 1
 23 25 l 1
 23 27 l 1
26 27 m 1
 24 27 l 1
 24 25 l 1
 25 25 l 1
 25 26 l 1
 26 26 l 1
 26 27 l 1
31 39 m 1
 29 39 l 1
 29 37 l 1
 31 37 l 1
 31 39 l 1
28 35 m 1
 26 35 l 1
 26 34 l 1
 27 34 l 1
 27 33 l 1
 28 33 l 1
 28 35 l 1
31 35 m 1
 29 35 l 1
 29 33 l 1
 31 33 l 1
 31 35 l 1
36 37 m 1
 34 37 l 1
 34 35 l 1
 36 35 l 1
 36 37 l 1
41 39 m 1
 39 39 l 1
 39 37 l 1
 41 37 l 1
 41 39 l 1
36 33 m 1
 34 33 l 1
 34 31 l 1
 36 31 l 1
 36 33 l 1
41 35 m 1
 39 35 l 1
 39 33 l 1
 41 33 l 1
 41 35 l 1
27 26 m 1
 26 26 l 1
 26 25 l 1
 28 25 l 1
 28 27 l 1
 27 27 l 1
 27 26 l 1
31 27 m 1
 29 27 l 1
 29 25 l 1
 31 25 l 1
 31 27 l 1
41 27 m 1
 39 27 l 1
 39 25 l 1
 41 25 l 1
 41 27 l 1
44 43 m 1
 42 43 l 1
 42 41 l 1
 43 41 l 1
 43 42 l 1
 44 42 l 1
 44 43 l 1
45 42 m 1
 44 42 l 1
 44 41 l 1
 46 41 l 1
 46 43 l 1
 45 43 l 1
 45 42 l 1
49 43 m 1
 47 43 l 1
 47 41 l 1
 49 41 l 1
 49 43 l 1
55 43 m 1
 53 43 l 1
 53 41 l 1
 55 41 l 1
 55 43 l 1
58 43 m 1
 56 43 l 1
 56 41 l 1
 57 41 l 1
 57 42 l 1
 58 42 l 1
 58 43 l 1
59 42 m 1
 58 42 l 1
 58 41 l 1
 60 41 l 1
 60 43 l 1
 59 43 l 1
 59 42 l 1
63 43 m 1
 61 43 l 1
 61 41 l 1
 63 41 l 1
 63 43 l 1
43 35 m 1
 42 35 l 1
 42 33 l 1
 44 33 l 1
 44 34 l 1
 43 34 l 1
 43 35 l 1
46 35 m 1
 44 35 l 1
 44 34 l 1
 45 34 l 1
 45 33 l 1
 46 33 l 1
 46 35 l 1
49 35 m 1
 47 35 l 1
 47 33 l 1
 49 33 l 1
 49 35 l 1
55 39 m 1
 53 39 l 1
 53 37 l 1
 55 37 l 1
 55 39 l 1
55 35 m 1
 53 35 l 1
 53 33 l 1
 55 33 l 1
 55 35 l 1
57 35 m 1
 56 35 l 1
 56 33 l 1
 58 33 l 1
 58 34 l 1
 57 34 l 1
 57 35 l 1
49 31 m 1
 47 31 l 1
 47 29 l 1
 49 29 l 1
 49 31 l 1
44 27 m 1
 42 27 l 1
 42 25 l 1
 43 25 l 1
 43 26 l 1
 44 26 l 1
 44 27 l 1
45 26 m 1
 44 26 l 1
 44 25 l 1
 46 25 l 1
 46 27 l 1
 45 27 l 1
 45 26 l 1
49 27 m 1
 47 27 l 1
 47 25 l 1
 49 25 l 1
 49 27 l 1
55 31 m 1
 53 31 l 1
 53 29 l 1
 55 29 l 1
 55 31 l 1
55 27 m 1
 53 27 l 1
 53 25 l 1
 55 25 l 1
 55 27 l 1
58 27 m 1
 56 27 l 1
 56 25 l 1
 57 25 l 1
 57 26 l 1
 58 26 l 1
 58 27 l 1
60 35 m 1
 58 35 l 1
 58 34 l 1
 59 34 l 1
 59 33 l 1
 60 33 l 1
 60 35 l 1
63 35 m 1
 61 35 l 1
 61 33 l 1
 63 33 l 1
 63 35 l 1
63 31 m 1
 61 31 l 1
 61 29 l 1
 63 29 l 1
 63 31 l 1
59 26 m 1
 58 26 l 1
 58 25 l 1
 60 25 l 1
 60 27 l 1
 59 27 l 1
 59 26 l 1
63 27 m 1
 61 27 l 1
 61 25 l 1
 63 25 l 1
 63 27 l 1
EndSplineSet
EndChar

StartChar: custom_5_6_0_6_6
Encoding: 36834 36834 16866
Width: 70
Flags: H
LayerCount: 2
Fore
SplineSet
9 -1 m 1
 8 -1 l 1
 8 -2 l 1
 9 -2 l 1
 9 -1 l 1
23 43 m 1
 21 43 l 1
 21 41 l 1
 23 41 l 1
 23 43 l 1
26 43 m 1
 24 43 l 1
 24 41 l 1
 25 41 l 1
 25 42 l 1
 26 42 l 1
 26 43 l 1
27 42 m 1
 26 42 l 1
 26 41 l 1
 28 41 l 1
 28 43 l 1
 27 43 l 1
 27 42 l 1
31 43 m 1
 29 43 l 1
 29 41 l 1
 31 41 l 1
 31 43 l 1
41 43 m 1
 39 43 l 1
 39 41 l 1
 41 41 l 1
 41 43 l 1
23 35 m 1
 21 35 l 1
 21 33 l 1
 23 33 l 1
 23 35 l 1
25 35 m 1
 24 35 l 1
 24 33 l 1
 26 33 l 1
 26 34 l 1
 25 34 l 1
 25 35 l 1
23 31 m 1
 21 31 l 1
 21 29 l 1
 23 29 l 1
 23 31 l 1
23 27 m 1
 21 27 l 1
 21 25 l 1
 23 25 l 1
 23 27 l 1
26 27 m 1
 24 27 l 1
 24 25 l 1
 25 25 l 1
 25 26 l 1
 26 26 l 1
 26 27 l 1
31 39 m 1
 29 39 l 1
 29 37 l 1
 31 37 l 1
 31 39 l 1
28 35 m 1
 26 35 l 1
 26 34 l 1
 27 34 l 1
 27 33 l 1
 28 33 l 1
 28 35 l 1
31 35 m 1
 29 35 l 1
 29 33 l 1
 31 33 l 1
 31 35 l 1
36 37 m 1
 34 37 l 1
 34 35 l 1
 36 35 l 1
 36 37 l 1
41 39 m 1
 39 39 l 1
 39 37 l 1
 41 37 l 1
 41 39 l 1
36 33 m 1
 34 33 l 1
 34 31 l 1
 36 31 l 1
 36 33 l 1
41 35 m 1
 39 35 l 1
 39 33 l 1
 41 33 l 1
 41 35 l 1
27 26 m 1
 26 26 l 1
 26 25 l 1
 28 25 l 1
 28 27 l 1
 27 27 l 1
 27 26 l 1
31 27 m 1
 29 27 l 1
 29 25 l 1
 31 25 l 1
 31 27 l 1
41 27 m 1
 39 27 l 1
 39 25 l 1
 41 25 l 1
 41 27 l 1
44 43 m 1
 42 43 l 1
 42 41 l 1
 43 41 l 1
 43 42 l 1
 44 42 l 1
 44 43 l 1
45 42 m 1
 44 42 l 1
 44 41 l 1
 46 41 l 1
 46 43 l 1
 45 43 l 1
 45 42 l 1
49 43 m 1
 47 43 l 1
 47 41 l 1
 49 41 l 1
 49 43 l 1
55 43 m 1
 53 43 l 1
 53 41 l 1
 55 41 l 1
 55 43 l 1
58 43 m 1
 56 43 l 1
 56 41 l 1
 57 41 l 1
 57 42 l 1
 58 42 l 1
 58 43 l 1
59 42 m 1
 58 42 l 1
 58 41 l 1
 60 41 l 1
 60 43 l 1
 59 43 l 1
 59 42 l 1
63 43 m 1
 61 43 l 1
 61 41 l 1
 63 41 l 1
 63 43 l 1
43 35 m 1
 42 35 l 1
 42 33 l 1
 44 33 l 1
 44 34 l 1
 43 34 l 1
 43 35 l 1
46 35 m 1
 44 35 l 1
 44 34 l 1
 45 34 l 1
 45 33 l 1
 46 33 l 1
 46 35 l 1
49 35 m 1
 47 35 l 1
 47 33 l 1
 49 33 l 1
 49 35 l 1
55 39 m 1
 53 39 l 1
 53 37 l 1
 55 37 l 1
 55 39 l 1
55 35 m 1
 53 35 l 1
 53 33 l 1
 55 33 l 1
 55 35 l 1
57 35 m 1
 56 35 l 1
 56 33 l 1
 58 33 l 1
 58 34 l 1
 57 34 l 1
 57 35 l 1
49 31 m 1
 47 31 l 1
 47 29 l 1
 49 29 l 1
 49 31 l 1
44 27 m 1
 42 27 l 1
 42 25 l 1
 43 25 l 1
 43 26 l 1
 44 26 l 1
 44 27 l 1
45 26 m 1
 44 26 l 1
 44 25 l 1
 46 25 l 1
 46 27 l 1
 45 27 l 1
 45 26 l 1
49 27 m 1
 47 27 l 1
 47 25 l 1
 49 25 l 1
 49 27 l 1
55 31 m 1
 53 31 l 1
 53 29 l 1
 55 29 l 1
 55 31 l 1
55 27 m 1
 53 27 l 1
 53 25 l 1
 55 25 l 1
 55 27 l 1
58 27 m 1
 56 27 l 1
 56 25 l 1
 57 25 l 1
 57 26 l 1
 58 26 l 1
 58 27 l 1
60 35 m 1
 58 35 l 1
 58 34 l 1
 59 34 l 1
 59 33 l 1
 60 33 l 1
 60 35 l 1
63 35 m 1
 61 35 l 1
 61 33 l 1
 63 33 l 1
 63 35 l 1
63 31 m 1
 61 31 l 1
 61 29 l 1
 63 29 l 1
 63 31 l 1
59 26 m 1
 58 26 l 1
 58 25 l 1
 60 25 l 1
 60 27 l 1
 59 27 l 1
 59 26 l 1
63 27 m 1
 61 27 l 1
 61 25 l 1
 63 25 l 1
 63 27 l 1
EndSplineSet
EndChar

